<?xml version="1.0" encoding="UTF-8" standalone="no"?>
<!-- Created with Inkscape (http://www.inkscape.org/) -->

<svg
   xmlns:dc="http://purl.org/dc/elements/1.1/"
   xmlns:cc="http://creativecommons.org/ns#"
   xmlns:rdf="http://www.w3.org/1999/02/22-rdf-syntax-ns#"
   xmlns:svg="http://www.w3.org/2000/svg"
   xmlns="http://www.w3.org/2000/svg"
   xmlns:sodipodi="http://sodipodi.sourceforge.net/DTD/sodipodi-0.dtd"
   xmlns:inkscape="http://www.inkscape.org/namespaces/inkscape"
   version="1.1"
   id="svg5451"
   xml:space="preserve"
   width="62.708862mm"
   height="129.98463mm"
   viewBox="0 0 237.00988 491.28051"
   sodipodi:docname="arm_long_bar_1.0.svg"
   inkscape:version="0.92.1 r15371"><metadata
     id="metadata5457"><rdf:RDF><cc:Work
         rdf:about=""><dc:format>image/svg+xml</dc:format><dc:type
           rdf:resource="http://purl.org/dc/dcmitype/StillImage" /><dc:title></dc:title></cc:Work></rdf:RDF></metadata><defs
     id="defs5455" /><sodipodi:namedview
     pagecolor="#ffffff"
     bordercolor="#666666"
     borderopacity="1"
     objecttolerance="10"
     gridtolerance="10"
     guidetolerance="10"
     inkscape:pageopacity="0"
     inkscape:pageshadow="2"
     inkscape:window-width="1920"
     inkscape:window-height="1017"
     id="namedview5453"
     showgrid="false"
     inkscape:document-units="mm"
     units="mm"
     fit-margin-top="10"
     fit-margin-left="10"
     fit-margin-bottom="10"
     fit-margin-right="10"
     inkscape:zoom="1.0767321"
     inkscape:cx="172.16932"
     inkscape:cy="288.63546"
     inkscape:window-x="-8"
     inkscape:window-y="-8"
     inkscape:window-maximized="1"
     inkscape:current-layer="g6142" /><g
     id="g5459"
     inkscape:groupmode="layer"
     inkscape:label="4dof-parts_roboticia"
     transform="matrix(1.3333333,0,0,-1.3333333,26.457605,464.82159)"><g
       id="g5461"
       style="stroke-width:0.28346458;stroke-miterlimit:4;stroke-dasharray:none"
       transform="matrix(1.0010489,0,0,1.0010489,-0.00891886,-0.00891781)"><path
         d="m 73.359,279.417 c 0,15.481 12.551,28.031 28.032,28.031 15.484,0 28.035,-12.55 28.035,-28.031"
         style="fill:none;stroke:#ff0000;stroke-width:0.28346458;stroke-linecap:round;stroke-linejoin:round;stroke-miterlimit:4;stroke-dasharray:none;stroke-opacity:1"
         id="path5463"
         inkscape:connector-curvature="0" /><path
         d="m 123.902,38.726 c 0,-3.051 -2.472,-5.524 -5.519,-5.524 -3.051,0 -5.524,2.473 -5.524,5.524 0,3.05 2.473,5.519 5.524,5.519 3.047,0 5.519,-2.469 5.519,-5.519"
         style="fill:none;stroke:#ff0000;stroke-width:0.28346458;stroke-linecap:round;stroke-linejoin:round;stroke-miterlimit:4;stroke-dasharray:none;stroke-opacity:1"
         id="path5465"
         inkscape:connector-curvature="0" /><path
         d="m 106.914,55.714 c 0,-3.047 -2.473,-5.52 -5.523,-5.52 -3.051,0 -5.52,2.473 -5.52,5.52 0,3.051 2.469,5.523 5.52,5.523 3.05,0 5.523,-2.472 5.523,-5.523"
         style="fill:none;stroke:#ff0000;stroke-width:0.28346458;stroke-linecap:round;stroke-linejoin:round;stroke-miterlimit:4;stroke-dasharray:none;stroke-opacity:1"
         id="path5467"
         inkscape:connector-curvature="0" /><path
         d="m 89.922,38.726 c 0,-3.051 -2.473,-5.524 -5.52,-5.524 -3.05,0 -5.523,2.473 -5.523,5.524 0,3.05 2.473,5.519 5.523,5.519 3.047,0 5.52,-2.469 5.52,-5.519"
         style="fill:none;stroke:#ff0000;stroke-width:0.28346458;stroke-linecap:round;stroke-linejoin:round;stroke-miterlimit:4;stroke-dasharray:none;stroke-opacity:1"
         id="path5469"
         inkscape:connector-curvature="0" /><path
         d="m 106.914,21.737 c 0,-3.05 -2.473,-5.523 -5.523,-5.523 -3.051,0 -5.52,2.473 -5.52,5.523 0,3.047 2.469,5.52 5.52,5.52 3.05,0 5.523,-2.473 5.523,-5.52"
         style="fill:none;stroke:#ff0000;stroke-width:0.28346458;stroke-linecap:round;stroke-linejoin:round;stroke-miterlimit:4;stroke-dasharray:none;stroke-opacity:1"
         id="path5471"
         inkscape:connector-curvature="0" /><path
         d="m 106.914,38.726 c 0,-3.051 -2.473,-5.524 -5.523,-5.524 -3.051,0 -5.52,2.473 -5.52,5.524 0,3.05 2.469,5.519 5.52,5.519 3.05,0 5.523,-2.469 5.523,-5.519"
         style="fill:none;stroke:#ff0000;stroke-width:0.28346458;stroke-linecap:round;stroke-linejoin:round;stroke-miterlimit:4;stroke-dasharray:none;stroke-opacity:1"
         id="path5473"
         inkscape:connector-curvature="0" /><path
         d="m 106.914,296.405 c 0,-3.05 -2.473,-5.523 -5.523,-5.523 -3.051,0 -5.52,2.473 -5.52,5.523 0,3.051 2.469,5.524 5.52,5.524 3.05,0 5.523,-2.473 5.523,-5.524"
         style="fill:none;stroke:#ff0000;stroke-width:0.28346458;stroke-linecap:round;stroke-linejoin:round;stroke-miterlimit:4;stroke-dasharray:none;stroke-opacity:1"
         id="path5475"
         inkscape:connector-curvature="0" /><path
         d="m 123.902,279.417 c 0,-3.051 -2.472,-5.523 -5.519,-5.523 -3.051,0 -5.524,2.472 -5.524,5.523 0,3.047 2.473,5.52 5.524,5.52 3.047,0 5.519,-2.473 5.519,-5.52"
         style="fill:none;stroke:#ff0000;stroke-width:0.28346458;stroke-linecap:round;stroke-linejoin:round;stroke-miterlimit:4;stroke-dasharray:none;stroke-opacity:1"
         id="path5477"
         inkscape:connector-curvature="0" /><path
         d="m 106.914,262.425 c 0,-3.047 -2.473,-5.52 -5.523,-5.52 -3.051,0 -5.52,2.473 -5.52,5.52 0,3.051 2.469,5.523 5.52,5.523 3.05,0 5.523,-2.472 5.523,-5.523"
         style="fill:none;stroke:#ff0000;stroke-width:0.28346458;stroke-linecap:round;stroke-linejoin:round;stroke-miterlimit:4;stroke-dasharray:none;stroke-opacity:1"
         id="path5479"
         inkscape:connector-curvature="0" /><path
         d="m 89.922,279.417 c 0,-3.051 -2.473,-5.523 -5.52,-5.523 -3.05,0 -5.523,2.472 -5.523,5.523 0,3.047 2.473,5.52 5.523,5.52 3.047,0 5.52,-2.473 5.52,-5.52"
         style="fill:none;stroke:#ff0000;stroke-width:0.28346458;stroke-linecap:round;stroke-linejoin:round;stroke-miterlimit:4;stroke-dasharray:none;stroke-opacity:1"
         id="path5481"
         inkscape:connector-curvature="0" /><path
         d="M 129.426,279.417 V 38.726"
         style="fill:none;stroke:#ff0000;stroke-width:0.28346458;stroke-linecap:round;stroke-linejoin:round;stroke-miterlimit:4;stroke-dasharray:none;stroke-opacity:1"
         id="path5483"
         inkscape:connector-curvature="0" /><path
         d="M 73.359,38.726 V 279.417"
         style="fill:none;stroke:#ff0000;stroke-width:0.28346458;stroke-linecap:round;stroke-linejoin:round;stroke-miterlimit:4;stroke-dasharray:none;stroke-opacity:1"
         id="path5485"
         inkscape:connector-curvature="0" /><path
         d="m 112.434,228.73 c 0,4.691 -3.801,8.496 -8.493,8.496"
         style="fill:none;stroke:#ff0000;stroke-width:0.28346458;stroke-linecap:round;stroke-linejoin:round;stroke-miterlimit:4;stroke-dasharray:none;stroke-opacity:1"
         id="path5487"
         inkscape:connector-curvature="0" /><path
         d="M 112.434,89.413 V 228.73"
         style="fill:none;stroke:#ff0000;stroke-width:0.28346458;stroke-linecap:round;stroke-linejoin:round;stroke-miterlimit:4;stroke-dasharray:none;stroke-opacity:1"
         id="path5489"
         inkscape:connector-curvature="0" /><path
         d="M 103.941,237.226 H 98.844"
         style="fill:none;stroke:#ff0000;stroke-width:0.28346458;stroke-linecap:round;stroke-linejoin:round;stroke-miterlimit:4;stroke-dasharray:none;stroke-opacity:1"
         id="path5491"
         inkscape:connector-curvature="0" /><path
         d="m 98.844,237.226 c -4.692,0 -8.496,-3.805 -8.496,-8.496"
         style="fill:none;stroke:#ff0000;stroke-width:0.28346458;stroke-linecap:round;stroke-linejoin:round;stroke-miterlimit:4;stroke-dasharray:none;stroke-opacity:1"
         id="path5493"
         inkscape:connector-curvature="0" /><path
         d="M 90.348,228.73 V 89.413"
         style="fill:none;stroke:#ff0000;stroke-width:0.28346458;stroke-linecap:round;stroke-linejoin:round;stroke-miterlimit:4;stroke-dasharray:none;stroke-opacity:1"
         id="path5495"
         inkscape:connector-curvature="0" /><path
         d="m 103.941,80.917 c 4.692,0 8.493,3.805 8.493,8.496"
         style="fill:none;stroke:#ff0000;stroke-width:0.28346458;stroke-linecap:round;stroke-linejoin:round;stroke-miterlimit:4;stroke-dasharray:none;stroke-opacity:1"
         id="path5497"
         inkscape:connector-curvature="0" /><path
         d="m 90.348,89.413 c 0,-4.691 3.804,-8.496 8.496,-8.496"
         style="fill:none;stroke:#ff0000;stroke-width:0.28346458;stroke-linecap:round;stroke-linejoin:round;stroke-miterlimit:4;stroke-dasharray:none;stroke-opacity:1"
         id="path5499"
         inkscape:connector-curvature="0" /><path
         d="m 98.844,80.917 h 5.097"
         style="fill:none;stroke:#ff0000;stroke-width:0.28346458;stroke-linecap:round;stroke-linejoin:round;stroke-miterlimit:4;stroke-dasharray:none;stroke-opacity:1"
         id="path5501"
         inkscape:connector-curvature="0" /><path
         d="m 129.426,38.726 c 0,-15.485 -12.551,-28.035 -28.035,-28.035 -15.481,0 -28.032,12.55 -28.032,28.035"
         style="fill:none;stroke:#ff0000;stroke-width:0.28346458;stroke-linecap:round;stroke-linejoin:round;stroke-miterlimit:4;stroke-dasharray:none;stroke-opacity:1"
         id="path5503"
         inkscape:connector-curvature="0" /><path
         d="m 55.367,264.909 c 1.567,0 2.832,1.27 2.832,2.832"
         style="fill:none;stroke:#ff0000;stroke-width:0.28346458;stroke-linecap:round;stroke-linejoin:round;stroke-miterlimit:4;stroke-dasharray:none;stroke-opacity:1"
         id="path5505"
         inkscape:connector-curvature="0" /><path
         d="M 58.199,293.226 V 267.741"
         style="fill:none;stroke:#ff0000;stroke-width:0.28346458;stroke-linecap:round;stroke-linejoin:round;stroke-miterlimit:4;stroke-dasharray:none;stroke-opacity:1"
         id="path5507"
         inkscape:connector-curvature="0" /><path
         d="m 58.199,293.226 c 0,1.566 -1.265,2.832 -2.832,2.832"
         style="fill:none;stroke:#ff0000;stroke-width:0.28346458;stroke-linecap:round;stroke-linejoin:round;stroke-miterlimit:4;stroke-dasharray:none;stroke-opacity:1"
         id="path5509"
         inkscape:connector-curvature="0" /><path
         d="m 35.547,296.058 h 19.82"
         style="fill:none;stroke:#ff0000;stroke-width:0.28346458;stroke-linecap:round;stroke-linejoin:round;stroke-miterlimit:4;stroke-dasharray:none;stroke-opacity:1"
         id="path5511"
         inkscape:connector-curvature="0" /><path
         d="m 35.547,296.058 c -1.567,0 -2.832,-1.266 -2.832,-2.832"
         style="fill:none;stroke:#ff0000;stroke-width:0.28346458;stroke-linecap:round;stroke-linejoin:round;stroke-miterlimit:4;stroke-dasharray:none;stroke-opacity:1"
         id="path5513"
         inkscape:connector-curvature="0" /><path
         d="M 32.715,293.226 V 267.741"
         style="fill:none;stroke:#ff0000;stroke-width:0.28346458;stroke-linecap:round;stroke-linejoin:round;stroke-miterlimit:4;stroke-dasharray:none;stroke-opacity:1"
         id="path5515"
         inkscape:connector-curvature="0" /><path
         d="m 32.715,267.741 c 0,-1.562 1.265,-2.832 2.832,-2.832"
         style="fill:none;stroke:#ff0000;stroke-width:0.28346458;stroke-linecap:round;stroke-linejoin:round;stroke-miterlimit:4;stroke-dasharray:none;stroke-opacity:1"
         id="path5517"
         inkscape:connector-curvature="0" /><path
         d="m 35.547,264.909 h 19.82"
         style="fill:none;stroke:#ff0000;stroke-width:0.28346458;stroke-linecap:round;stroke-linejoin:round;stroke-miterlimit:4;stroke-dasharray:none;stroke-opacity:1"
         id="path5519"
         inkscape:connector-curvature="0" /><path
         d="m 35.547,63.862 c -1.567,0 -2.832,-1.265 -2.832,-2.832"
         style="fill:none;stroke:#ff0000;stroke-width:0.28346458;stroke-linecap:round;stroke-linejoin:round;stroke-miterlimit:4;stroke-dasharray:none;stroke-opacity:1"
         id="path5521"
         inkscape:connector-curvature="0" /><path
         d="M 32.715,61.03 V 35.546"
         style="fill:none;stroke:#ff0000;stroke-width:0.28346458;stroke-linecap:round;stroke-linejoin:round;stroke-miterlimit:4;stroke-dasharray:none;stroke-opacity:1"
         id="path5523"
         inkscape:connector-curvature="0" /><path
         d="m 32.715,35.546 c 0,-1.562 1.265,-2.832 2.832,-2.832"
         style="fill:none;stroke:#ff0000;stroke-width:0.28346458;stroke-linecap:round;stroke-linejoin:round;stroke-miterlimit:4;stroke-dasharray:none;stroke-opacity:1"
         id="path5525"
         inkscape:connector-curvature="0" /><path
         d="m 35.547,32.714 h 19.82"
         style="fill:none;stroke:#ff0000;stroke-width:0.28346458;stroke-linecap:round;stroke-linejoin:round;stroke-miterlimit:4;stroke-dasharray:none;stroke-opacity:1"
         id="path5527"
         inkscape:connector-curvature="0" /><path
         d="m 55.367,32.714 c 1.567,0 2.832,1.27 2.832,2.832"
         style="fill:none;stroke:#ff0000;stroke-width:0.28346458;stroke-linecap:round;stroke-linejoin:round;stroke-miterlimit:4;stroke-dasharray:none;stroke-opacity:1"
         id="path5529"
         inkscape:connector-curvature="0" /><path
         d="M 58.199,61.03 V 35.546"
         style="fill:none;stroke:#ff0000;stroke-width:0.28346458;stroke-linecap:round;stroke-linejoin:round;stroke-miterlimit:4;stroke-dasharray:none;stroke-opacity:1"
         id="path5531"
         inkscape:connector-curvature="0" /><path
         d="m 58.199,61.03 c 0,1.567 -1.265,2.832 -2.832,2.832"
         style="fill:none;stroke:#ff0000;stroke-width:0.28346458;stroke-linecap:round;stroke-linejoin:round;stroke-miterlimit:4;stroke-dasharray:none;stroke-opacity:1"
         id="path5533"
         inkscape:connector-curvature="0" /><path
         d="m 35.547,63.862 h 19.82"
         style="fill:none;stroke:#ff0000;stroke-width:0.28346458;stroke-linecap:round;stroke-linejoin:round;stroke-miterlimit:4;stroke-dasharray:none;stroke-opacity:1"
         id="path5535"
         inkscape:connector-curvature="0" /><path
         d="m 48.43,305.968 c 0,-3.047 2.472,-5.52 5.523,-5.52 3.047,0 5.52,2.473 5.52,5.52 0,3.051 -2.473,5.523 -5.52,5.523 -3.051,0 -5.523,-2.472 -5.523,-5.523"
         style="fill:none;stroke:#ff0000;stroke-width:0.28346458;stroke-linecap:round;stroke-linejoin:round;stroke-miterlimit:4;stroke-dasharray:none;stroke-opacity:1"
         id="path5537"
         inkscape:connector-curvature="0" /><path
         d="m 14.449,305.968 c 0,-3.047 2.473,-5.52 5.524,-5.52 3.05,0 5.519,2.473 5.519,5.52 0,3.051 -2.469,5.523 -5.519,5.523 -3.051,0 -5.524,-2.472 -5.524,-5.523"
         style="fill:none;stroke:#ff0000;stroke-width:0.28346458;stroke-linecap:round;stroke-linejoin:round;stroke-miterlimit:4;stroke-dasharray:none;stroke-opacity:1"
         id="path5539"
         inkscape:connector-curvature="0" /><path
         d="m 48.43,254.999 c 0,-3.051 2.472,-5.523 5.523,-5.523 3.047,0 5.52,2.472 5.52,5.523 0,3.051 -2.473,5.524 -5.52,5.524 -3.051,0 -5.523,-2.473 -5.523,-5.524"
         style="fill:none;stroke:#ff0000;stroke-width:0.28346458;stroke-linecap:round;stroke-linejoin:round;stroke-miterlimit:4;stroke-dasharray:none;stroke-opacity:1"
         id="path5541"
         inkscape:connector-curvature="0" /><path
         d="m 14.449,254.999 c 0,-3.051 2.473,-5.523 5.524,-5.523 3.05,0 5.519,2.472 5.519,5.523 0,3.051 -2.469,5.524 -5.519,5.524 -3.051,0 -5.524,-2.473 -5.524,-5.524"
         style="fill:none;stroke:#ff0000;stroke-width:0.28346458;stroke-linecap:round;stroke-linejoin:round;stroke-miterlimit:4;stroke-dasharray:none;stroke-opacity:1"
         id="path5543"
         inkscape:connector-curvature="0" /><path
         d="m 48.43,22.804 c 0,-3.051 2.472,-5.524 5.523,-5.524 3.047,0 5.52,2.473 5.52,5.524 0,3.051 -2.473,5.523 -5.52,5.523 -3.051,0 -5.523,-2.472 -5.523,-5.523"
         style="fill:none;stroke:#ff0000;stroke-width:0.28346458;stroke-linecap:round;stroke-linejoin:round;stroke-miterlimit:4;stroke-dasharray:none;stroke-opacity:1"
         id="path5545"
         inkscape:connector-curvature="0" /><path
         d="m 14.449,22.804 c 0,-3.051 2.473,-5.524 5.524,-5.524 3.05,0 5.519,2.473 5.519,5.524 0,3.051 -2.469,5.523 -5.519,5.523 -3.051,0 -5.524,-2.472 -5.524,-5.523"
         style="fill:none;stroke:#ff0000;stroke-width:0.28346458;stroke-linecap:round;stroke-linejoin:round;stroke-miterlimit:4;stroke-dasharray:none;stroke-opacity:1"
         id="path5547"
         inkscape:connector-curvature="0" /><path
         d="m 48.43,73.773 c 0,-3.047 2.472,-5.52 5.523,-5.52 3.047,0 5.52,2.473 5.52,5.52 0,3.05 -2.473,5.523 -5.52,5.523 -3.051,0 -5.523,-2.473 -5.523,-5.523"
         style="fill:none;stroke:#ff0000;stroke-width:0.28346458;stroke-linecap:round;stroke-linejoin:round;stroke-miterlimit:4;stroke-dasharray:none;stroke-opacity:1"
         id="path5549"
         inkscape:connector-curvature="0" /><path
         d="m 14.449,73.773 c 0,-3.047 2.473,-5.52 5.524,-5.52 3.05,0 5.519,2.473 5.519,5.52 0,3.05 -2.469,5.523 -5.519,5.523 -3.051,0 -5.524,-2.473 -5.524,-5.523"
         style="fill:none;stroke:#ff0000;stroke-width:0.28346458;stroke-linecap:round;stroke-linejoin:round;stroke-miterlimit:4;stroke-dasharray:none;stroke-opacity:1"
         id="path5551"
         inkscape:connector-curvature="0" /><path
         d="m 53.953,320.128 c 6.254,0 11.324,-5.07 11.324,-11.328"
         style="fill:none;stroke:#ff0000;stroke-width:0.28346458;stroke-linecap:round;stroke-linejoin:round;stroke-miterlimit:4;stroke-dasharray:none;stroke-opacity:1"
         id="path5553"
         inkscape:connector-curvature="0" /><path
         d="m 8.645,308.8 c 0,6.258 5.07,11.328 11.328,11.328"
         style="fill:none;stroke:#ff0000;stroke-width:0.28346458;stroke-linecap:round;stroke-linejoin:round;stroke-miterlimit:4;stroke-dasharray:none;stroke-opacity:1"
         id="path5555"
         inkscape:connector-curvature="0" /><path
         d="m 19.973,320.128 h 33.98"
         style="fill:none;stroke:#ff0000;stroke-width:0.28346458;stroke-linecap:round;stroke-linejoin:round;stroke-miterlimit:4;stroke-dasharray:none;stroke-opacity:1"
         id="path5557"
         inkscape:connector-curvature="0" /><path
         d="M 8.645,19.972 V 308.8"
         style="fill:none;stroke:#ff0000;stroke-width:0.28346458;stroke-linecap:round;stroke-linejoin:round;stroke-miterlimit:4;stroke-dasharray:none;stroke-opacity:1"
         id="path5559"
         inkscape:connector-curvature="0" /><path
         d="M 65.277,308.8 V 19.972"
         style="fill:none;stroke:#ff0000;stroke-width:0.28346458;stroke-linecap:round;stroke-linejoin:round;stroke-miterlimit:4;stroke-dasharray:none;stroke-opacity:1"
         id="path5561"
         inkscape:connector-curvature="0" /><path
         d="M 51.121,107.753 V 221.019"
         style="fill:none;stroke:#ff0000;stroke-width:0.28346458;stroke-linecap:round;stroke-linejoin:round;stroke-miterlimit:4;stroke-dasharray:none;stroke-opacity:1"
         id="path5563"
         inkscape:connector-curvature="0" /><path
         d="m 51.121,221.019 c 0,4.691 -3.805,8.496 -8.496,8.496"
         style="fill:none;stroke:#ff0000;stroke-width:0.28346458;stroke-linecap:round;stroke-linejoin:round;stroke-miterlimit:4;stroke-dasharray:none;stroke-opacity:1"
         id="path5565"
         inkscape:connector-curvature="0" /><path
         d="M 42.625,229.515 H 31.297"
         style="fill:none;stroke:#ff0000;stroke-width:0.28346458;stroke-linecap:round;stroke-linejoin:round;stroke-miterlimit:4;stroke-dasharray:none;stroke-opacity:1"
         id="path5567"
         inkscape:connector-curvature="0" /><path
         d="m 31.297,229.515 c -4.692,0 -8.492,-3.805 -8.492,-8.496"
         style="fill:none;stroke:#ff0000;stroke-width:0.28346458;stroke-linecap:round;stroke-linejoin:round;stroke-miterlimit:4;stroke-dasharray:none;stroke-opacity:1"
         id="path5569"
         inkscape:connector-curvature="0" /><path
         d="M 22.805,221.019 V 107.753"
         style="fill:none;stroke:#ff0000;stroke-width:0.28346458;stroke-linecap:round;stroke-linejoin:round;stroke-miterlimit:4;stroke-dasharray:none;stroke-opacity:1"
         id="path5571"
         inkscape:connector-curvature="0" /><path
         d="m 22.805,107.753 c 0,-4.691 3.8,-8.496 8.492,-8.496"
         style="fill:none;stroke:#ff0000;stroke-width:0.28346458;stroke-linecap:round;stroke-linejoin:round;stroke-miterlimit:4;stroke-dasharray:none;stroke-opacity:1"
         id="path5573"
         inkscape:connector-curvature="0" /><path
         d="m 42.625,99.257 c 4.691,0 8.496,3.805 8.496,8.496"
         style="fill:none;stroke:#ff0000;stroke-width:0.28346458;stroke-linecap:round;stroke-linejoin:round;stroke-miterlimit:4;stroke-dasharray:none;stroke-opacity:1"
         id="path5575"
         inkscape:connector-curvature="0" /><path
         d="M 31.297,99.257 H 42.625"
         style="fill:none;stroke:#ff0000;stroke-width:0.28346458;stroke-linecap:round;stroke-linejoin:round;stroke-miterlimit:4;stroke-dasharray:none;stroke-opacity:1"
         id="path5577"
         inkscape:connector-curvature="0" /><path
         d="m 65.277,19.972 c 0,-6.254 -5.07,-11.328 -11.324,-11.328"
         style="fill:none;stroke:#ff0000;stroke-width:0.28346458;stroke-linecap:round;stroke-linejoin:round;stroke-miterlimit:4;stroke-dasharray:none;stroke-opacity:1"
         id="path5579"
         inkscape:connector-curvature="0" /><path
         d="m 19.973,8.644 c -6.258,0 -11.328,5.074 -11.328,11.328"
         style="fill:none;stroke:#ff0000;stroke-width:0.28346458;stroke-linecap:round;stroke-linejoin:round;stroke-miterlimit:4;stroke-dasharray:none;stroke-opacity:1"
         id="path5581"
         inkscape:connector-curvature="0" /><path
         d="M 53.953,8.644 H 19.973"
         style="fill:none;stroke:#ff0000;stroke-width:0.28346458;stroke-linecap:round;stroke-linejoin:round;stroke-miterlimit:4;stroke-dasharray:none;stroke-opacity:1"
         id="path5583"
         inkscape:connector-curvature="0" /></g><g
       transform="matrix(0,0.2563955,-0.2563955,0,29.876561,112.55654)"
       id="g6142"
       style="stroke-width:0.2832;stroke-miterlimit:10;stroke-dasharray:none"><path
         inkscape:connector-curvature="0"
         id="path3464"
         style="fill:#0000ff;fill-opacity:1;fill-rule:nonzero;stroke:none;stroke-width:0.49818489;stroke-miterlimit:10;stroke-dasharray:none"
         d="m 178.60001,64.287442 -4.61067,0.844381 c -0.11083,0.02111 -0.23397,0.124898 -0.26739,0.233964 l -1.4161,3.250868 c -0.0545,0.102029 -0.0422,0.253314 0.0282,0.350066 l 2.67915,3.861285 c 0.0616,0.09675 0.0545,0.241001 -0.0281,0.316643 l -3.3529,3.312437 c -0.0827,0.07564 -0.22693,0.08972 -0.32192,0.02639 l -3.98619,-2.700261 c -0.0897,-0.06157 -0.25507,-0.07564 -0.3571,-0.01935 l -3.20337,1.2912 c -0.10203,0.02815 -0.21285,0.151285 -0.2322,0.26035 l -0.8866,4.707426 c -0.0211,0.110825 -0.13018,0.198781 -0.24804,0.198781 h -4.74789 c -0.11786,0 -0.22692,-0.08796 -0.241,-0.198781 l -0.89363,-4.707426 c -0.0194,-0.109065 -0.12314,-0.232204 -0.23221,-0.26035 l -3.20337,-1.2912 c -0.10203,-0.05629 -0.26739,-0.04222 -0.3571,0.01935 l -3.98619,2.700261 c -0.095,0.06333 -0.23924,0.04926 -0.32192,-0.02639 l -3.35289,-3.312437 c -0.0827,-0.07564 -0.0967,-0.219891 -0.0281,-0.316643 l 2.68619,-3.861285 c 0.0633,-0.09675 0.0756,-0.248037 0.0211,-0.350066 l -1.4161,-3.250868 c -0.0334,-0.109066 -0.15656,-0.212854 -0.27442,-0.233964 l -4.61068,-0.844381 c -0.10906,-0.02111 -0.20581,-0.130175 -0.20581,-0.241 v -4.679279 c 0,-0.116103 0.0967,-0.219891 0.20581,-0.248037 l 4.50161,-0.823272 c 0.10907,-0.02111 0.23221,-0.124898 0.26739,-0.233964 l 1.40202,-3.456686 c 0.0475,-0.103788 0.0405,-0.26211 -0.0211,-0.350066 l -2.55601,-3.676576 c -0.0686,-0.09675 -0.0545,-0.233964 0.0281,-0.309607 l 3.35289,-3.312437 c 0.0827,-0.08268 0.22693,-0.09499 0.32192,-0.03342 l 3.65723,2.480369 c 0.095,0.06157 0.25332,0.06861 0.3571,0.01407 l 1.60785,-0.853176 c 0.10203,-0.05453 0.21989,-0.01407 0.26738,0.09675 l 3.32651,7.92311 c 0.0405,0.102029 0,0.241 -0.0968,0.295533 l -0.39756,0.246278 c -0.0827,0.04222 -0.17943,0.124898 -0.26211,0.193504 -1.45656,0.912987 -2.42584,2.52083 -2.42584,4.3556 0,2.858582 2.3502,5.182389 5.25627,5.182389 2.90081,0 5.251,-2.323807 5.251,-5.182389 0,-1.83477 -0.96928,-3.442613 -2.42584,-4.3556 -0.0756,-0.06861 -0.17943,-0.151285 -0.25507,-0.193504 l -0.4046,-0.246278 c -0.0967,-0.05453 -0.13721,-0.193504 -0.10379,-0.295533 l 3.33355,-7.92311 c 0.0405,-0.110825 0.16536,-0.151285 0.26739,-0.09675 l 1.60784,0.853176 c 0.10379,0.05453 0.25507,0.0475 0.35007,-0.01407 l 3.66426,-2.480369 c 0.095,-0.06157 0.23924,-0.04926 0.32192,0.02639 l 3.3529,3.319473 c 0.0827,0.07564 0.0897,0.212855 0.0281,0.309607 l -2.55601,3.676576 c -0.0616,0.08796 -0.0756,0.246278 -0.0211,0.350066 l 1.40202,3.456686 c 0.0352,0.109066 0.15129,0.212854 0.26739,0.233964 l 4.49457,0.823272 c 0.1161,0.02815 0.20582,0.131934 0.20582,0.248037 v 4.672242 c 0,0.117862 -0.0897,0.226928 -0.20582,0.248037" /><path
         inkscape:connector-curvature="0"
         id="path3466"
         style="fill:#0000ff;fill-opacity:1;fill-rule:evenodd;stroke:none;stroke-width:0.49818489;stroke-miterlimit:10;stroke-dasharray:none"
         d="m 148.65438,30.211383 h 1.00974 v 3.386321 c 0,1.231389 -0.85317,1.643025 -2.09688,1.643025 -0.75466,0 -1.31231,-0.198781 -1.70283,-0.728279 l 0.79688,-0.591067 c 0.17768,0.281461 0.42571,0.378213 0.95521,0.378213 0.72124,0 1.03788,-0.165358 1.03788,-0.638564 v -0.515424 h -1.40906 c -1.08538,0 -1.64302,-0.680782 -1.64302,-1.470631 0,-0.86549 0.65967,-1.519886 1.78727,-1.519886 0.68078,0 1.03085,0.158322 1.23667,0.496074 h 0.0281 z m 0,1.745055 c 0,-0.777534 -0.29553,-0.858454 -1.14167,-0.858454 -0.68606,0 -0.95521,0.295533 -0.95521,0.62449 0,0.364139 0.28147,0.598103 0.87957,0.598103 h 1.21731 z" /><path
         inkscape:connector-curvature="0"
         id="path3468"
         style="fill:#0000ff;fill-opacity:1;fill-rule:evenodd;stroke:none;stroke-width:0.49818489;stroke-miterlimit:10;stroke-dasharray:none"
         d="m 150.77765,30.211383 h 1.00974 v 2.988758 c 0,0.728279 0.48728,1.037885 0.98863,1.037885 0.26211,0 0.42747,-0.06861 0.66671,-0.241 l 0.73532,0.858454 c -0.30961,0.233964 -0.65264,0.385249 -1.05724,0.385249 -0.5295,0 -0.99039,-0.198781 -1.30703,-0.591067 h -0.0264 v 0.529497 h -1.00974 z" /><path
         inkscape:connector-curvature="0"
         id="path3470"
         style="fill:#0000ff;fill-opacity:1;fill-rule:evenodd;stroke:none;stroke-width:0.49818489;stroke-miterlimit:10;stroke-dasharray:none"
         d="m 157.20902,30.211383 h 1.01678 v 6.980218 h -1.01678 v -2.541939 c -0.37821,0.357103 -0.78281,0.591067 -1.29823,0.591067 -0.61922,0 -1.06604,-0.274424 -1.35453,-0.6456 -0.28146,-0.357103 -0.36414,-0.673746 -0.36414,-1.889303 0,-1.231389 0.0827,-1.553309 0.36414,-1.903376 0.28849,-0.371176 0.73531,-0.647359 1.35453,-0.647359 0.51542,0 0.98159,0.233964 1.29823,0.578753 z m -0.99742,4.026643 c 0.94993,0 0.99742,-0.817994 0.99742,-1.5322 0,-0.728279 -0.0475,-1.553309 -0.99742,-1.553309 -0.94817,0 -0.99567,0.775775 -0.99567,1.553309 0,0.761702 0.0475,1.5322 0.99567,1.5322" /><path
         inkscape:connector-curvature="0"
         id="path3472"
         style="fill:#0000ff;fill-opacity:1;fill-rule:evenodd;stroke:none;stroke-width:0.49818489;stroke-miterlimit:10;stroke-dasharray:none"
         d="m 163.39411,30.211383 h 0.89892 l 1.60784,4.967776 h -1.07131 l -0.96224,-3.477795 h -0.0211 l -1.14695,3.477795 h -0.73532 l -1.13991,-3.477795 h -0.0211 l -0.96928,3.477795 h -1.06427 l 1.60784,-4.967776 h 0.89188 l 1.05899,3.483073 h 0.0141 z" /><path
         inkscape:connector-curvature="0"
         id="path3474"
         style="fill:#0000ff;fill-opacity:1;fill-rule:evenodd;stroke:none;stroke-width:0.49818489;stroke-miterlimit:10;stroke-dasharray:none"
         d="m 169.02156,30.211383 h 1.01678 v 3.386321 c 0,1.231389 -0.85846,1.643025 -2.10216,1.643025 -0.74939,0 -1.30703,-0.198781 -1.69756,-0.728279 l 0.79689,-0.591067 c 0.17767,0.281461 0.42571,0.378213 0.9552,0.378213 0.72125,0 1.03085,-0.165358 1.03085,-0.638564 v -0.515424 h -1.40202 c -1.08538,0 -1.64303,-0.680782 -1.64303,-1.470631 0,-0.86549 0.65968,-1.519886 1.78024,-1.519886 0.68782,0 1.03085,0.158322 1.2437,0.496074 h 0.0211 z m 0,1.745055 c 0,-0.777534 -0.28849,-0.858454 -1.13463,-0.858454 -0.68606,0 -0.95521,0.295533 -0.95521,0.62449 0,0.364139 0.28146,0.598103 0.87253,0.598103 h 1.21731 z" /><path
         inkscape:connector-curvature="0"
         id="path3476"
         style="fill:#0000ff;fill-opacity:1;fill-rule:evenodd;stroke:none;stroke-width:0.49818489;stroke-miterlimit:10;stroke-dasharray:none"
         d="m 171.15187,30.211383 h 1.00974 v 2.988758 c 0,0.728279 0.48727,1.037885 0.98159,1.037885 0.26211,0 0.42747,-0.06861 0.66671,-0.241 l 0.74235,0.858454 c -0.31488,0.233964 -0.65264,0.385249 -1.05724,0.385249 -0.53653,0 -0.99038,-0.198781 -1.30527,-0.591067 h -0.0281 v 0.529497 h -1.00974 z" /><path
         inkscape:connector-curvature="0"
         id="path3478"
         style="fill:#0000ff;fill-opacity:1;fill-rule:evenodd;stroke:none;stroke-width:0.49818489;stroke-miterlimit:10;stroke-dasharray:none"
         d="m 178.71611,32.320577 v 0.825031 c 0,1.277127 -0.9552,2.095121 -2.06697,2.095121 -0.97632,0 -2.08281,-0.62449 -2.08281,-2.556012 0,-2.040588 1.20325,-2.529626 2.24113,-2.529626 0.67199,0 1.31935,0.233964 1.81366,0.803922 l -0.73531,0.612176 c -0.29554,-0.30257 -0.71421,-0.473205 -1.09946,-0.473205 -0.69485,0 -1.20324,0.411636 -1.20324,1.222593 z m -3.133,0.825031 c 0.0211,0.747629 0.46089,1.153988 1.06603,1.153988 0.59107,0 1.03085,-0.406359 1.05724,-1.153988 z" /><path
         inkscape:connector-curvature="0"
         id="path3480"
         style="fill:#0000ff;fill-opacity:1;fill-rule:evenodd;stroke:none;stroke-width:0.49818489;stroke-miterlimit:10;stroke-dasharray:none"
         d="m 135.85849,40.546257 c 0,-1.080104 0.15832,-1.49174 0.53654,-1.910412 0.28146,-0.30257 0.74938,-0.640322 1.5322,-0.640322 0.78984,0 1.25777,0.337752 1.5322,0.640322 0.39228,0.418672 0.5506,0.830308 0.5506,1.910412 0,1.071309 -0.15832,1.477668 -0.5506,1.903376 -0.27443,0.30257 -0.74236,0.638564 -1.5322,0.638564 -0.78282,0 -1.25074,-0.335994 -1.5322,-0.638564 -0.37822,-0.425708 -0.53654,-0.832067 -0.53654,-1.903376 m 3.13301,-0.007 c 0,-0.714206 -0.0545,-0.914746 -0.24628,-1.182134 -0.15129,-0.198781 -0.46793,-0.357103 -0.81799,-0.357103 -0.34303,0 -0.65968,0.158322 -0.81096,0.357103 -0.19175,0.267388 -0.24804,0.467928 -0.24804,1.18917 0,0.714206 0.0563,0.912988 0.24804,1.175098 0.15128,0.205818 0.46793,0.364139 0.81096,0.364139 0.35006,0 0.6667,-0.158321 0.81799,-0.364139 0.19174,-0.26211 0.24628,-0.460892 0.24628,-1.182134" /><path
         inkscape:connector-curvature="0"
         id="path3482"
         style="fill:#0000ff;fill-opacity:1;fill-rule:evenodd;stroke:none;stroke-width:0.49818489;stroke-miterlimit:10;stroke-dasharray:none"
         d="m 149.73977,40.161009 v 0.82503 c 0,1.284163 -0.96928,2.102158 -2.08281,2.102158 -0.96928,0 -2.07401,-0.631527 -2.07401,-2.563049 0,-2.033551 1.20148,-2.529625 2.23233,-2.529625 0.68078,0 1.32638,0.241 1.8207,0.80568 l -0.73532,0.617454 c -0.29553,-0.30257 -0.7142,-0.480242 -1.10649,-0.480242 -0.69309,0 -1.20148,0.411636 -1.20148,1.222594 z m -3.14708,0.82503 c 0.0194,0.754666 0.4732,1.161024 1.06427,1.161024 0.5981,0 1.03788,-0.406358 1.06603,-1.161024 z" /><path
         inkscape:connector-curvature="0"
         id="path3484"
         style="fill:#0000ff;fill-opacity:1;fill-rule:evenodd;stroke:none;stroke-width:0.49818489;stroke-miterlimit:10;stroke-dasharray:none"
         d="m 150.60526,38.058851 h 1.00974 v 2.953575 c 0,0.680783 0.42571,1.073068 1.00446,1.073068 0.56292,0 0.98863,-0.392285 0.98863,-1.073068 v -2.953575 h 1.01677 v 3.298364 c 0,1.132878 -0.89363,1.730982 -1.67645,1.730982 -0.53653,0 -0.99566,-0.198782 -1.3123,-0.591067 h -0.0211 v 0.529497 h -1.00974 z" /><path
         inkscape:connector-curvature="0"
         id="path3486"
         style="fill:#0000ff;fill-opacity:1;fill-rule:evenodd;stroke:none;stroke-width:0.49818489;stroke-miterlimit:10;stroke-dasharray:none"
         d="m 157.36734,38.889159 c 0.6456,-0.598103 1.40203,-0.893636 2.21299,-0.893636 1.17509,0 2.09512,0.557643 2.09512,1.533959 0,0.789848 -0.41868,1.421375 -1.4636,1.482944 l -0.8391,0.06157 c -0.50839,0.04222 -0.66671,0.255073 -0.66671,0.467928 0,0.350066 0.21989,0.605139 0.86725,0.605139 0.54885,0 0.95521,-0.193504 1.35277,-0.460891 l 0.62625,0.721242 c -0.49608,0.413395 -1.09242,0.680783 -1.97902,0.680783 -1.059,0 -1.87699,-0.522461 -1.87699,-1.5322 0,-0.851418 0.61218,-1.347492 1.44952,-1.409061 l 0.89364,-0.07564 c 0.35006,-0.03342 0.61921,-0.144248 0.61921,-0.494315 0,-0.418672 -0.41867,-0.638563 -0.99742,-0.638563 -0.67199,0 -1.14696,0.219891 -1.58674,0.638563 z" /><path
         inkscape:connector-curvature="0"
         id="path3488"
         style="fill:#0000ff;fill-opacity:1;fill-rule:evenodd;stroke:none;stroke-width:0.49818489;stroke-miterlimit:10;stroke-dasharray:none"
         d="m 162.2454,40.546257 c 0,-1.080104 0.15833,-1.49174 0.55061,-1.910412 0.28146,-0.30257 0.74235,-0.640322 1.5322,-0.640322 0.78281,0 1.25074,0.337752 1.52516,0.640322 0.39229,0.418672 0.54885,0.830308 0.54885,1.910412 0,1.071309 -0.15656,1.477668 -0.54885,1.903376 -0.27442,0.30257 -0.74235,0.638564 -1.52516,0.638564 -0.78985,0 -1.25074,-0.335994 -1.5322,-0.638564 -0.39228,-0.425708 -0.55061,-0.832067 -0.55061,-1.903376 m 3.14708,-0.007 c 0,-0.714206 -0.0616,-0.914746 -0.25331,-1.182134 -0.14425,-0.198781 -0.46089,-0.357103 -0.81096,-0.357103 -0.35007,0 -0.66671,0.158322 -0.81799,0.357103 -0.18647,0.267388 -0.24804,0.467928 -0.24804,1.18917 0,0.714206 0.0616,0.912988 0.24804,1.175098 0.15128,0.205818 0.46792,0.364139 0.81799,0.364139 0.35007,0 0.66671,-0.158321 0.81096,-0.364139 0.19174,-0.26211 0.25331,-0.460892 0.25331,-1.182134" /><path
         inkscape:connector-curvature="0"
         id="path3490"
         style="fill:#0000ff;fill-opacity:1;fill-rule:evenodd;stroke:none;stroke-width:0.49818489;stroke-miterlimit:10;stroke-dasharray:none"
         d="m 167.26947,39.721227 c 0,-1.120565 0.89188,-1.725704 1.69052,-1.725704 0.52774,0 0.9816,0.20054 1.29824,0.591066 h 0.0211 v -0.527738 h 1.01677 v 4.967776 h -1.01677 v -2.955334 c 0,-0.680782 -0.42747,-1.071309 -0.99743,-1.071309 -0.56995,0 -1.0027,0.390527 -1.0027,1.071309 v 2.955334 h -1.00974 z" /><path
         inkscape:connector-curvature="0"
         id="path3492"
         style="fill:#0000ff;fill-opacity:1;fill-rule:evenodd;stroke:none;stroke-width:0.49818489;stroke-miterlimit:10;stroke-dasharray:none"
         d="m 172.40964,38.058851 h 1.00974 v 2.988758 c 0,0.721242 0.48024,1.037885 0.98159,1.037885 0.26211,0 0.42747,-0.06861 0.66671,-0.241 l 0.73532,0.858454 c -0.30961,0.233964 -0.6456,0.385249 -1.0502,0.385249 -0.53653,0 -0.99743,-0.198782 -1.31407,-0.591067 h -0.0194 v 0.529497 h -1.00974 z" /><path
         inkscape:connector-curvature="0"
         id="path3494"
         style="fill:#0000ff;fill-opacity:1;fill-rule:evenodd;stroke:none;stroke-width:0.49818489;stroke-miterlimit:10;stroke-dasharray:none"
         d="m 179.03276,39.515409 c -0.24628,-0.30257 -0.60514,-0.515425 -1.02381,-0.515425 -0.82504,0 -1.30528,0.460892 -1.30528,1.539237 0,1.085382 0.48024,1.546273 1.30528,1.546273 0.41867,0 0.77753,-0.212854 1.02381,-0.515424 l 0.74235,0.652636 c -0.43275,0.501351 -1.03789,0.865491 -1.80662,0.865491 -1.16103,0 -2.28863,-0.728279 -2.28863,-2.548976 0,-1.813661 1.1276,-2.543698 2.28863,-2.543698 0.76873,0 1.37387,0.365898 1.80662,0.867249 z" /><path
         inkscape:connector-curvature="0"
         id="path3496"
         style="fill:#0000ff;fill-opacity:1;fill-rule:evenodd;stroke:none;stroke-width:0.49818489;stroke-miterlimit:10;stroke-dasharray:none"
         d="m 184.19404,40.161009 v 0.82503 c 0,1.284163 -0.96928,2.102158 -2.08281,2.102158 -0.96928,0 -2.07577,-0.631527 -2.07577,-2.563049 0,-2.033551 1.20324,-2.529625 2.24113,-2.529625 0.67374,0 1.31934,0.241 1.81366,0.80568 l -0.73532,0.617454 c -0.29553,-0.30257 -0.7142,-0.480242 -1.09945,-0.480242 -0.6931,0 -1.20149,0.411636 -1.20149,1.222594 z m -3.14005,0.82503 c 0.0123,0.754666 0.46617,1.161024 1.05724,1.161024 0.5981,0 1.03789,-0.406358 1.06603,-1.161024 z" /><path
         inkscape:connector-curvature="0"
         id="path3498"
         style="fill:#0000ff;fill-opacity:1;fill-rule:nonzero;stroke:none;stroke-width:0.49818489;stroke-miterlimit:10;stroke-dasharray:none"
         d="m 142.88093,38.999984 c 0.9552,0 1.00446,0.768739 1.00446,1.539237 0,0.775775 -0.0493,1.546273 -1.00446,1.546273 -0.94113,0 -0.99567,-0.825031 -0.99567,-1.546273 0,-0.714206 0.0545,-1.539237 0.99567,-1.539237 m -2.01244,-8.788601 v 12.815244 h 1.01677 v -0.515424 c 0.32368,0.335993 0.78281,0.576994 1.30527,0.576994 0.61922,0 1.06604,-0.274424 1.35453,-0.652637 0.27443,-0.350066 0.35007,-0.673745 0.35007,-1.896339 0,-1.217316 -0.0756,-1.539237 -0.35007,-1.889303 -0.28849,-0.378212 -0.73531,-0.654395 -1.35453,-0.654395 -0.52246,0 -0.92706,0.241 -1.30527,0.591066 v -3.936927 c 0.336,0.392286 0.78985,0.591067 1.32638,0.591067 0.78985,0 1.68349,-0.598103 1.68349,-1.723945 v -3.305401 h -1.01678 v 2.960612 c 0,0.673746 -0.42571,1.066031 -0.99039,1.066031 -0.57699,0 -1.0027,-0.392285 -1.0027,-1.066031 v -2.960612 z" /><path
         inkscape:connector-curvature="0"
         id="path3500"
         style="fill:#0000ff;fill-opacity:1;fill-rule:nonzero;stroke:none;stroke-width:0.49818489;stroke-miterlimit:10;stroke-dasharray:none"
         d="m 235.07152,68.396764 c 3.63436,0 6.71283,-1.236667 9.21431,-3.697686 2.51556,-2.48037 3.77157,-5.511346 3.77157,-9.084134 0,-3.586861 -1.23666,-6.582656 -3.71,-8.97331 -2.62462,-2.536662 -5.71716,-3.808511 -9.27588,-3.808511 -3.51122,0 -6.54923,1.25074 -9.12635,3.766292 -2.54194,2.515552 -3.82083,5.518383 -3.82083,9.015529 0,3.497145 1.27889,6.528122 3.82083,9.084134 2.50148,2.461019 5.53949,3.697686 9.12635,3.697686 z m 0.0405,-2.309734 c -2.94829,0 -5.44274,-1.016776 -7.47629,-3.057364 -2.11623,-2.123267 -3.17522,-4.5966 -3.17522,-7.414722 0,-2.830437 1.05195,-5.284419 3.14708,-7.353153 2.10391,-2.066975 4.60539,-3.097824 7.50443,-3.097824 2.88673,0 5.40756,1.043163 7.55194,3.12597 2.03355,1.931522 3.05032,4.369672 3.05032,7.325007 0,2.906078 -1.03084,5.381171 -3.09782,7.414722 -2.06873,2.040588 -4.57021,3.057364 -7.50444,3.057364 z m 3.4778,-7.303898 v -5.222849 h -1.48471 V 47.35584 h -4.02664 v 6.204443 h -1.48474 v 5.222849 c 0,0.233964 0.0827,0.425709 0.241,0.584031 0.16536,0.158321 0.36414,0.241 0.59107,0.241 h 5.33191 c 0.21286,0 0.4046,-0.08268 0.57699,-0.241 0.16536,-0.158322 0.25508,-0.350067 0.25508,-0.584031 z m -5.30553,3.291328 c 0,1.203243 0.5981,1.799587 1.80662,1.799587 1.20325,0 1.80839,-0.596344 1.80839,-1.799587 0,-1.18917 -0.60514,-1.780237 -1.80839,-1.780237 -1.20148,0 -1.80662,0.591067 -1.80662,1.780237 z" /><path
         inkscape:connector-curvature="0"
         id="path3502"
         style="fill:#0000ff;fill-opacity:1;fill-rule:nonzero;stroke:none;stroke-width:0.49818489;stroke-miterlimit:10;stroke-dasharray:none"
         d="m 206.40302,68.396764 c 3.62732,0 6.71283,-1.25074 9.26181,-3.745182 1.21731,-1.203244 2.14437,-2.577122 2.7759,-4.116359 0.63329,-1.546273 0.94993,-3.189298 0.94993,-4.920279 0,-1.752091 -0.30961,-3.395116 -0.93586,-4.92028 -0.62449,-1.525164 -1.54627,-2.877933 -2.76886,-4.05303 -1.26481,-1.224353 -2.7073,-2.172522 -4.30811,-2.825159 -1.6008,-0.652636 -3.26494,-0.983352 -4.97481,-0.983352 -1.71163,0 -3.35465,0.32368 -4.92028,0.969279 -1.56738,0.6456 -2.97644,1.588493 -4.22014,2.811086 -1.23667,1.222594 -2.18484,2.603509 -2.83044,4.135709 -0.6456,1.539236 -0.97632,3.161152 -0.97632,4.865747 0,1.683485 0.33072,3.312437 0.98336,4.872783 0.65967,1.558587 1.61488,2.953575 2.86561,4.184964 2.4663,2.48037 5.49728,3.724073 9.09821,3.724073 z m 0.0405,-2.309734 c -2.95533,0 -5.44802,-1.016776 -7.47629,-3.057364 -1.01678,-1.016776 -1.79959,-2.165486 -2.35019,-3.42854 -0.54182,-1.271849 -0.818,-2.605267 -0.818,-3.986182 0,-1.366842 0.27618,-2.693225 0.818,-3.958037 0.5506,-1.271849 1.33341,-2.404728 2.35019,-3.400394 1.01678,-1.004462 2.17252,-1.759127 3.45669,-2.281588 1.27888,-0.529497 2.61758,-0.791607 4.0196,-0.791607 1.39499,0 2.74248,0.26211 4.04775,0.798643 1.30528,0.534775 2.48037,1.298237 3.5253,2.300939 2.02651,1.952632 3.03097,4.390782 3.03097,7.332044 0,1.409061 -0.25507,2.756552 -0.78457,4.012569 -0.52246,1.264813 -1.28416,2.392414 -2.28862,3.381043 -2.08809,2.054661 -4.5966,3.078474 -7.53083,3.078474 z m -0.15832,-8.34882 -1.73802,-0.893636 c -0.18471,0.378212 -0.41163,0.647359 -0.68078,0.796884 -0.26739,0.151285 -0.52246,0.233964 -0.75467,0.233964 -1.15574,0 -1.73977,-0.754665 -1.73977,-2.260478 0,-0.687819 0.15128,-1.236667 0.44682,-1.641266 0.28849,-0.413395 0.72124,-0.619213 1.29295,-0.619213 0.75467,0 1.2912,0.364139 1.60081,1.092418 l 1.59377,-0.796885 c -0.33599,-0.626249 -0.81096,-1.113528 -1.40906,-1.47063 -0.60338,-0.357103 -1.27009,-0.536534 -1.99309,-0.536534 -1.16103,0 -2.09512,0.351825 -2.80229,1.051958 -0.70893,0.693096 -1.059,1.669412 -1.059,2.920152 0,1.217316 0.35007,2.177799 1.07307,2.893764 0.72124,0.714206 1.62016,1.078345 2.71961,1.078345 1.60257,0 2.75655,-0.619212 3.44965,-1.848843 z m 7.47629,0 -1.70987,-0.893636 c -0.18647,0.378212 -0.41339,0.647359 -0.68782,0.796884 -0.26739,0.151285 -0.52246,0.233964 -0.77577,0.233964 -1.15575,0 -1.73274,-0.754665 -1.73274,-2.260478 0,-0.687819 0.14424,-1.236667 0.43978,-1.641266 0.28849,-0.413395 0.72124,-0.619213 1.29296,-0.619213 0.75466,0 1.2912,0.364139 1.6008,1.092418 l 1.62192,-0.796885 c -0.3571,-0.626249 -0.83207,-1.113528 -1.43721,-1.47063 -0.5981,-0.357103 -1.25778,-0.536534 -1.96494,-0.536534 -1.1751,0 -2.1092,0.351825 -2.81109,1.051958 -0.70717,0.693096 -1.05724,1.669412 -1.05724,2.920152 0,1.217316 0.35711,2.177799 1.07131,2.893764 0.72125,0.714206 1.62895,1.078345 2.72137,1.078345 1.60785,0 2.74952,-0.619212 3.42854,-1.848843 z" /><path
         inkscape:connector-curvature="0"
         id="path3504"
         style="fill:#0000ff;fill-opacity:1;fill-rule:nonzero;stroke:none;stroke-width:0.49818489;stroke-miterlimit:10;stroke-dasharray:none"
         d="m 263.73299,68.396764 c 3.62732,0 6.69875,-1.236667 9.21431,-3.724073 2.52083,-2.461019 3.77157,-5.484959 3.77157,-9.057747 0,-3.579825 -1.22963,-6.575619 -3.69593,-8.994419 -2.6123,-2.522589 -5.71013,-3.787402 -9.28995,-3.787402 -3.50594,0 -6.5422,1.25074 -9.11932,3.766292 -2.54898,2.508516 -3.82082,5.518383 -3.82082,9.015529 0,3.484831 1.27184,6.499976 3.82082,9.057747 2.51555,2.487406 5.55181,3.724073 9.11932,3.724073 z m 0.0475,-2.309734 c -2.94829,0 -5.44274,-1.023813 -7.47629,-3.078474 -2.11623,-2.11623 -3.17522,-4.57549 -3.17522,-7.393612 0,-2.851546 1.04492,-5.298492 3.14708,-7.353153 2.10391,-2.066975 4.59836,-3.097824 7.50443,-3.097824 2.88673,0 5.40053,1.043163 7.5449,3.12597 2.04059,1.945595 3.05737,4.383745 3.05737,7.325007 0,2.920151 -1.03085,5.388207 -3.09783,7.393612 -2.05466,2.054661 -4.55614,3.078474 -7.50444,3.078474 z m -5.7928,-8.67074 c 0.25331,1.565624 0.8866,2.78294 1.92448,3.641394 1.03789,0.858454 2.2939,1.284163 3.77157,1.284163 2.04059,0 3.66251,-0.638563 4.86575,-1.936799 1.20148,-1.292959 1.80662,-2.948298 1.80662,-4.974813 0,-1.959668 -0.62449,-3.593897 -1.87523,-4.893892 -1.25074,-1.298237 -2.87265,-1.950873 -4.86574,-1.950873 -1.4636,0 -2.72841,0.432745 -3.79268,1.298236 -1.06603,0.865491 -1.71163,2.103917 -1.92449,3.704723 h 3.26494 c 0.0756,-1.55331 1.03085,-2.336122 2.85155,-2.336122 0.90595,0 1.64126,0.390527 2.19891,1.168061 0.55588,0.775775 0.83031,1.813661 0.83031,3.097824 0,1.361564 -0.25332,2.385376 -0.76171,3.092546 -0.50838,0.714205 -1.2437,1.066031 -2.19891,1.066031 -1.73274,0 -2.70026,-0.749388 -2.92015,-2.260479 h 0.95521 l -2.57712,-2.529625 -2.57009,2.529625 z" /><text
         id="text3538"
         style="font-variant:normal;font-weight:normal;font-size:24.81162643px;line-height:0%;font-family:Verdana;-inkscape-font-specification:Verdana;writing-mode:lr-tb;fill:#0000ff;fill-opacity:1;fill-rule:nonzero;stroke:none;stroke-width:0.58555442;stroke-miterlimit:10;stroke-dasharray:none"
         transform="scale(1,-1)"
         x="22.928804"
         y="120.96708"><tspan
           id="tspan3540"
           sodipodi:role="line"
           y="120.96708"
           x="22.928804 53.372665 83.816528 113.03223 126.54214 142.39677 164.95053 188.13702 210.6908 225.35446 235.552 254.90512 264.95386 287.2843 300.79422 320.14731 342.70105"
           style="font-size:37.21744156px;line-height:1.25;stroke-width:0.58555442">www.roboticia.com</tspan></text>
<path
         inkscape:connector-curvature="0"
         id="path3464-1"
         style="fill:#0000ff;fill-opacity:1;fill-rule:nonzero;stroke:none;stroke-width:0.49818489;stroke-miterlimit:10;stroke-dasharray:none"
         d="m 180.13715,-194.63042 -4.61067,0.84439 c -0.11083,0.0211 -0.23398,0.12489 -0.26739,0.23396 l -1.4161,3.25087 c -0.0545,0.10203 -0.0422,0.25331 0.0281,0.35006 l 2.67927,3.86129 c 0.0616,0.0967 0.0545,0.241 -0.0281,0.31664 l -3.3529,3.31244 c -0.0827,0.0756 -0.22693,0.0897 -0.32192,0.0264 l -3.98619,-2.70026 c -0.0897,-0.0616 -0.25507,-0.0756 -0.3571,-0.0194 l -3.20337,1.2912 c -0.10203,0.0281 -0.21286,0.15128 -0.2322,0.26035 l -0.88662,4.70744 c -0.0211,0.11083 -0.13018,0.19878 -0.24804,0.19878 h -4.74789 c -0.11785,0 -0.2269,-0.088 -0.241,-0.19878 l -0.89363,-4.70742 c -0.0193,-0.10907 -0.12315,-0.23221 -0.2322,-0.26035 l -3.20337,-1.2912 c -0.10203,-0.0563 -0.26739,-0.0422 -0.3571,0.0194 l -3.98619,2.70026 c -0.095,0.0633 -0.23925,0.0493 -0.32192,-0.0264 l -3.35289,-3.31244 c -0.0827,-0.0756 -0.0967,-0.21989 -0.0281,-0.31664 l 2.68618,-3.86129 c 0.0633,-0.0968 0.0756,-0.24803 0.0211,-0.35006 l -1.4161,-3.25087 c -0.0334,-0.10907 -0.15656,-0.21285 -0.27441,-0.23396 l -4.61068,-0.84439 c -0.10905,-0.0211 -0.20582,-0.13017 -0.20582,-0.24099 v -4.67928 c 0,-0.11611 0.0967,-0.21989 0.20582,-0.24804 l 4.50161,-0.82327 c 0.10908,-0.0211 0.2322,-0.1249 0.26739,-0.23397 l 1.40202,-3.45668 c 0.0475,-0.10379 0.0405,-0.26211 -0.0211,-0.35007 l -2.556,-3.67657 c -0.0686,-0.0968 -0.0545,-0.23396 0.0281,-0.30961 l 3.35289,-3.31244 c 0.0827,-0.0827 0.22693,-0.095 0.32192,-0.0334 l 3.65723,2.48037 c 0.095,0.0616 0.25332,0.0686 0.3571,0.014 l 1.60785,-0.85318 c 0.10203,-0.0545 0.21988,-0.014 0.26739,0.0968 l 3.32648,7.92308 c 0.0405,0.10203 0,0.241 -0.0968,0.29554 l -0.39756,0.24627 c -0.0827,0.0422 -0.17943,0.1249 -0.26212,0.19351 -1.45656,0.91298 -2.42584,2.52083 -2.42584,4.3556 0,2.85858 2.3502,5.18239 5.25627,5.18239 2.90081,0 5.251,-2.32381 5.251,-5.18239 0,-1.83477 -0.96928,-3.44262 -2.42584,-4.3556 -0.0756,-0.0686 -0.17943,-0.15129 -0.25508,-0.19351 l -0.4046,-0.24627 c -0.0967,-0.0545 -0.13722,-0.19351 -0.10378,-0.29554 l 3.33355,-7.92311 c 0.0405,-0.11083 0.16536,-0.15129 0.26739,-0.0968 l 1.60784,0.85317 c 0.10378,0.0545 0.25507,0.0475 0.35007,-0.014 l 3.66426,-2.48036 c 0.095,-0.0616 0.23925,-0.0493 0.32192,0.0263 l 3.3529,3.31948 c 0.0827,0.0756 0.0897,0.21286 0.0281,0.3096 l -2.55601,3.67658 c -0.0616,0.088 -0.0756,0.24628 -0.0211,0.35007 l 1.402,3.45673 c 0.0352,0.10906 0.15129,0.21285 0.26739,0.23396 l 4.49457,0.82327 c 0.1161,0.0281 0.20582,0.13194 0.20582,0.24804 v 4.67224 c 0,0.11786 -0.0897,0.22693 -0.20582,0.24804" /><path
         inkscape:connector-curvature="0"
         id="path3466-9"
         style="fill:#0000ff;fill-opacity:1;fill-rule:evenodd;stroke:none;stroke-width:0.49818489;stroke-miterlimit:10;stroke-dasharray:none"
         d="m 150.19152,-228.70647 h 1.00974 v 3.38632 c 0,1.23138 -0.85317,1.64302 -2.09688,1.64302 -0.75466,0 -1.31231,-0.19877 -1.70283,-0.72828 l 0.79688,-0.59106 c 0.17768,0.28146 0.42571,0.37821 0.95521,0.37821 0.72124,0 1.03788,-0.16536 1.03788,-0.63857 v -0.51542 h -1.40906 c -1.08538,0 -1.64302,-0.68078 -1.64302,-1.47063 0,-0.86549 0.65967,-1.51989 1.78727,-1.51989 0.68078,0 1.03085,0.15831 1.23667,0.49608 h 0.0281 z m 0,1.74505 c 0,-0.77753 -0.29553,-0.85845 -1.14167,-0.85845 -0.68606,0 -0.95521,0.29553 -0.95521,0.62449 0,0.36413 0.28146,0.5981 0.87957,0.5981 h 1.21731 z" /><path
         inkscape:connector-curvature="0"
         id="path3468-9"
         style="fill:#0000ff;fill-opacity:1;fill-rule:evenodd;stroke:none;stroke-width:0.49818489;stroke-miterlimit:10;stroke-dasharray:none"
         d="m 152.31479,-228.70647 h 1.00974 v 2.98875 c 0,0.72828 0.48728,1.03789 0.98863,1.03789 0.26213,0 0.42747,-0.0686 0.66671,-0.24101 l 0.73532,0.85846 c -0.30961,0.23395 -0.65264,0.38525 -1.05724,0.38525 -0.5295,0 -0.99039,-0.19877 -1.30703,-0.59107 h -0.0263 v 0.5295 h -1.00973 z" /><path
         inkscape:connector-curvature="0"
         id="path3470-9"
         style="fill:#0000ff;fill-opacity:1;fill-rule:evenodd;stroke:none;stroke-width:0.49818489;stroke-miterlimit:10;stroke-dasharray:none"
         d="m 158.74616,-228.70647 h 1.01678 v 6.98021 h -1.01678 v -2.54194 c -0.37821,0.35711 -0.78281,0.59107 -1.29823,0.59107 -0.61922,0 -1.06604,-0.27441 -1.35453,-0.6456 -0.28146,-0.3571 -0.36414,-0.67374 -0.36414,-1.8893 0,-1.23139 0.0827,-1.55331 0.36414,-1.90338 0.28848,-0.37117 0.73531,-0.64736 1.35453,-0.64736 0.51542,0 0.98159,0.23396 1.29823,0.57876 z m -0.99742,4.02664 c 0.94993,0 0.99742,-0.81799 0.99742,-1.5322 0,-0.72828 -0.0475,-1.55331 -0.99742,-1.55331 -0.94817,0 -0.99567,0.77577 -0.99567,1.55331 0,0.7617 0.0475,1.5322 0.99567,1.5322" /><path
         inkscape:connector-curvature="0"
         id="path3472-9"
         style="fill:#0000ff;fill-opacity:1;fill-rule:evenodd;stroke:none;stroke-width:0.49818489;stroke-miterlimit:10;stroke-dasharray:none"
         d="m 164.93125,-228.70647 h 0.89892 l 1.60784,4.96777 h -1.07131 l -0.96224,-3.47779 h -0.0211 l -1.14695,3.47779 h -0.73532 l -1.13991,-3.47779 h -0.0211 l -0.96928,3.47779 h -1.06427 l 1.60784,-4.96777 h 0.89188 l 1.05899,3.48307 h 0.014 z" /><path
         inkscape:connector-curvature="0"
         id="path3474-3"
         style="fill:#0000ff;fill-opacity:1;fill-rule:evenodd;stroke:none;stroke-width:0.49818489;stroke-miterlimit:10;stroke-dasharray:none"
         d="m 170.5587,-228.70647 h 1.01678 v 3.38632 c 0,1.23138 -0.85846,1.64302 -2.10216,1.64302 -0.74939,0 -1.30703,-0.19877 -1.69756,-0.72828 l 0.79689,-0.59106 c 0.17768,0.28146 0.42571,0.37821 0.9552,0.37821 0.72125,0 1.03085,-0.16536 1.03085,-0.63857 v -0.51542 h -1.40202 c -1.08538,0 -1.64303,-0.68078 -1.64303,-1.47063 0,-0.86549 0.65968,-1.51989 1.78024,-1.51989 0.68782,0 1.03085,0.15831 1.2437,0.49608 h 0.0211 z m 0,1.74505 c 0,-0.77753 -0.28848,-0.85845 -1.13463,-0.85845 -0.68606,0 -0.95521,0.29553 -0.95521,0.62449 0,0.36413 0.28146,0.5981 0.87253,0.5981 h 1.21731 z" /><path
         inkscape:connector-curvature="0"
         id="path3476-1"
         style="fill:#0000ff;fill-opacity:1;fill-rule:evenodd;stroke:none;stroke-width:0.49818489;stroke-miterlimit:10;stroke-dasharray:none"
         d="m 172.68901,-228.70647 h 1.00974 v 2.98875 c 0,0.72828 0.48727,1.03789 0.98159,1.03789 0.26213,0 0.42747,-0.0686 0.66671,-0.24101 l 0.74235,0.85846 c -0.31488,0.23395 -0.65264,0.38525 -1.05724,0.38525 -0.53653,0 -0.99038,-0.19877 -1.30527,-0.59107 h -0.0281 v 0.5295 h -1.00974 z" /><path
         inkscape:connector-curvature="0"
         id="path3478-5"
         style="fill:#0000ff;fill-opacity:1;fill-rule:evenodd;stroke:none;stroke-width:0.49818489;stroke-miterlimit:10;stroke-dasharray:none"
         d="m 180.25325,-226.59728 v 0.82503 c 0,1.27713 -0.9552,2.09512 -2.06697,2.09512 -0.97632,0 -2.08281,-0.62449 -2.08281,-2.55601 0,-2.04059 1.20325,-2.52963 2.24113,-2.52963 0.67199,0 1.31935,0.23396 1.81366,0.80392 l -0.73531,0.61218 c -0.29554,-0.30257 -0.71421,-0.4732 -1.09946,-0.4732 -0.69485,0 -1.20324,0.41163 -1.20324,1.22259 z m -3.133,0.82503 c 0.0211,0.74763 0.46089,1.15399 1.06603,1.15399 0.59107,0 1.03085,-0.40636 1.05724,-1.15399 z" /><path
         inkscape:connector-curvature="0"
         id="path3480-1"
         style="fill:#0000ff;fill-opacity:1;fill-rule:evenodd;stroke:none;stroke-width:0.49818489;stroke-miterlimit:10;stroke-dasharray:none"
         d="m 137.39563,-218.3716 c 0,-1.08011 0.15831,-1.49174 0.53654,-1.91041 0.28146,-0.30257 0.74938,-0.64032 1.5322,-0.64032 0.78984,0 1.25777,0.33775 1.5322,0.64032 0.39228,0.41867 0.5506,0.8303 0.5506,1.91041 0,1.07131 -0.15831,1.47767 -0.5506,1.90338 -0.27444,0.30257 -0.74236,0.63856 -1.5322,0.63856 -0.78282,0 -1.25074,-0.33599 -1.5322,-0.63856 -0.37822,-0.42571 -0.53654,-0.83207 -0.53654,-1.90338 m 3.13301,-0.007 c 0,-0.71421 -0.0545,-0.91475 -0.24627,-1.18214 -0.15129,-0.19876 -0.46793,-0.3571 -0.81799,-0.3571 -0.34303,0 -0.65968,0.15831 -0.81096,0.3571 -0.19174,0.26739 -0.24802,0.46793 -0.24802,1.18917 0,0.71421 0.0563,0.91299 0.24802,1.1751 0.15129,0.20582 0.46793,0.36414 0.81096,0.36414 0.35006,0 0.6667,-0.15831 0.81799,-0.36414 0.19175,-0.26212 0.24627,-0.46089 0.24627,-1.18213" /><path
         inkscape:connector-curvature="0"
         id="path3482-0"
         style="fill:#0000ff;fill-opacity:1;fill-rule:evenodd;stroke:none;stroke-width:0.49818489;stroke-miterlimit:10;stroke-dasharray:none"
         d="m 151.27691,-218.75685 v 0.82503 c 0,1.28417 -0.96928,2.10216 -2.08281,2.10216 -0.96928,0 -2.07401,-0.63153 -2.07401,-2.56305 0,-2.03355 1.20148,-2.52962 2.23233,-2.52962 0.68078,0 1.32638,0.241 1.8207,0.80567 l -0.73532,0.61746 c -0.29553,-0.30257 -0.7142,-0.48024 -1.10649,-0.48024 -0.69309,0 -1.20148,0.41163 -1.20148,1.22259 z m -3.14708,0.82503 c 0.0193,0.75467 0.4732,1.16102 1.06427,1.16102 0.5981,0 1.03788,-0.40635 1.06603,-1.16102 z" /><path
         inkscape:connector-curvature="0"
         id="path3484-6"
         style="fill:#0000ff;fill-opacity:1;fill-rule:evenodd;stroke:none;stroke-width:0.49818489;stroke-miterlimit:10;stroke-dasharray:none"
         d="m 152.1424,-220.85901 h 1.00974 v 2.95358 c 0,0.68078 0.42571,1.07307 1.00446,1.07307 0.56292,0 0.98863,-0.39229 0.98863,-1.07307 v -2.95358 h 1.01677 v 3.29837 c 0,1.13288 -0.89363,1.73098 -1.67645,1.73098 -0.53653,0 -0.99566,-0.19879 -1.3123,-0.59107 h -0.0211 v 0.5295 h -1.00974 z" /><path
         inkscape:connector-curvature="0"
         id="path3486-5"
         style="fill:#0000ff;fill-opacity:1;fill-rule:evenodd;stroke:none;stroke-width:0.49818489;stroke-miterlimit:10;stroke-dasharray:none"
         d="m 158.90448,-220.0287 c 0.6456,-0.5981 1.40203,-0.89363 2.21299,-0.89363 1.17509,0 2.09512,0.55764 2.09512,1.53395 0,0.78985 -0.41868,1.42138 -1.4636,1.48295 l -0.8391,0.0616 c -0.50839,0.0422 -0.66671,0.25508 -0.66671,0.46793 0,0.35007 0.21989,0.60514 0.86725,0.60514 0.54885,0 0.95521,-0.1935 1.35277,-0.46089 l 0.62625,0.72124 c -0.49608,0.41339 -1.09242,0.68078 -1.97902,0.68078 -1.059,0 -1.87699,-0.52246 -1.87699,-1.5322 0,-0.85141 0.61218,-1.34749 1.44952,-1.40906 l 0.89364,-0.0756 c 0.35006,-0.0334 0.61921,-0.14424 0.61921,-0.49431 0,-0.41867 -0.41867,-0.63856 -0.99742,-0.63856 -0.67199,0 -1.14696,0.21988 -1.58674,0.63856 z" /><path
         inkscape:connector-curvature="0"
         id="path3488-3"
         style="fill:#0000ff;fill-opacity:1;fill-rule:evenodd;stroke:none;stroke-width:0.49818489;stroke-miterlimit:10;stroke-dasharray:none"
         d="m 163.78254,-218.3716 c 0,-1.08011 0.15834,-1.49174 0.55061,-1.91041 0.28146,-0.30257 0.74235,-0.64032 1.5322,-0.64032 0.78281,0 1.25074,0.33775 1.52516,0.64032 0.39229,0.41867 0.54885,0.8303 0.54885,1.91041 0,1.07131 -0.15655,1.47767 -0.54885,1.90338 -0.27441,0.30257 -0.74235,0.63856 -1.52516,0.63856 -0.78985,0 -1.25074,-0.33599 -1.5322,-0.63856 -0.39228,-0.42571 -0.55061,-0.83207 -0.55061,-1.90338 m 3.14708,-0.007 c 0,-0.71421 -0.0616,-0.91475 -0.25332,-1.18214 -0.14424,-0.19876 -0.46089,-0.3571 -0.81096,-0.3571 -0.35007,0 -0.66671,0.15831 -0.81799,0.3571 -0.18648,0.26739 -0.24802,0.46793 -0.24802,1.18917 0,0.71421 0.0616,0.91299 0.24802,1.1751 0.15129,0.20582 0.46792,0.36414 0.81799,0.36414 0.35007,0 0.66671,-0.15831 0.81096,-0.36414 0.19175,-0.26212 0.25332,-0.46089 0.25332,-1.18213" /><path
         inkscape:connector-curvature="0"
         id="path3490-4"
         style="fill:#0000ff;fill-opacity:1;fill-rule:evenodd;stroke:none;stroke-width:0.49818489;stroke-miterlimit:10;stroke-dasharray:none"
         d="m 168.80661,-219.19663 c 0,-1.12057 0.89188,-1.7257 1.69052,-1.7257 0.52774,0 0.9816,0.20054 1.29824,0.59106 h 0.0211 v -0.52774 h 1.01677 v 4.96778 h -1.01677 v -2.95534 c 0,-0.68078 -0.42747,-1.0713 -0.99743,-1.0713 -0.56995,0 -1.0027,0.39052 -1.0027,1.0713 v 2.95534 h -1.00974 z" /><path
         inkscape:connector-curvature="0"
         id="path3492-7"
         style="fill:#0000ff;fill-opacity:1;fill-rule:evenodd;stroke:none;stroke-width:0.49818489;stroke-miterlimit:10;stroke-dasharray:none"
         d="m 173.94678,-220.85901 h 1.00974 v 2.98876 c 0,0.72124 0.48024,1.03789 0.98159,1.03789 0.2621,0 0.42747,-0.0686 0.66671,-0.24101 l 0.73532,0.85845 c -0.30961,0.23396 -0.6456,0.38525 -1.0502,0.38525 -0.53653,0 -0.99743,-0.19879 -1.31407,-0.59106 h -0.0193 v 0.52949 h -1.00974 z" /><path
         inkscape:connector-curvature="0"
         id="path3494-8"
         style="fill:#0000ff;fill-opacity:1;fill-rule:evenodd;stroke:none;stroke-width:0.49818489;stroke-miterlimit:10;stroke-dasharray:none"
         d="m 180.5699,-219.40245 c -0.24627,-0.30257 -0.60514,-0.51542 -1.02381,-0.51542 -0.82504,0 -1.30528,0.46089 -1.30528,1.53923 0,1.08539 0.48024,1.54628 1.30528,1.54628 0.41867,0 0.77753,-0.21287 1.02381,-0.51543 l 0.74235,0.65264 c -0.43275,0.50135 -1.03789,0.86549 -1.80662,0.86549 -1.16103,0 -2.28863,-0.72828 -2.28863,-2.54898 0,-1.81366 1.1276,-2.54369 2.28863,-2.54369 0.76873,0 1.37387,0.36589 1.80662,0.86724 z" /><path
         inkscape:connector-curvature="0"
         id="path3496-8"
         style="fill:#0000ff;fill-opacity:1;fill-rule:evenodd;stroke:none;stroke-width:0.49818489;stroke-miterlimit:10;stroke-dasharray:none"
         d="m 185.73118,-218.75685 v 0.82503 c 0,1.28417 -0.96928,2.10216 -2.08281,2.10216 -0.96928,0 -2.07577,-0.63153 -2.07577,-2.56305 0,-2.03355 1.20324,-2.52962 2.24113,-2.52962 0.67374,0 1.31934,0.241 1.81366,0.80567 l -0.73532,0.61746 c -0.29553,-0.30257 -0.7142,-0.48024 -1.09945,-0.48024 -0.6931,0 -1.20149,0.41163 -1.20149,1.22259 z m -3.14005,0.82503 c 0.0123,0.75467 0.46617,1.16102 1.05724,1.16102 0.5981,0 1.03789,-0.40635 1.06603,-1.16102 z" /><path
         inkscape:connector-curvature="0"
         id="path3498-9"
         style="fill:#0000ff;fill-opacity:1;fill-rule:nonzero;stroke:none;stroke-width:0.49818489;stroke-miterlimit:10;stroke-dasharray:none"
         d="m 144.41807,-219.91787 c 0.9552,0 1.00446,0.76873 1.00446,1.53923 0,0.77578 -0.0493,1.54628 -1.00446,1.54628 -0.94113,0 -0.99567,-0.82504 -0.99567,-1.54628 0,-0.7142 0.0545,-1.53923 0.99567,-1.53923 m -2.01244,-8.7886 v 12.81524 h 1.01677 v -0.51543 c 0.32368,0.336 0.78281,0.577 1.30527,0.577 0.61922,0 1.06604,-0.27441 1.35453,-0.65264 0.27444,-0.35006 0.35007,-0.67374 0.35007,-1.89634 0,-1.21731 -0.0756,-1.53923 -0.35007,-1.8893 -0.28848,-0.37821 -0.73531,-0.65439 -1.35453,-0.65439 -0.52246,0 -0.92706,0.241 -1.30527,0.59106 v -3.93693 c 0.336,0.39229 0.78985,0.59107 1.32638,0.59107 0.78985,0 1.68349,-0.5981 1.68349,-1.72394 v -3.3054 h -1.01678 v 2.96061 c 0,0.67374 -0.42571,1.06603 -0.99039,1.06603 -0.57699,0 -1.0027,-0.39229 -1.0027,-1.06603 v -2.96061 z" /><path
         inkscape:connector-curvature="0"
         id="path3500-5"
         style="fill:#0000ff;fill-opacity:1;fill-rule:nonzero;stroke:none;stroke-width:0.49818489;stroke-miterlimit:10;stroke-dasharray:none"
         d="m 236.60866,-190.52109 c 3.63436,0 6.71283,-1.23667 9.21432,-3.69769 2.51556,-2.48037 3.77156,-5.51135 3.77156,-9.08413 0,-3.58687 -1.23665,-6.58266 -3.71,-8.97331 -2.62462,-2.53667 -5.71716,-3.80852 -9.27588,-3.80852 -3.51122,0 -6.54923,1.25075 -9.12635,3.7663 -2.54194,2.51555 -3.82083,5.51838 -3.82083,9.01553 0,3.49714 1.27889,6.52812 3.82083,9.08413 2.50148,2.46102 5.53949,3.69769 9.12635,3.69769 z m 0.0405,-2.30974 c -2.9483,0 -5.44275,-1.01677 -7.4763,-3.05736 -2.11622,-2.12327 -3.17521,-4.5966 -3.17521,-7.41472 0,-2.83044 1.05195,-5.28442 3.14707,-7.35316 2.10391,-2.06697 4.6054,-3.09782 7.50444,-3.09782 2.88672,0 5.40756,1.04316 7.55194,3.12597 2.03355,1.93152 3.05031,4.36967 3.05031,7.32501 0,2.90607 -1.03083,5.38117 -3.09781,7.41472 -2.06874,2.04059 -4.57021,3.05736 -7.50444,3.05736 z m 3.4778,-7.3039 v -5.22284 h -1.48471 v -6.20445 h -4.02664 v 6.20445 h -1.48476 v 5.22284 c 0,0.23397 0.0827,0.42571 0.24101,0.58404 0.16536,0.15832 0.36414,0.24099 0.59107,0.24099 h 5.33191 c 0.21286,0 0.4046,-0.0827 0.57699,-0.24099 0.16536,-0.15833 0.25507,-0.35007 0.25507,-0.58404 z m -5.30553,3.29133 c 0,1.20325 0.5981,1.79959 1.80661,1.79959 1.20326,0 1.8084,-0.59634 1.8084,-1.79959 0,-1.18917 -0.60514,-1.78023 -1.8084,-1.78023 -1.20148,0 -1.80661,0.59106 -1.80661,1.78023 z" /><path
         inkscape:connector-curvature="0"
         id="path3502-6"
         style="fill:#0000ff;fill-opacity:1;fill-rule:nonzero;stroke:none;stroke-width:0.49818489;stroke-miterlimit:10;stroke-dasharray:none"
         d="m 207.94016,-190.52109 c 3.62732,0 6.71283,-1.25074 9.26181,-3.74519 1.21731,-1.20324 2.14437,-2.57712 2.7759,-4.11635 0.63329,-1.54628 0.94993,-3.1893 0.94993,-4.92028 0,-1.7521 -0.30961,-3.39512 -0.93586,-4.92028 -0.62449,-1.52517 -1.54627,-2.87794 -2.76886,-4.05303 -1.26481,-1.22436 -2.7073,-2.17253 -4.30811,-2.82516 -1.6008,-0.65264 -3.26494,-0.98336 -4.97481,-0.98336 -1.71163,0 -3.35465,0.32369 -4.92028,0.96928 -1.56738,0.6456 -2.97644,1.5885 -4.22014,2.81109 -1.23667,1.22259 -2.18484,2.60351 -2.83044,4.13571 -0.6456,1.53924 -0.97632,3.16115 -0.97632,4.86575 0,1.68348 0.33072,3.31243 0.98336,4.87278 0.65967,1.55859 1.61488,2.95357 2.86561,4.18496 2.4663,2.48037 5.49728,3.72408 9.09821,3.72408 z m 0.0405,-2.30974 c -2.95533,0 -5.44802,-1.01677 -7.47629,-3.05736 -1.01678,-1.01678 -1.79959,-2.16549 -2.35019,-3.42854 -0.54182,-1.27185 -0.818,-2.60527 -0.818,-3.98618 0,-1.36685 0.27617,-2.69323 0.818,-3.95804 0.5506,-1.27185 1.33341,-2.40473 2.35019,-3.40039 1.01678,-1.00447 2.17252,-1.75913 3.45669,-2.28159 1.27888,-0.5295 2.61758,-0.79161 4.0196,-0.79161 1.39499,0 2.74248,0.26212 4.04775,0.79864 1.30528,0.53478 2.48037,1.29824 3.5253,2.30094 2.02651,1.95263 3.03097,4.39078 3.03097,7.33205 0,1.40906 -0.25508,2.75655 -0.78457,4.01257 -0.52246,1.26481 -1.28416,2.39241 -2.28862,3.38104 -2.08809,2.05466 -4.5966,3.07847 -7.53083,3.07847 z m -0.15831,-8.34882 -1.73802,-0.89363 c -0.18473,0.37821 -0.41163,0.64736 -0.68078,0.79688 -0.26739,0.15128 -0.52246,0.23396 -0.75467,0.23396 -1.15574,0 -1.73977,-0.75466 -1.73977,-2.26047 0,-0.68782 0.15129,-1.23667 0.44682,-1.64127 0.28848,-0.4134 0.72124,-0.61921 1.29295,-0.61921 0.75467,0 1.2912,0.36414 1.60081,1.09241 l 1.59377,-0.79688 c -0.33599,-0.62625 -0.81096,-1.11353 -1.40906,-1.47063 -0.60338,-0.3571 -1.27009,-0.53653 -1.99309,-0.53653 -1.16103,0 -2.09512,0.35182 -2.80229,1.05195 -0.70893,0.6931 -1.059,1.66942 -1.059,2.92016 0,1.21731 0.35007,2.17779 1.07307,2.89376 0.72124,0.71421 1.62016,1.07834 2.71961,1.07834 1.60257,0 2.75655,-0.61921 3.44965,-1.84884 z m 7.47629,0 -1.70987,-0.89363 c -0.18648,0.37821 -0.41339,0.64736 -0.68782,0.79688 -0.26739,0.15128 -0.52246,0.23396 -0.77577,0.23396 -1.15575,0 -1.73274,-0.75466 -1.73274,-2.26047 0,-0.68782 0.14424,-1.23667 0.43978,-1.64127 0.28848,-0.4134 0.72124,-0.61921 1.29296,-0.61921 0.75466,0 1.2912,0.36414 1.6008,1.09241 l 1.62192,-0.79688 c -0.3571,-0.62625 -0.83207,-1.11353 -1.43721,-1.47063 -0.5981,-0.3571 -1.25778,-0.53653 -1.96494,-0.53653 -1.1751,0 -2.1092,0.35182 -2.81109,1.05195 -0.70717,0.6931 -1.05724,1.66942 -1.05724,2.92016 0,1.21731 0.35711,2.17779 1.07131,2.89376 0.72125,0.71421 1.62895,1.07834 2.72137,1.07834 1.60785,0 2.74952,-0.61921 3.42854,-1.84884 z" /><path
         inkscape:connector-curvature="0"
         id="path3504-3"
         style="fill:#0000ff;fill-opacity:1;fill-rule:nonzero;stroke:none;stroke-width:0.49818489;stroke-miterlimit:10;stroke-dasharray:none"
         d="m 265.27013,-190.52109 c 3.62732,0 6.69875,-1.23667 9.21431,-3.72408 2.52083,-2.46102 3.77157,-5.48496 3.77157,-9.05774 0,-3.57983 -1.22963,-6.57562 -3.69593,-8.99442 -2.6123,-2.52259 -5.71013,-3.78741 -9.28995,-3.78741 -3.50594,0 -6.5422,1.25075 -9.11932,3.7663 -2.54898,2.50851 -3.82082,5.51838 -3.82082,9.01553 0,3.48483 1.27184,6.49997 3.82082,9.05774 2.51555,2.48741 5.55181,3.72408 9.11932,3.72408 z m 0.0475,-2.30974 c -2.94829,0 -5.44274,-1.02381 -7.47629,-3.07847 -2.11623,-2.11623 -3.17522,-4.57549 -3.17522,-7.39361 0,-2.85155 1.04492,-5.2985 3.14708,-7.35316 2.10391,-2.06697 4.59836,-3.09782 7.50443,-3.09782 2.88673,0 5.40053,1.04316 7.5449,3.12597 2.04059,1.94559 3.05737,4.38374 3.05737,7.32501 0,2.92015 -1.03085,5.3882 -3.09783,7.39361 -2.05466,2.05466 -4.55614,3.07847 -7.50444,3.07847 z m -5.7928,-8.67074 c 0.25331,1.56563 0.8866,2.78294 1.92448,3.6414 1.03789,0.85845 2.2939,1.28416 3.77157,1.28416 2.04059,0 3.66251,-0.63856 4.86575,-1.9368 1.20148,-1.29296 1.80662,-2.9483 1.80662,-4.97481 0,-1.95967 -0.62449,-3.5939 -1.87523,-4.89389 -1.25074,-1.29824 -2.87265,-1.95088 -4.86574,-1.95088 -1.4636,0 -2.72841,0.43275 -3.79268,1.29824 -1.06603,0.86549 -1.71163,2.10392 -1.92449,3.70472 h 3.26494 c 0.0756,-1.55331 1.03085,-2.33612 2.85155,-2.33612 0.90595,0 1.64126,0.39053 2.19891,1.16806 0.55588,0.77578 0.83031,1.81366 0.83031,3.09782 0,1.36157 -0.25332,2.38538 -0.76171,3.09255 -0.50838,0.71421 -1.2437,1.06603 -2.19891,1.06603 -1.73274,0 -2.70026,-0.74939 -2.92015,-2.26048 h 0.95521 l -2.57712,-2.52962 -2.57009,2.52962 z" /><text
         id="text3538-3"
         style="font-variant:normal;font-weight:normal;font-size:24.81162643px;line-height:0%;font-family:Verdana;-inkscape-font-specification:Verdana;writing-mode:lr-tb;fill:#0000ff;fill-opacity:1;fill-rule:nonzero;stroke:none;stroke-width:0.58555442;stroke-miterlimit:10;stroke-dasharray:none"
         transform="scale(1,-1)"
         x="21.061632"
         y="367.42441"><tspan
           id="tspan3540-8"
           sodipodi:role="line"
           y="367.42441"
           x="21.061632 51.505482 81.949387 111.16508 124.67497 140.52959 163.08336 186.26988 208.82365 223.48729 233.68486 253.03795 263.08673 285.41718 298.92706 318.28015 340.83392"
           style="font-size:37.21744156px;line-height:1.25;stroke-width:0.58555442">www.roboticia.com</tspan></text>
<path
         d="m 461.52577,5.6026396 c 0.58758,1.6370938 1.993,2.5322208 3.97635,2.5322208 1.48677,0 2.3157,-0.242808 3.46876,-1.030271 1.03993,-0.70479 1.61646,-1.6150458 1.87023,-2.9736516 0.35585,-1.8632973 -0.34482,-3.45910387 -1.85368,-4.22870567 -0.68963,-0.3503289 -1.07717,-0.4041002 -2.43575,-0.3296247 -1.73921,0.092227 -2.45642,0.3668569 -3.626,1.3902857 C 461.59056,2.1379724 460.992,4.119886 461.52577,5.6026396 Z m 1.52957,-3.1901912 c 1.57372,-1.68682117 4.77902,-1.92264357 6.24515,-0.4579045 0.53791,0.544754 0.58066,0.6841297 0.50064,1.6812678 -0.1017,1.2275606 -0.42065,1.6812781 -1.69229,2.4246663 -1.63164,0.9585834 -3.97634,0.7972034 -5.12796,-0.3502958 -0.54481,-0.544776 -0.58207,-0.6841296 -0.50204,-1.6867981 0.065,-0.7971929 0.22046,-1.233049 0.5765,-1.6109357 z m -1.62198,-12.1923897 c 0.0977,0.3337347 0.23136,0.8026909 0.3131,1.0509535 0.0867,0.2799634 0.0537,0.4523731 -0.0855,0.4523731 -0.12394,0 -0.22727,0.318584 -0.22727,0.7006798 0,0.7006467 0.006,0.706156 0.75444,0.597159 2.92124,-0.4137746 7.97885,-0.9254725 10.19388,-1.0344035 l 2.64537,-0.1224729 0.0758,-0.7226731 c 0.0429,-0.3931476 0.0909,2.1170798 0.10754,5.5872352 0.0275,4.9941971 0.11841,6.966447 0.44137,9.5042424 0.49515,3.8949928 0.6524,4.4232518 1.46616,4.9183878 0.58615,0.355827 1.07161,0.382052 6.75546,0.387539 5.9045,0 6.14723,-0.01642 6.65891,-0.415152 0.29101,-0.229982 0.6303,-0.608199 0.75447,-0.839945 0.12393,-0.231349 0.43582,-2.1281636 0.6896,-4.2135541 0.25373,-2.0839675 0.48962,-3.8080212 0.5227,-3.8356341 0.0319,-0.027547 0.91581,-0.3337457 1.96678,-0.6785873 1.0496,-0.3448085 2.7847,-1.06201627 3.85773,-1.58337757 l 1.94474,-0.9599059 2.65086,2.08537897 c 3.40396,2.6771168 3.66327,2.834321 4.74041,2.834321 h 0.89517 l 4.41214,-4.40249277 4.41215,-4.39562783 v -1.0674926 c 0,-1.060683 -0.0164,-1.0882629 -2.43019,-4.1639148 l -2.42469,-3.097801 0.96545,-1.994309 c 0.53238,-1.099271 1.2551,-2.860535 1.59992,-3.921196 l 0.63578,-1.929553 1.72409,-0.23136 c 0.95301,-0.129635 2.04124,-0.263292 2.42885,-0.296557 2.31154,-0.215273 3.39975,-0.387539 3.39975,-0.537867 0,-0.09223 0.12393,-0.123807 0.27586,-0.06501 0.15033,0.05928 0.55445,-0.220429 0.9103,-0.624805 l 0.64135,-0.733736 -0.059,-6.264478 -0.065,-6.271354 -0.47999,-0.511686 c -0.61922,-0.663448 -1.49229,-0.937869 -3.10876,-0.986153 -0.72135,-0.01642 -1.30893,-0.09223 -1.31443,-0.15716 0,-0.06336 -0.65235,-0.18172 -1.44954,-0.258113 -3.09777,-0.285506 -2.81777,-0.101703 -3.53361,-2.295065 -0.35033,-1.062005 -1.07304,-2.823258 -1.61094,-3.905978 l -0.97511,-1.977771 2.14334,-2.7254 c 2.92533,-3.712898 2.89356,-3.653584 2.76948,-4.762496 -0.1017,-0.906157 -0.2259,-1.050987 -4.47699,-5.290711 l -4.37492,-4.359773 -0.89924,0.0099 c -0.49518,0.0055 -1.07718,0.101813 -1.28822,0.216374 -0.21498,0.112964 -1.67026,1.210935 -3.23704,2.44535 l -2.84538,2.24126 -1.86888,-0.921307 c -1.02888,-0.500657 -2.76948,-1.223396 -3.86873,-1.594429 -1.10477,-0.377887 -2.03158,-0.700603 -2.06334,-0.722696 -0.0332,-0.02744 -0.23136,-1.566783 -0.45237,-3.426014 -0.47994,-4.132159 -0.63035,-4.708713 -1.40683,-5.361065 l -0.61373,-0.517185 h -6.09899 c -6.72926,0 -6.98165,0.04286 -7.5968,1.234415 -0.17788,0.339288 -0.2855,0.877155 -0.2371,1.195783 0.0442,0.311742 0.0219,0.57099 -0.0537,0.57099 -0.0799,0 -0.20983,0.657894 -0.29105,1.455098 -0.0855,0.797192 -0.20435,1.809514 -0.26875,2.250891 -0.065,0.437211 -0.14456,12.833744 -0.17762,27.547413 l -0.0593,26.7501564 -0.65097,0.1129748 c -0.69516,0.1278942 -5.51285,0.7268492 -5.83004,0.7268492 -0.10755,0 0.18855,-0.322705 0.65235,-0.7158085 1.06066,-0.9116989 1.47581,-1.7088919 1.48685,-2.8729299 0.0274,-2.009549 -1.21786,-3.005365 -3.76118,-3.010907 -0.76961,0 -1.72956,0.0909 -2.13918,0.204342 -1.142,0.318584 -2.61227,1.406825 -3.09225,2.29501 -0.49514,0.921363 -0.72134,2.526745 -0.47443,3.3998781 z m 1.53098,-2.8495377 c 1.26611,-1.703328 4.7735,-2.181914 6.11963,-0.835791 1.51991,1.519899 -0.17244,3.9763108 -3.15155,4.5694038 -1.41096,0.2854838 -3.3074,0.3985798 -3.17912,0.1929046 0.0593,-0.090904 0.006,-0.3282584 -0.11294,-0.5213613 -0.35451,-0.5820193 -0.14455,-2.7695081 0.32413,-3.4053211 z m 18.79747,-2.322612 c 0.98617,-0.166702 1.0179,-0.198899 1.36271,-1.164072 l 0.35582,-0.995816 -0.51714,-0.673056 c -0.27999,-0.366846 -0.51171,-0.802702 -0.51171,-0.959939 0,-0.268747 1.84265,-2.139184 2.10605,-2.139184 0.065,0 0.46346,0.275843 0.87861,0.609589 l 0.76411,0.61383 0.97647,-0.463458 c 0.90474,-0.430325 0.98477,-0.528237 1.04403,-1.260596 0.0334,-0.435878 0.15716,-0.910332 0.27586,-1.051008 0.22592,-0.274575 2.49917,-0.348952 2.89781,-0.0963 0.12964,0.08683 0.3131,0.587573 0.39858,1.121319 0.15581,0.92685 0.20545,0.980632 1.14751,1.335126 l 0.98067,0.377898 1.5737,-1.249621 2.24676,2.245371 -0.60968,0.862082 c -0.57093,0.804069 -0.70479,1.52542 -0.22043,1.228873 0.11839,-0.07581 0.15578,-0.03735 0.0867,0.07548 -0.0758,0.112975 -0.0388,0.478543 0.0799,0.819241 0.18881,0.537912 0.33379,0.630303 1.24959,0.775089 l 1.03442,0.161259 0.0593,1.368216 c 0.0704,1.568194 -0.12248,1.929552 -1.03441,1.93504 -0.851,0.0055 -1.03443,0.155804 -1.49786,1.227528 l -0.39309,0.9267946 0.57653,0.6745103 c 0.31309,0.3654355 0.57649,0.7640483 0.58201,0.8771664 0.006,0.1129638 -0.46892,0.6785873 -1.05094,1.2550751 l -1.06066,1.0454883 -0.84545,-0.6247829 -0.85237,-0.624838 -0.94202,0.4041553 c -0.89923,0.3930484 -0.9544,0.4578494 -1.11028,1.4275069 l -0.1667,1.012355 h -1.5889 c -1.72954,0 -1.71851,0.00551 -1.84813,-1.2550972 -0.0922,-0.8882402 -0.006,-0.7917163 -1.11582,-1.222019 l -0.88272,-0.3448085 -0.85647,0.6137532 -0.85788,0.6192845 -0.96409,-1.028872 c -0.52826,-0.5599929 -0.99028,-1.1047689 -1.0289,-1.2068683 -0.0374,-0.1075426 0.16125,-0.4951037 0.44685,-0.867536 0.62066,-0.8082114 0.61514,-0.7806205 0.17217,-1.8481677 -0.35026,-0.845455 -0.67854,-1.055108 -1.6702,-1.060628 -0.28551,0 -0.58065,-0.06501 -0.65652,-0.146042 -0.0758,-0.07416 -0.11297,-0.817886 -0.0813,-1.648168 l 0.0537,-1.508881 1.01368,-0.172409 z m 3.80809,3.674288 c 0.36137,0.824751 1.36409,1.9185009 2.13919,2.3226562 0.65238,0.3447644 2.36539,0.6895839 2.62469,0.5337353 0.0963,-0.059281 0.4841,-0.1293707 0.86202,-0.1516726 0.37655,-0.027437 1.05511,-0.306232 1.51853,-0.6303693 2.34881,-1.6481676 2.81228,-4.9569216 1.00271,-7.0795876 -2.97499,-3.468779 -8.48644,-1.453699 -8.45331,3.093646 0,0.662016 0.13915,1.524031 0.30617,1.911614 z m -3.8784,-36.63514 c 0.51723,-0.05895 0.96961,-0.15197 1.00686,-0.199989 0.1888,-0.268746 0.7544,-1.637149 0.7544,-1.820566 0,-0.118385 -0.22591,-0.485551 -0.5006,-0.808245 -0.27455,-0.328247 -0.50067,-0.706156 -0.50067,-0.839956 0,-0.135056 0.44687,-0.684108 0.99029,-1.217843 1.07855,-1.062016 1.00817,-1.056529 2.41364,-0.18907 0.45929,0.291081 0.57235,0.280018 1.44957,-0.112975 0.86203,-0.387594 0.9489,-0.489627 0.9489,-1.099248 0,-1.244057 0.0909,-1.308902 1.79854,-1.308902 h 1.55719 l 0.12392,0.624816 c 0.0704,0.344808 0.12394,0.819219 0.12394,1.050965 0,0.333756 0.22591,0.511697 1.01239,0.791628 l 1.01922,0.361391 0.67312,-0.517174 c 0.36686,-0.280029 0.78612,-0.511742 0.9268,-0.511742 0.31174,0 2.17645,1.798529 2.1654,2.095076 0,0.11293 -0.25811,0.517229 -0.57653,0.895138 l -0.571,0.689595 0.39312,0.910277 c 0.45238,1.055108 0.64135,1.206858 1.48681,1.212378 0.91164,0.0055 1.10477,0.365446 1.03439,1.933651 l -0.0593,1.368215 -1.01783,0.177887 c -0.98064,0.161258 -1.03998,0.209531 -1.43305,1.142012 l -0.41517,0.9751 0.58204,0.733769 c 0.32415,0.404112 0.58204,0.791684 0.58204,0.862016 0,0.06909 -0.48963,0.613742 -1.09372,1.210945 l -1.09374,1.078567 -0.78613,-0.624794 -0.78205,-0.630304 -0.99027,0.413764 c -0.95442,0.404122 -0.9972,0.457927 -1.17511,1.44409 l -0.18336,1.023341 -1.3682,0.05928 c -0.80825,0.03879 -1.47576,-0.03195 -1.63714,-0.161512 -0.15198,-0.123806 -0.30205,-0.602723 -0.33516,-1.060639 -0.0537,-0.782009 -0.12248,-0.862004 -1.02338,-1.288175 l -0.96963,-0.457949 -0.76546,0.604145 c -0.41925,0.333746 -0.8344,0.60269 -0.92547,0.60269 -0.28135,0 -2.07986,-1.864685 -2.07986,-2.154356 0,-0.151683 0.23136,-0.576499 0.51171,-0.943344 l 0.51715,-0.673122 -0.35582,-0.997194 c -0.3393,-0.964049 -0.38206,-0.997138 -1.28265,-1.115743 -0.51173,-0.06909 -0.99028,-0.187726 -1.06615,-0.263303 -0.0813,-0.07581 -0.11297,-0.819318 -0.0813,-1.64819 l 0.0537,-1.508891 0.9434,-0.107212 z m 4.08395,3.976289 c 0.87303,1.750223 2.60258,2.714316 4.58452,2.552936 2.71023,-0.220429 4.71424,-2.569497 4.44527,-5.198253 -0.2701,-2.6247 -2.16125,-4.363971 -4.74729,-4.363971 -3.68531,0 -5.93623,3.689461 -4.2825,7.009288 z m -24.2552,19.318917 c 0.65789,1.794397 2.21367,2.639851 4.56805,2.489512 2.46328,-0.161248 4.25628,-1.616445 4.75831,-3.863237 0.60272,-2.710195 -1.0399,-4.68661 -3.90598,-4.697694 -1.54201,-0.0055 -2.35982,0.237354 -3.54046,1.04 -1.64823,1.125407 -2.48815,3.377742 -1.87992,5.031419 z m 1.71855,-3.296357 c 1.6978,-1.616467 4.61214,-1.799885 6.03964,-0.372389 0.7379,0.737901 0.78066,2.015069 0.10754,3.017738 -1.28819,1.911603 -4.81623,2.343349 -6.37891,0.780665 -0.47998,-0.478587 -0.57101,-0.732414 -0.57101,-1.616478 0,-0.964049 0.065,-1.108879 0.80273,-1.809536 z m -1.86891,-11.637973 c 0.0537,0.248538 0.18172,0.452417 0.29105,0.452417 0.11297,0 0.14457,0.08672 0.0799,0.194525 -0.065,0.101702 0.17239,0.33931 0.53376,0.528248 0.53787,0.274288 1.00685,0.311708 2.75844,0.209543 1.15857,-0.06501 2.58053,-0.177633 3.15708,-0.252373 l 1.05094,-0.135056 v 0.743432 c 0,0.711676 0.0219,0.737901 0.65103,0.673045 0.6096,-0.05366 0.65238,-0.112975 0.71167,-0.888229 l 0.059,-0.830337 1.34202,-0.17241 c 1.3351,-0.172432 1.34059,-0.172432 1.40541,-0.845499 0.065,-0.673033 0.0593,-0.673033 -0.65235,-0.550307 -0.39309,0.07041 -1.02892,0.177886 -1.41646,0.248571 l -0.70067,0.118385 v -1.341991 c 0,-1.303381 -0.0164,-1.346144 -0.44688,-1.227528 -0.24828,0.06501 -0.56544,0.123927 -0.70064,0.123927 -0.1776,0 -0.25267,0.393104 -0.25267,1.2813 0,1.492341 0.1667,1.395784 -2.93084,1.735116 -1.55166,0.166702 -2.1447,0.155783 -2.77503,-0.04826 -0.72686,-0.24283 -0.80271,-0.333745 -0.86204,-1.034414 -0.0334,-0.420661 0.0274,-1.028883 0.13914,-1.351676 0.18907,-0.533758 0.16806,-0.582009 -0.28002,-0.582009 -0.7585,0 -1.42195,1.685433 -1.16268,2.951549 z m 0.0593,-20.989154 c 0.23575,0.964082 0.80275,1.637137 1.82612,2.186079 0.75998,0.404122 1.10479,0.463413 2.48399,0.399979 3.32948,-0.146031 5.15009,-2.009515 5.18178,-5.301752 0.006,-0.791683 -0.0374,-1.486831 -0.1017,-1.551654 -0.0593,-0.05928 -0.38202,-0.01642 -0.7158,0.101702 l -0.60413,0.20983 0.0963,1.373691 c 0.0868,1.186186 0.0334,1.477146 -0.36002,2.118512 -1.15854,1.868862 -4.74182,2.267419 -6.08242,0.667569 -0.65234,-0.771012 -0.70067,-2.139183 -0.11293,-3.232923 0.21499,-0.409642 0.39855,-0.780664 0.39855,-0.823417 0,-0.03879 -0.29103,-0.01642 -0.64687,0.05928 -1.08817,0.220462 -1.7723,2.128142 -1.36268,3.792871 z m -0.01,-20.063639 c 0.26325,1.039946 0.96404,1.820578 2.17639,2.413638 1.05514,0.517207 1.32542,0.565469 3.44813,0.559949 2.65634,0 3.77079,-0.296569 5.73203,-1.529585 2.72121,-1.714357 4.23424,-4.256285 4.67697,-7.850599 0.10721,-0.893717 0.269,-2.187379 0.36,-2.877062 0.0922,-0.689562 0.13505,-1.286798 0.0922,-1.325397 -0.0375,-0.03735 -0.49657,0.0099 -1.01376,0.107543 -6.23826,1.17509 -11.73866,1.568149 -14.48195,1.045488 -0.50617,-0.09641 -0.53791,-0.05388 -0.6675,0.964049 -0.0704,0.582041 -0.17789,1.217887 -0.23166,1.412345 -0.0909,0.317185 0.0868,0.350318 1.81645,0.350318 1.04959,0 1.91161,0.07041 1.91161,0.155805 0,0.08132 -0.31719,0.322727 -0.70065,0.533724 -0.89925,0.478631 -2.4398,2.122644 -2.79015,2.968077 -0.36688,0.873078 -0.51726,2.311626 -0.32824,3.071619 z m 2.87152,-3.959815 c 0.52271,-0.695138 1.11442,-1.099249 2.95154,-2.020589 1.97784,-0.986131 2.58055,-1.191619 4.30456,-1.449534 1.09928,-0.161259 2.48402,-0.296535 3.07711,-0.302012 h 1.0827 l -0.1184,1.401294 c -0.23135,2.736375 -1.69093,4.87557 -4.05082,5.921003 -2.10746,0.926883 -5.07557,1.082687 -6.65477,0.33931 -1.39443,-0.652385 -1.66892,-2.461954 -0.5917,-3.889461 z M 462.1889,29.867414 c 5.56109,-0.888207 19.77265,-2.315736 23.08699,-2.315736 h 1.31437 l 0.12789,-4.057684 c 0.12392,-4.152897 0.006,-5.850682 -0.54894,-7.515432 -0.35029,-1.050987 -1.43855,-2.510195 -1.73512,-2.326766 -0.10754,0.06303 -0.1667,0 -0.13344,-0.145877 0.032,-0.144565 -0.39451,-0.479986 -0.94895,-0.754473 -0.78616,-0.382019 -1.29781,-0.484096 -2.43569,-0.474433 -2.58052,0.02777 -4.81633,1.482689 -6.10315,3.970802 -0.36685,0.711665 -0.71165,1.293729 -0.77098,1.293729 -0.0589,0 -0.27455,-0.318606 -0.48961,-0.711666 -0.80273,-1.492374 -2.59158,-2.586047 -6.00793,-3.685329 -2.28402,-0.726838 -5.4797,-1.605448 -5.86724,-1.605448 -0.19342,0 -0.24254,0.398613 -0.19889,1.616467 l 0.0593,1.621932 2.66607,0.667569 c 4.76796,1.201326 6.72926,2.1875 7.54297,3.803978 0.32827,0.65785 0.40965,1.288153 0.46895,3.620428 l 0.065,2.823291 -0.76546,0.118374 c -0.68409,0.101703 -3.00121,0.285462 -8.42577,0.656495 l -1.65505,0.118374 v 3.399812 l 0.75444,-0.118374 z m 12.88205,-9.762191 c 0.46895,-2.198486 1.70333,-3.835635 3.31428,-4.384587 0.41927,-0.145877 1.31438,-0.264637 1.98199,-0.270091 1.57367,-0.0099 2.62323,0.635835 3.31288,2.026087 0.41518,0.850997 0.48,1.303392 0.54478,3.787384 0.0537,2.311582 0.01,2.871575 -0.23736,3.119816 -0.20028,0.198899 -0.92686,0.350362 -2.17092,0.441354 -1.02338,0.07581 -3.01224,0.254015 -4.41768,0.393126 l -2.55434,0.25375 v -2.155734 c 0,-1.184765 0.10171,-2.628844 0.22592,-3.210852 z M 461.99022,-48.986 c 1.35161,-0.268746 4.14321,-0.576499 6.35137,-0.693793 l 2.40258,-0.129337 0.0593,-0.74892 c 0.0756,-0.889607 0.21118,-0.867536 -2.87713,-0.468956 -1.20124,0.155771 -3.15701,0.350329 -4.33629,0.426181 l -2.15572,0.139134 v 0.791705 c 0,0.759971 0.0274,0.793039 0.55585,0.684119 z m 0.0164,-21.533985 c 0.20434,0 2.07296,-0.23136 4.15289,-0.511643 2.16678,-0.296558 5.33901,-0.565502 7.41338,-0.630337 l 3.626,-0.118385 0.12392,-1.023384 c 0.23136,-1.907438 0.32825,-1.794364 -1.422,-1.659187 -0.85649,0.06501 -2.54327,0.252626 -3.75565,0.419273 -2.06883,0.281352 -4.70321,0.528237 -8.75533,0.824784 l -1.75029,0.129348 v 1.2827 c 0,1.114421 0.0483,1.281321 0.36687,1.281321 v 0.0055 z m 10.81733,20.187874 c 0.50622,0.797192 2.18748,-0.135046 1.902,-1.056529 -0.26331,-0.845455 -0.88274,-0.936514 -1.58891,-0.23136 -0.5172,0.522749 -0.59858,0.835791 -0.3131,1.288208 z m 7.66716,-22.692515 c 0.12393,0.220473 0.32275,0.468923 0.44138,0.548919 0.39858,0.264658 1.82057,0.155804 2.295,-0.172432 0.99167,-0.695148 1.24549,-2.439895 0.41517,-2.882594 -0.55999,-0.300689 -1.85369,-0.23136 -2.3654,0.129349 -0.41511,0.291081 -1.03442,1.401326 -1.0179,1.820632 0,0.08672 0.10754,0.335123 0.23161,0.555817 z m 37.22268,79.5802624 c 1.5737,1.368194 4.31561,3.7280816 6.08788,5.2535006 l 3.22191,2.7626 -0.371,0.728226 c -0.73375,1.438548 -0.37239,3.68534 0.79168,4.912857 1.27717,1.347467 3.60943,1.768151 5.22042,0.943367 3.066,-1.562651 3.27565,-5.856224 0.38755,-7.763662 -0.72688,-0.485517 -1.02891,-0.554494 -2.35988,-0.554494 -1.10339,0 -1.67023,0.0963 -2.05231,0.344841 l -0.5282,0.350296 -4.78457,-5.5555666 c -2.63436,-3.049439 -5.00388,-5.7968764 -5.26864,-6.1044417 l -0.48002,-0.5599929 -1.36823,1.3792781 -1.36815,1.3846885 z m -1.49235,-68.6222774 1.36266,1.347522 5.26456,-6.098966 5.25764,-6.104508 0.53374,0.35034 c 0.38208,0.252372 0.94339,0.350329 2.05231,0.350329 1.33097,0 1.633,-0.07041 2.35988,-0.555839 1.22336,-0.806845 1.89642,-1.939161 1.9985,-3.344597 0.20544,-2.802598 -1.62059,-4.806626 -4.36388,-4.806626 -1.89094,0 -3.39429,0.969602 -4.08808,2.639852 -0.39997,0.954418 -0.35586,2.791579 0.0802,3.659082 l 0.34482,0.673089 -5.16659,4.445245 c -2.84395,2.439806 -5.11283,4.536281 -5.04245,4.649388 0.0704,0.112975 0.032,0.150075 -0.0815,0.07449 -0.11838,-0.06909 -0.58755,0.211184 -1.04546,0.62064 l -0.83444,0.748919 1.36819,1.351643 z"
         style="fill:#0000ff;fill-opacity:1;fill-rule:nonzero;stroke:none;stroke-width:0.77266723;stroke-miterlimit:10;stroke-dasharray:none"
         id="path3546-4"
         inkscape:connector-curvature="0" /><path
         d="m 491.91575,-245.12236 c 0.58758,1.6371 1.993,2.53222 3.97635,2.53222 1.48677,0 2.3157,-0.24281 3.46876,-1.03027 1.03993,-0.70479 1.61646,-1.61504 1.87023,-2.97365 0.35585,-1.8633 -0.34482,-3.4591 -1.85368,-4.22871 -0.68963,-0.35032 -1.07717,-0.4041 -2.43575,-0.32962 -1.73921,0.0922 -2.45642,0.36686 -3.626,1.39029 -1.33512,1.17508 -1.93368,3.15699 -1.39991,4.63974 z m 1.52957,-3.19019 c 1.57372,-1.68682 4.77902,-1.92264 6.24515,-0.4579 0.53791,0.54475 0.58066,0.68413 0.50064,1.68126 -0.10171,1.22757 -0.42065,1.68128 -1.69229,2.42467 -1.63164,0.95858 -3.97634,0.7972 -5.12796,-0.35029 -0.54481,-0.54478 -0.58207,-0.68413 -0.50204,-1.6868 0.065,-0.7972 0.22047,-1.23305 0.5765,-1.61094 z m -1.62198,-12.19239 c 0.0977,0.33374 0.23135,0.80269 0.3131,1.05096 0.0867,0.27996 0.0537,0.45237 -0.0855,0.45237 -0.12394,0 -0.22729,0.31858 -0.22729,0.70068 0,0.70065 0.006,0.70615 0.75444,0.59716 2.92124,-0.41378 7.97885,-0.92548 10.19388,-1.03441 l 2.64537,-0.12247 0.0758,-0.72268 c 0.0429,-0.39314 0.0909,2.11709 0.10753,5.58724 0.0275,4.9942 0.11844,6.96645 0.44141,9.50425 0.49515,3.89499 0.6524,4.42325 1.46616,4.91838 0.58615,0.35583 1.07161,0.38206 6.75546,0.38754 5.9045,0 6.14723,-0.0164 6.65891,-0.41515 0.29099,-0.22998 0.6303,-0.6082 0.75447,-0.83994 0.12394,-0.23135 0.43582,-2.12817 0.6896,-4.21356 0.25373,-2.08397 0.48962,-3.80802 0.5227,-3.83563 0.0319,-0.0276 0.91581,-0.33375 1.96678,-0.67859 1.0496,-0.34481 2.7847,-1.06202 3.85773,-1.58338 l 1.94474,-0.9599 2.65086,2.08538 c 3.40396,2.67711 3.66327,2.83432 4.74041,2.83432 h 0.89517 l 4.41214,-4.4025 4.41215,-4.39563 v -1.06749 c 0,-1.06068 -0.0164,-1.08826 -2.43019,-4.16391 l -2.42469,-3.0978 0.96545,-1.99431 c 0.53238,-1.09927 1.2551,-2.86054 1.59992,-3.9212 l 0.63578,-1.92955 1.72409,-0.23135 c 0.95301,-0.12965 2.04124,-0.2633 2.42885,-0.29656 2.31154,-0.21526 3.39975,-0.38754 3.39975,-0.53787 0,-0.0922 0.12393,-0.12379 0.27586,-0.065 0.15033,0.0593 0.55445,-0.22045 0.9103,-0.62481 l 0.64135,-0.73374 -0.059,-6.26447 -0.065,-6.27136 -0.47999,-0.51168 c -0.61922,-0.66345 -1.49229,-0.93787 -3.10876,-0.98616 -0.72135,-0.0164 -1.30893,-0.0922 -1.31443,-0.15717 0,-0.0634 -0.65235,-0.18171 -1.44954,-0.25811 -3.09777,-0.2855 -2.81777,-0.10171 -3.53361,-2.29507 -0.35033,-1.06201 -1.07304,-2.82326 -1.61094,-3.90598 l -0.97511,-1.97777 2.14334,-2.7254 c 2.92533,-3.7129 2.89356,-3.65358 2.76948,-4.76249 -0.1017,-0.90616 -0.2259,-1.05099 -4.47699,-5.29072 l -4.37492,-4.35977 -0.89924,0.01 c -0.49518,0.006 -1.07718,0.10182 -1.28822,0.21637 -0.21498,0.11297 -1.67026,1.21094 -3.23704,2.44535 l -2.84538,2.24126 -1.86888,-0.92131 c -1.02888,-0.50065 -2.76948,-1.22339 -3.86873,-1.59442 -1.10477,-0.37789 -2.03158,-0.70061 -2.06334,-0.7227 -0.0332,-0.0275 -0.23135,-1.56678 -0.45237,-3.42602 -0.47994,-4.13216 -0.63035,-4.70871 -1.40683,-5.36106 l -0.61373,-0.51719 h -6.09899 c -6.72926,0 -6.98165,0.0429 -7.5968,1.23442 -0.17788,0.33929 -0.2855,0.87715 -0.23711,1.19578 0.0442,0.31174 0.0219,0.57099 -0.0537,0.57099 -0.0799,0 -0.20982,0.6579 -0.29105,1.4551 -0.0855,0.79719 -0.20436,1.80951 -0.26877,2.25089 -0.065,0.43722 -0.14456,12.83375 -0.17762,27.54742 l -0.0593,26.75015 -0.65097,0.11297 c -0.69516,0.12789 -5.51285,0.72685 -5.83004,0.72685 -0.10756,0 0.18856,-0.3227 0.65235,-0.71581 1.06066,-0.9117 1.47581,-1.70889 1.48685,-2.87293 0.0275,-2.00955 -1.21786,-3.00536 -3.76118,-3.0109 -0.76961,0 -1.72956,0.0909 -2.13918,0.20435 -1.142,0.31858 -2.61227,1.40683 -3.09225,2.29501 -0.49514,0.92136 -0.72134,2.52675 -0.47443,3.39988 z m 1.53098,-2.84954 c 1.26611,-1.70332 4.7735,-2.18191 6.11963,-0.83579 1.51991,1.5199 -0.17244,3.97631 -3.15155,4.56941 -1.41096,0.28549 -3.3074,0.39858 -3.17912,0.19291 0.0593,-0.0909 0.006,-0.32825 -0.11294,-0.52136 -0.35451,-0.58202 -0.14456,-2.76951 0.32413,-3.40532 z m 18.79747,-2.32261 c 0.98617,-0.1667 1.0179,-0.19891 1.36271,-1.16407 l 0.35582,-0.99582 -0.51714,-0.67305 c -0.28,-0.36685 -0.51171,-0.80271 -0.51171,-0.95994 0,-0.26874 1.84265,-2.13919 2.10605,-2.13919 0.065,0 0.46346,0.27585 0.87861,0.60959 l 0.76411,0.61383 0.97647,-0.46345 c 0.90474,-0.43033 0.98477,-0.52824 1.04403,-1.2606 0.0334,-0.43588 0.15717,-0.91033 0.27587,-1.05101 0.22591,-0.27458 2.49917,-0.34895 2.89781,-0.0963 0.12964,0.0868 0.3131,0.58757 0.39858,1.12131 0.15582,0.92685 0.20546,0.98064 1.14751,1.33513 l 0.98066,0.3779 1.5737,-1.24963 2.24676,2.24538 -0.60968,0.86208 c -0.57093,0.80407 -0.70479,1.52542 -0.22044,1.22887 0.11838,-0.0758 0.15579,-0.0374 0.0867,0.0755 -0.0758,0.11297 -0.0388,0.47854 0.0799,0.81924 0.18882,0.53791 0.33379,0.6303 1.24959,0.77509 l 1.03442,0.16126 0.0593,1.36822 c 0.0704,1.56819 -0.12248,1.92955 -1.03441,1.93504 -0.851,0.006 -1.03443,0.15579 -1.49786,1.22753 l -0.39309,0.92679 0.57653,0.67451 c 0.31309,0.36544 0.57649,0.76405 0.58201,0.87717 0.006,0.11297 -0.46892,0.67858 -1.05094,1.25507 l -1.06066,1.04549 -0.84545,-0.62478 -0.85237,-0.62484 -0.94202,0.40416 c -0.89923,0.39304 -0.9544,0.45784 -1.11028,1.4275 l -0.16671,1.01236 h -1.5889 c -1.72954,0 -1.71851,0.006 -1.84812,-1.2551 -0.0922,-0.88824 -0.006,-0.79172 -1.11582,-1.22202 l -0.88273,-0.34481 -0.85647,0.61376 -0.85788,0.61928 -0.96409,-1.02887 c -0.52826,-0.55999 -0.99028,-1.10477 -1.02889,-1.20687 -0.0374,-0.10753 0.16126,-0.4951 0.44684,-0.86754 0.62066,-0.80821 0.61514,-0.78062 0.17218,-1.84816 -0.35026,-0.84546 -0.67854,-1.05511 -1.6702,-1.06063 -0.28552,0 -0.58065,-0.065 -0.65652,-0.14605 -0.0758,-0.0742 -0.11297,-0.81789 -0.0813,-1.64817 l 0.0537,-1.50888 1.01367,-0.17241 z m 3.80809,3.67429 c 0.36137,0.82475 1.36409,1.9185 2.13919,2.32266 0.65238,0.34476 2.36539,0.68958 2.62469,0.53373 0.0963,-0.0593 0.4841,-0.12938 0.86202,-0.15167 0.37655,-0.0275 1.05511,-0.30623 1.51853,-0.63037 2.34881,-1.64817 2.81228,-4.95692 1.00271,-7.07959 -2.97499,-3.46877 -8.48644,-1.45369 -8.45331,3.09365 0,0.66202 0.13915,1.52403 0.30617,1.91162 z m -3.8784,-36.63514 c 0.51723,-0.0589 0.96961,-0.15196 1.00686,-0.19999 0.18879,-0.26874 0.7544,-1.63715 0.7544,-1.82057 0,-0.11838 -0.22591,-0.48555 -0.5006,-0.80825 -0.27456,-0.32824 -0.50067,-0.70615 -0.50067,-0.83995 0,-0.13506 0.44687,-0.68411 0.99029,-1.21785 1.07855,-1.06201 1.00817,-1.05653 2.41364,-0.18908 0.45929,0.29108 0.57235,0.28003 1.44957,-0.11297 0.86203,-0.38759 0.9489,-0.48963 0.9489,-1.09925 0,-1.24405 0.0909,-1.3089 1.79854,-1.3089 h 1.55719 l 0.12391,0.62482 c 0.0704,0.3448 0.12394,0.81922 0.12394,1.05096 0,0.33376 0.22591,0.5117 1.01239,0.79163 l 1.01923,0.36141 0.67312,-0.51718 c 0.36686,-0.28003 0.78612,-0.51174 0.9268,-0.51174 0.31174,0 2.17645,1.79853 2.1654,2.09508 0,0.11294 -0.25812,0.51722 -0.57653,0.89513 l -0.571,0.6896 0.39312,0.91027 c 0.45238,1.05511 0.64135,1.20686 1.48681,1.21238 0.91164,0.006 1.10477,0.36545 1.03439,1.93365 l -0.0593,1.36822 -1.01783,0.17788 c -0.98064,0.16126 -1.03998,0.20953 -1.43306,1.14201 l -0.41517,0.9751 0.58205,0.73377 c 0.32415,0.40411 0.58203,0.79169 0.58203,0.86202 0,0.0691 -0.48963,0.61374 -1.09371,1.21094 l -1.09374,1.07857 -0.78613,-0.6248 -0.78205,-0.6303 -0.99028,0.41377 c -0.95441,0.40412 -0.99719,0.45792 -1.1751,1.44409 l -0.18335,1.02334 -1.3682,0.0593 c -0.80825,0.0388 -1.47576,-0.0319 -1.63714,-0.16153 -0.152,-0.12379 -0.30205,-0.60272 -0.33516,-1.06063 -0.0537,-0.78201 -0.12248,-0.86201 -1.02338,-1.28818 l -0.96963,-0.45795 -0.76546,0.60415 c -0.41925,0.33374 -0.8344,0.60269 -0.92547,0.60269 -0.28135,0 -2.07986,-1.86469 -2.07986,-2.15436 0,-0.15167 0.23135,-0.5765 0.51171,-0.94334 l 0.51715,-0.67313 -0.35582,-0.99719 c -0.3393,-0.96405 -0.38206,-0.99714 -1.28265,-1.11574 -0.51173,-0.0691 -0.99028,-0.18774 -1.06615,-0.2633 -0.0813,-0.0758 -0.11297,-0.81931 -0.0813,-1.64819 l 0.0537,-1.50889 0.94341,-0.1072 z m 4.08395,3.97629 c 0.87303,1.75022 2.60258,2.71432 4.58452,2.55293 2.71023,-0.22044 4.71424,-2.56949 4.44527,-5.19825 -0.27011,-2.6247 -2.16125,-4.36397 -4.74729,-4.36397 -3.68531,0 -5.93623,3.68946 -4.2825,7.00929 z m -24.2552,19.31892 c 0.65789,1.79439 2.21367,2.63985 4.56805,2.48951 2.46328,-0.16127 4.25628,-1.61645 4.75831,-3.86324 0.60272,-2.71019 -1.0399,-4.68661 -3.90598,-4.69769 -1.54201,-0.006 -2.35982,0.23734 -3.54046,1.04 -1.64823,1.1254 -2.48815,3.37774 -1.87992,5.03142 z m 1.71855,-3.29636 c 1.6978,-1.61647 4.61214,-1.79989 6.03964,-0.37239 0.7379,0.7379 0.78066,2.01507 0.10753,3.01774 -1.28819,1.9116 -4.81623,2.34335 -6.37891,0.78066 -0.47998,-0.47858 -0.57101,-0.73241 -0.57101,-1.61648 0,-0.96404 0.065,-1.10887 0.80273,-1.80953 z m -1.86891,-11.63797 c 0.0537,0.24855 0.18171,0.45241 0.29105,0.45241 0.11297,0 0.14456,0.0867 0.0799,0.19453 -0.065,0.1017 0.17238,0.3393 0.53376,0.52824 0.53787,0.2743 1.00685,0.31171 2.75844,0.20953 1.15857,-0.065 2.58053,-0.17764 3.15708,-0.25238 l 1.05094,-0.13506 v 0.74344 c 0,0.71167 0.0219,0.7379 0.65103,0.67304 0.6096,-0.0537 0.65238,-0.11297 0.71167,-0.88823 l 0.059,-0.83034 1.34202,-0.17241 c 1.3351,-0.17244 1.34059,-0.17244 1.40541,-0.8455 0.065,-0.67303 0.0593,-0.67303 -0.65235,-0.5503 -0.39309,0.0704 -1.02892,0.17788 -1.41646,0.24858 l -0.70067,0.11838 v -1.34199 c 0,-1.30338 -0.0164,-1.34615 -0.44688,-1.22753 -0.24829,0.065 -0.56544,0.12394 -0.70064,0.12394 -0.17759,0 -0.25268,0.3931 -0.25268,1.2813 0,1.49234 0.16671,1.39578 -2.93084,1.73512 -1.55166,0.1667 -2.1447,0.15579 -2.77503,-0.0483 -0.72686,-0.24282 -0.80271,-0.33374 -0.86204,-1.03442 -0.0334,-0.42066 0.0275,-1.02888 0.13915,-1.35167 0.18906,-0.53376 0.16805,-0.58201 -0.28002,-0.58201 -0.75851,0 -1.42196,1.68543 -1.16269,2.95155 z m 0.0593,-20.98916 c 0.23574,0.96408 0.80275,1.63714 1.82612,2.18608 0.75998,0.40412 1.10479,0.46341 2.48399,0.39998 3.32948,-0.14603 5.15009,-2.00952 5.18178,-5.30175 0.006,-0.79169 -0.0374,-1.48684 -0.10171,-1.55166 -0.0593,-0.0593 -0.38202,-0.0164 -0.7158,0.10171 l -0.60413,0.20982 0.0963,1.37369 c 0.0868,1.18619 0.0334,1.47715 -0.36002,2.11852 -1.15854,1.86886 -4.74182,2.26741 -6.08242,0.66756 -0.65234,-0.77101 -0.70067,-2.13918 -0.11294,-3.23292 0.215,-0.40964 0.39855,-0.78066 0.39855,-0.82342 0,-0.0388 -0.29103,-0.0164 -0.64687,0.0593 -1.08817,0.22047 -1.7723,2.12815 -1.36268,3.79288 z m -0.01,-20.06364 c 0.26323,1.03994 0.96403,1.82058 2.17639,2.41364 1.05514,0.5172 1.32542,0.56547 3.44813,0.55995 2.65633,0 3.77079,-0.29657 5.73203,-1.52959 2.7212,-1.71436 4.23424,-4.25628 4.67697,-7.8506 0.1072,-0.89371 0.269,-2.18738 0.36,-2.87706 0.0922,-0.68956 0.13505,-1.2868 0.0922,-1.3254 -0.0375,-0.0374 -0.49657,0.01 -1.01376,0.10756 -6.23826,1.17509 -11.73866,1.56815 -14.48195,1.04549 -0.50617,-0.0964 -0.53791,-0.0539 -0.6675,0.96405 -0.0704,0.58204 -0.17788,1.21789 -0.23167,1.41234 -0.0909,0.31719 0.0868,0.35032 1.81645,0.35032 1.04959,0 1.91161,0.0704 1.91161,0.15579 0,0.0813 -0.31719,0.32273 -0.70065,0.53373 -0.89925,0.47863 -2.4398,2.12264 -2.79015,2.96808 -0.36688,0.87307 -0.51726,2.31162 -0.32824,3.07162 z m 2.87152,-3.95982 c 0.52271,-0.69514 1.11442,-1.09924 2.95154,-2.02058 1.97784,-0.98613 2.58055,-1.19162 4.30456,-1.44954 1.09928,-0.16126 2.48402,-0.29653 3.07711,-0.30201 h 1.08269 l -0.11841,1.40129 c -0.23135,2.73638 -1.69092,4.87557 -4.05082,5.92101 -2.10746,0.92688 -5.07557,1.08268 -6.65477,0.33931 -1.39443,-0.65239 -1.66892,-2.46196 -0.5917,-3.88946 z m -2.10186,114.4321 c 5.56109,-0.88821 19.77265,-2.31574 23.08699,-2.31574 h 1.31437 l 0.12789,-4.05768 c 0.12391,-4.1529 0.006,-5.85068 -0.54894,-7.51543 -0.35029,-1.05099 -1.43855,-2.5102 -1.73512,-2.32677 -0.10753,0.063 -0.16671,0 -0.13345,-0.14588 0.032,-0.14456 -0.39451,-0.47998 -0.94895,-0.75447 -0.78616,-0.38202 -1.29781,-0.4841 -2.43569,-0.47443 -2.58052,0.0277 -4.81633,1.48268 -6.10315,3.9708 -0.36685,0.71166 -0.71165,1.29373 -0.77098,1.29373 -0.0589,0 -0.27455,-0.31861 -0.48961,-0.71167 -0.80273,-1.49237 -2.59158,-2.58605 -6.00793,-3.68533 -2.28402,-0.72684 -5.4797,-1.60545 -5.86724,-1.60545 -0.19341,0 -0.24252,0.39862 -0.19888,1.61647 l 0.0593,1.62193 2.66607,0.66757 c 4.76796,1.20133 6.72926,2.1875 7.54297,3.80398 0.32827,0.65785 0.40965,1.28815 0.46895,3.62043 l 0.065,2.82329 -0.76546,0.11837 c -0.68409,0.10171 -3.00121,0.28547 -8.42577,0.6565 l -1.65505,0.11837 v 3.39981 l 0.75444,-0.11837 z m 12.88205,-9.76219 c 0.46895,-2.19849 1.70333,-3.83564 3.31428,-4.38459 0.41927,-0.14588 1.31438,-0.26464 1.98199,-0.27009 1.57367,-0.01 2.62323,0.63583 3.31288,2.02609 0.41518,0.85099 0.48,1.30339 0.54478,3.78738 0.0537,2.31158 0.01,2.87157 -0.23735,3.11982 -0.20029,0.1989 -0.92686,0.35036 -2.17092,0.44135 -1.02338,0.0758 -3.01224,0.25402 -4.41768,0.39313 l -2.55434,0.25374 v -2.15573 c 0,-1.18476 0.10171,-2.62884 0.22591,-3.21085 z M 492.38015,-299.711 c 1.35161,-0.26873 4.14321,-0.5765 6.35137,-0.69379 l 2.40258,-0.12935 0.0593,-0.74892 c 0.0756,-0.88961 0.21117,-0.86753 -2.87713,-0.46896 -1.20124,0.15577 -3.15701,0.35033 -4.33629,0.42619 l -2.15572,0.13912 v 0.7917 c 0,0.75997 0.0275,0.79304 0.55585,0.68412 z m 0.0164,-21.53398 c 0.20435,0 2.07296,-0.23136 4.15289,-0.51165 2.16678,-0.29656 5.33901,-0.5655 7.41338,-0.63033 l 3.626,-0.11839 0.12391,-1.02338 c 0.23135,-1.90744 0.32825,-1.79437 -1.422,-1.65919 -0.85649,0.065 -2.54327,0.25262 -3.75565,0.41927 -2.06883,0.28135 -4.70321,0.52824 -8.75533,0.82479 l -1.75029,0.12935 v 1.2827 c 0,1.11442 0.0483,1.28132 0.36687,1.28132 v 0.006 z m 10.81733,20.18787 c 0.50622,0.79719 2.18748,-0.13505 1.902,-1.05653 -0.26332,-0.84545 -0.88274,-0.93651 -1.58891,-0.23135 -0.5172,0.52275 -0.59858,0.83579 -0.3131,1.28821 z m 7.66716,-22.69252 c 0.12394,0.22047 0.32275,0.46893 0.44138,0.54892 0.39858,0.26467 1.82057,0.1558 2.295,-0.17244 0.99167,-0.69515 1.24549,-2.43989 0.41517,-2.88259 -0.55999,-0.30069 -1.85369,-0.23135 -2.3654,0.12935 -0.41511,0.29108 -1.03442,1.40132 -1.0179,1.82063 0,0.0867 0.10753,0.33512 0.23162,0.55582 z m 37.2227,79.58027 c 1.5737,1.36819 4.31561,3.72808 6.08788,5.2535 l 3.22191,2.7626 -0.371,0.72823 c -0.73375,1.43854 -0.37239,3.68534 0.79168,4.91285 1.27717,1.34747 3.60943,1.76815 5.22042,0.94337 3.066,-1.56265 3.27565,-5.85622 0.38755,-7.76366 -0.72688,-0.48552 -1.02891,-0.5545 -2.35988,-0.5545 -1.10339,0 -1.67023,0.0963 -2.05231,0.34485 l -0.5282,0.35029 -4.78457,-5.55557 c -2.63436,-3.04943 -5.00388,-5.79687 -5.26864,-6.10444 l -0.48002,-0.55999 -1.36823,1.37928 -1.36815,1.38469 z m -1.49235,-68.62228 1.36266,1.34752 5.26456,-6.09896 5.25764,-6.10451 0.53374,0.35034 c 0.38208,0.25238 0.94339,0.35033 2.05231,0.35033 1.33097,0 1.633,-0.0704 2.35988,-0.55584 1.22336,-0.80685 1.89642,-1.93917 1.9985,-3.3446 0.20544,-2.8026 -1.62059,-4.80663 -4.36388,-4.80663 -1.89094,0 -3.39429,0.96961 -4.08808,2.63985 -0.39997,0.95442 -0.35586,2.79158 0.0802,3.65909 l 0.34482,0.67309 -5.16659,4.44524 c -2.84395,2.43981 -5.11283,4.53628 -5.04245,4.64939 0.0704,0.11297 0.032,0.15006 -0.0815,0.0745 -0.11838,-0.0691 -0.58755,0.2112 -1.04546,0.62064 l -0.83444,0.74891 1.36819,1.35165 z"
         style="fill:#0000ff;fill-opacity:1;fill-rule:nonzero;stroke:none;stroke-width:0.77266729;stroke-miterlimit:10;stroke-dasharray:none"
         id="path3546-4-5"
         inkscape:connector-curvature="0" /></g></g></svg>