<?xml version="1.0" encoding="UTF-8" standalone="no"?>
<!-- Created with Inkscape (http://www.inkscape.org/) -->

<svg
   xmlns:dc="http://purl.org/dc/elements/1.1/"
   xmlns:cc="http://creativecommons.org/ns#"
   xmlns:rdf="http://www.w3.org/1999/02/22-rdf-syntax-ns#"
   xmlns:svg="http://www.w3.org/2000/svg"
   xmlns="http://www.w3.org/2000/svg"
   xmlns:sodipodi="http://sodipodi.sourceforge.net/DTD/sodipodi-0.dtd"
   xmlns:inkscape="http://www.inkscape.org/namespaces/inkscape"
   version="1.1"
   id="svg4485"
   xml:space="preserve"
   width="130mm"
   height="190.44939mm"
   viewBox="0 0 491.33862 719.80874"
   sodipodi:docname="Base_1.0.svg"
   inkscape:version="0.92.1 r15371"><metadata
     id="metadata4491"><rdf:RDF><cc:Work
         rdf:about=""><dc:format>image/svg+xml</dc:format><dc:type
           rdf:resource="http://purl.org/dc/dcmitype/StillImage" /><dc:title /></cc:Work></rdf:RDF></metadata><defs
     id="defs4489"><clipPath
       clipPathUnits="userSpaceOnUse"
       id="clipPath4501"><path
         d="M 0,0 H 792 V 612 H 0 Z"
         id="path4499"
         inkscape:connector-curvature="0" /></clipPath></defs><sodipodi:namedview
     pagecolor="#ffffff"
     bordercolor="#666666"
     borderopacity="1"
     objecttolerance="10"
     gridtolerance="10"
     guidetolerance="10"
     inkscape:pageopacity="0"
     inkscape:pageshadow="2"
     inkscape:window-width="1920"
     inkscape:window-height="1017"
     id="namedview4487"
     showgrid="false"
     units="mm"
     fit-margin-top="10"
     fit-margin-left="10"
     fit-margin-right="10"
     fit-margin-bottom="10"
     inkscape:document-units="mm"
     showguides="true"
     inkscape:guide-bbox="true"
     inkscape:zoom="1"
     inkscape:cx="307.49668"
     inkscape:cy="344.93859"
     inkscape:window-x="-8"
     inkscape:window-y="-8"
     inkscape:window-maximized="1"
     inkscape:current-layer="g4493" /><g
     id="g4493"
     inkscape:groupmode="layer"
     inkscape:label="Base Drawing 1 (2)"
     transform="matrix(1.3333333,0,0,-1.3333333,-365.30798,918.35076)"><g
       id="g4495"
       style="stroke:#ff0000;stroke-width:0.14199366;stroke-miterlimit:9.33333302;stroke-dasharray:none;stroke-opacity:1"
       transform="matrix(-1.9999709,0,0,1.9999709,1219.3548,-177.2481)"><g
         id="g4497"
         clip-path="url(#clipPath4501)"
         style="stroke:#ff0000;stroke-width:0.14199366;stroke-miterlimit:9.33333302;stroke-dasharray:none;stroke-opacity:1"><path
           d="m 338.78619,254.30384 h -7.08662"
           style="fill:none;stroke:#ff0000;stroke-width:0.14199366;stroke-linecap:round;stroke-linejoin:round;stroke-miterlimit:9.33333302;stroke-dasharray:none;stroke-opacity:1"
           id="path4503"
           inkscape:connector-curvature="0" /><path
           d="M 331.69957,254.30384 V 242.96525"
           style="fill:none;stroke:#ff0000;stroke-width:0.14199366;stroke-linecap:round;stroke-linejoin:round;stroke-miterlimit:9.33333302;stroke-dasharray:none;stroke-opacity:1"
           id="path4505"
           inkscape:connector-curvature="0" /><path
           d="m 338.78619,242.96525 h -7.08662"
           style="fill:none;stroke:#ff0000;stroke-width:0.14199366;stroke-linecap:round;stroke-linejoin:round;stroke-miterlimit:9.33333302;stroke-dasharray:none;stroke-opacity:1"
           id="path4507"
           inkscape:connector-curvature="0" /><path
           d="M 338.78619,254.30384 V 242.96525"
           style="fill:none;stroke:#ff0000;stroke-width:0.14199366;stroke-linecap:round;stroke-linejoin:round;stroke-miterlimit:9.33333302;stroke-dasharray:none;stroke-opacity:1"
           id="path4509"
           inkscape:connector-curvature="0" /><path
           d="m 410.72314,323.07599 h 7.08661"
           style="fill:none;stroke:#ff0000;stroke-width:0.14199366;stroke-linecap:round;stroke-linejoin:round;stroke-miterlimit:9.33333302;stroke-dasharray:none;stroke-opacity:1"
           id="path4511"
           inkscape:connector-curvature="0" /><path
           d="m 417.80975,323.07599 v 11.33859"
           style="fill:none;stroke:#ff0000;stroke-width:0.14199366;stroke-linecap:round;stroke-linejoin:round;stroke-miterlimit:9.33333302;stroke-dasharray:none;stroke-opacity:1"
           id="path4513"
           inkscape:connector-curvature="0" /><path
           d="m 410.72314,334.41458 h 7.08661"
           style="fill:none;stroke:#ff0000;stroke-width:0.14199366;stroke-linecap:round;stroke-linejoin:round;stroke-miterlimit:9.33333302;stroke-dasharray:none;stroke-opacity:1"
           id="path4515"
           inkscape:connector-curvature="0" /><path
           d="m 410.72314,323.07599 v 11.33859"
           style="fill:none;stroke:#ff0000;stroke-width:0.14199366;stroke-linecap:round;stroke-linejoin:round;stroke-miterlimit:9.33333302;stroke-dasharray:none;stroke-opacity:1"
           id="path4517"
           inkscape:connector-curvature="0" /><path
           d="m 422.06172,334.41458 h 7.08661"
           style="fill:none;stroke:#ff0000;stroke-width:0.14199366;stroke-linecap:round;stroke-linejoin:round;stroke-miterlimit:9.33333302;stroke-dasharray:none;stroke-opacity:1"
           id="path4519"
           inkscape:connector-curvature="0" /><path
           d="m 422.06172,323.07599 v 11.33859"
           style="fill:none;stroke:#ff0000;stroke-width:0.14199366;stroke-linecap:round;stroke-linejoin:round;stroke-miterlimit:9.33333302;stroke-dasharray:none;stroke-opacity:1"
           id="path4521"
           inkscape:connector-curvature="0" /><path
           d="m 422.06172,323.07599 h 7.08661"
           style="fill:none;stroke:#ff0000;stroke-width:0.14199366;stroke-linecap:round;stroke-linejoin:round;stroke-miterlimit:9.33333302;stroke-dasharray:none;stroke-opacity:1"
           id="path4523"
           inkscape:connector-curvature="0" /><path
           d="m 429.14833,323.07599 v 11.33859"
           style="fill:none;stroke:#ff0000;stroke-width:0.14199366;stroke-linecap:round;stroke-linejoin:round;stroke-miterlimit:9.33333302;stroke-dasharray:none;stroke-opacity:1"
           id="path4525"
           inkscape:connector-curvature="0" /><path
           d="m 405.11906,251.22783 c 0,-0.97846 0.79319,-1.77166 1.77165,-1.77166 0.97846,0 1.77165,0.7932 1.77165,1.77166 0,0.97845 -0.79319,1.77165 -1.77165,1.77165 -0.97846,0 -1.77165,-0.7932 -1.77165,-1.77165"
           style="fill:none;stroke:#ff0000;stroke-width:0.14199366;stroke-linecap:round;stroke-linejoin:round;stroke-miterlimit:9.33333302;stroke-dasharray:none;stroke-opacity:1"
           id="path4531"
           inkscape:connector-curvature="0" /><path
           d="m 322.91433,251.22783 c 0,-0.97846 0.7932,-1.77166 1.77166,-1.77166 0.97845,0 1.77165,0.7932 1.77165,1.77166 0,0.97845 -0.7932,1.77165 -1.77165,1.77165 -0.97846,0 -1.77166,-0.7932 -1.77166,-1.77165"
           style="fill:none;stroke:#ff0000;stroke-width:0.14199366;stroke-linecap:round;stroke-linejoin:round;stroke-miterlimit:9.33333302;stroke-dasharray:none;stroke-opacity:1"
           id="path4533"
           inkscape:connector-curvature="0" /><path
           d="m 405.11906,320.67665 c 0,-0.97846 0.79319,-1.77166 1.77165,-1.77166 0.97846,0 1.77165,0.7932 1.77165,1.77166 0,0.97845 -0.79319,1.77165 -1.77165,1.77165 -0.97846,0 -1.77165,-0.7932 -1.77165,-1.77165"
           style="fill:none;stroke:#ff0000;stroke-width:0.14199366;stroke-linecap:round;stroke-linejoin:round;stroke-miterlimit:9.33333302;stroke-dasharray:none;stroke-opacity:1"
           id="path4535"
           inkscape:connector-curvature="0" /><path
           d="m 322.91433,320.67665 c 0,-0.97846 0.7932,-1.77166 1.77166,-1.77166 0.97845,0 1.77165,0.7932 1.77165,1.77166 0,0.97845 -0.7932,1.77165 -1.77165,1.77165 -0.97846,0 -1.77166,-0.7932 -1.77166,-1.77165"
           style="fill:none;stroke:#ff0000;stroke-width:0.14199366;stroke-linecap:round;stroke-linejoin:round;stroke-miterlimit:9.33333302;stroke-dasharray:none;stroke-opacity:1"
           id="path4537"
           inkscape:connector-curvature="0" /><path
           d="m 430.10083,375.22597 c 0,-1.52639 1.23739,-2.76378 2.76378,-2.76378 1.5264,0 2.76378,1.23739 2.76378,2.76378 0,1.52639 -1.23738,2.76378 -2.76378,2.76378 -1.52639,0 -2.76378,-1.23739 -2.76378,-2.76378"
           style="fill:none;stroke:#ff0000;stroke-width:0.14199366;stroke-linecap:round;stroke-linejoin:round;stroke-miterlimit:9.33333302;stroke-dasharray:none;stroke-opacity:1"
           id="path4539"
           inkscape:connector-curvature="0" /><path
           d="m 413.09284,375.22597 c 0,-1.52639 1.23739,-2.76378 2.76378,-2.76378 1.5264,0 2.76378,1.23739 2.76378,2.76378 0,1.52639 -1.23738,2.76378 -2.76378,2.76378 -1.52639,0 -2.76378,-1.23739 -2.76378,-2.76378"
           style="fill:none;stroke:#ff0000;stroke-width:0.14199366;stroke-linecap:round;stroke-linejoin:round;stroke-miterlimit:9.33333302;stroke-dasharray:none;stroke-opacity:1"
           id="path4541"
           inkscape:connector-curvature="0" /><path
           d="m 430.10083,349.71416 c 0,-1.52639 1.23739,-2.76378 2.76378,-2.76378 1.5264,0 2.76378,1.23739 2.76378,2.76378 0,1.52639 -1.23738,2.76378 -2.76378,2.76378 -1.52639,0 -2.76378,-1.23739 -2.76378,-2.76378"
           style="fill:none;stroke:#ff0000;stroke-width:0.14199366;stroke-linecap:round;stroke-linejoin:round;stroke-miterlimit:9.33333302;stroke-dasharray:none;stroke-opacity:1"
           id="path4543"
           inkscape:connector-curvature="0" /><path
           d="m 413.09284,349.71416 c 0,-1.52639 1.23739,-2.76378 2.76378,-2.76378 1.5264,0 2.76378,1.23739 2.76378,2.76378 0,1.52639 -1.23738,2.76378 -2.76378,2.76378 -1.52639,0 -2.76378,-1.23739 -2.76378,-2.76378"
           style="fill:none;stroke:#ff0000;stroke-width:0.14199366;stroke-linecap:round;stroke-linejoin:round;stroke-miterlimit:9.33333302;stroke-dasharray:none;stroke-opacity:1"
           id="path4545"
           inkscape:connector-curvature="0" /><path
           d="m 342.22682,375.22597 c 0,-1.52639 1.23738,-2.76378 2.76378,-2.76378 1.52639,0 2.76378,1.23739 2.76378,2.76378 0,1.52639 -1.23739,2.76378 -2.76378,2.76378 -1.5264,0 -2.76378,-1.23739 -2.76378,-2.76378"
           style="fill:none;stroke:#ff0000;stroke-width:0.14199366;stroke-linecap:round;stroke-linejoin:round;stroke-miterlimit:9.33333302;stroke-dasharray:none;stroke-opacity:1"
           id="path4547"
           inkscape:connector-curvature="0" /><path
           d="m 325.21883,375.22597 c 0,-1.52639 1.23739,-2.76378 2.76378,-2.76378 1.52639,0 2.76378,1.23739 2.76378,2.76378 0,1.52639 -1.23739,2.76378 -2.76378,2.76378 -1.52639,0 -2.76378,-1.23739 -2.76378,-2.76378"
           style="fill:none;stroke:#ff0000;stroke-width:0.14199366;stroke-linecap:round;stroke-linejoin:round;stroke-miterlimit:9.33333302;stroke-dasharray:none;stroke-opacity:1"
           id="path4549"
           inkscape:connector-curvature="0" /><path
           d="m 325.21883,349.71416 c 0,-1.52639 1.23739,-2.76378 2.76378,-2.76378 1.52639,0 2.76378,1.23739 2.76378,2.76378 0,1.52639 -1.23739,2.76378 -2.76378,2.76378 -1.52639,0 -2.76378,-1.23739 -2.76378,-2.76378"
           style="fill:none;stroke:#ff0000;stroke-width:0.14199366;stroke-linecap:round;stroke-linejoin:round;stroke-miterlimit:9.33333302;stroke-dasharray:none;stroke-opacity:1"
           id="path4551"
           inkscape:connector-curvature="0" /><path
           d="m 342.22682,349.71416 c 0,-1.52639 1.23738,-2.76378 2.76378,-2.76378 1.52639,0 2.76378,1.23739 2.76378,2.76378 0,1.52639 -1.23739,2.76378 -2.76378,2.76378 -1.5264,0 -2.76378,-1.23739 -2.76378,-2.76378"
           style="fill:none;stroke:#ff0000;stroke-width:0.14199366;stroke-linecap:round;stroke-linejoin:round;stroke-miterlimit:9.33333302;stroke-dasharray:none;stroke-opacity:1"
           id="path4553"
           inkscape:connector-curvature="0" /><path
           d="m 302.4712,263.23104 0.10161,-0.27932 0.10185,-0.27914 0.10208,-0.27896 0.10231,-0.27876 0.10254,-0.27858 0.10278,-0.27839 0.103,-0.27821 0.10324,-0.278 0.10347,-0.27782 0.1037,-0.27762 0.10393,-0.27742 0.10417,-0.27723 0.1044,-0.27703 0.10462,-0.27683 0.10486,-0.27662 0.1051,-0.27642 0.10532,-0.27622 0.10556,-0.27601 0.10579,-0.2758 0.10602,-0.27559 0.10625,-0.27539 0.10649,-0.27517 0.10672,-0.27495 0.10695,-0.27474 0.10718,-0.27453 0.10742,-0.2743 0.10764,-0.27409 0.10788,-0.27387 0.10812,-0.27364 0.10834,-0.27342 0.10858,-0.27319 0.10881,-0.27297 0.10904,-0.27274 0.10928,-0.2725 0.1095,-0.27228 0.10974,-0.27204 0.10998,-0.27181 0.1102,-0.27157 0.11044,-0.27134 0.11067,-0.2711 0.1109,-0.27085 0.11114,-0.27062 0.11136,-0.27037 0.1116,-0.27012 0.11184,-0.26988 0.11206,-0.26963 0.1123,-0.26938 0.11253,-0.26913 0.11276,-0.26888 0.113,-0.26862 0.11322,-0.26837 0.11346,-0.26811 0.11369,-0.26786 0.11393,-0.26759 0.11416,-0.26733 0.11438,-0.26706 0.11463,-0.26681 0.11485,-0.26653 0.11508,-0.26627 0.11532,-0.266 0.11555,-0.26573 0.11578,-0.26545 0.11602,-0.26518 0.11624,-0.26491 0.11648,-0.26463 0.11671,-0.26435 0.11694,-0.26407 0.11717,-0.26379 0.11741,-0.2635 0.11763,-0.26322 0.11787,-0.26294 0.1181,-0.26264 0.11833,-0.26236 0.11856,-0.26206 0.1188,-0.26177 0.11902,-0.26148 0.11926,-0.26119 0.11948,-0.26088 0.11972,-0.26059 0.11995,-0.26029 0.12018,-0.25998 0.12041,-0.25968 0.12064,-0.25938 0.12087,-0.25907 0.1211,-0.25876 0.12134,-0.25845 0.12156,-0.25814 0.12179,-0.25782 0.12202,-0.25752 0.12226,-0.25719 0.12248,-0.25688 0.12271,-0.25656 0.12295,-0.25624 0.12317,-0.25592 0.1234,-0.25559 0.12363,-0.25526 0.12386,-0.25494 0.12409,-0.25461 0.12432,-0.25428 0.12455,-0.25395 0.12477,-0.25362 0.12501,-0.25328 0.12523,-0.25294 0.12546,-0.25261 0.12569,-0.25226 0.12592,-0.25192 0.12615,-0.25159 0.12637,-0.25123 0.1266,-0.25089 0.12683,-0.25054 0.12706,-0.2502 0.12728,-0.24984 0.12751,-0.24949 0.12774,-0.24913 0.12797,-0.24878 0.12819,-0.24842 0.12842,-0.24807 0.12864,-0.2477 0.12888,-0.24734 0.12909,-0.24698 0.12933,-0.24661 0.12955,-0.24625 0.12977,-0.24587 0.13,-0.24551 0.13022,-0.24513 0.13046,-0.24476 0.13067,-0.24439 0.1309,-0.24401 0.13112,-0.24363 0.13135,-0.24325 0.13158,-0.24287 0.13179,-0.24249 0.13202,-0.2421 0.13225,-0.24172 0.13246,-0.24133 0.13269,-0.24094 0.13292,-0.24055 0.13313,-0.24015 0.13336,-0.23977 0.13358,-0.23936 0.13381,-0.23897 0.13402,-0.23857 0.13425,-0.23817 0.13447,-0.23777 0.13469,-0.23736 0.13491,-0.23696 0.13513,-0.23655 0.13535,-0.23614 0.13557,-0.23574 0.13579,-0.23532 0.13602,-0.23491 0.13623,-0.23449 0.13645,-0.23407 0.13667,-0.23366 0.13689,-0.23324 0.13711,-0.23282 0.13732,-0.23239 0.13755,-0.23197 0.13776,-0.23154 0.13798,-0.23112 0.1382,-0.23069 0.13842,-0.23025 0.13863,-0.22982 0.13885,-0.22939 0.13906,-0.22895 0.13928,-0.22852 0.1395,-0.22808 0.13971,-0.22763 0.13993,-0.2272 0.14014,-0.22674 0.14036,-0.22631 0.14057,-0.22586 0.14079,-0.22541 0.141,-0.22496 0.14121,-0.2245 0.14143,-0.22406 0.14164,-0.2236 0.14185,-0.22314 0.14207,-0.22269 0.14228,-0.22222 0.14249,-0.22177 0.1427,-0.2213 0.14291,-0.22083 0.14312,-0.22038 0.14334,-0.2199 0.14354,-0.21943 0.14375,-0.21897 0.14397,-0.21849 0.14417,-0.21802 0.14438,-0.21754 0.14459,-0.21707 0.1448,-0.21658 0.14501,-0.21611 0.14521,-0.21562 0.14542,-0.21515 0.14563,-0.21465 0.14584,-0.21417 0.14604,-0.21369 0.14625,-0.21319 0.14645,-0.2127 0.14666,-0.21221 0.14686,-0.21172 0.14707,-0.21122 0.14727,-0.21072 0.14748,-0.21022 0.14768,-0.20973 0.14788,-0.20922 0.14808,-0.20871 0.14829,-0.20822 0.14849,-0.2077 0.14869,-0.2072 0.14889,-0.20669 0.1491,-0.20617 0.14929,-0.20567 0.1495,-0.20515 0.14969,-0.20463 0.14989,-0.20412 0.075,-0.10186 0.0751,-0.10173 0.0751,-0.10161 0.0752,-0.10147 0.0752,-0.10134 0.0753,-0.10121 0.0753,-0.10109 0.0754,-0.10095 0.0754,-0.10081 0.0755,-0.10069 0.0755,-0.10056 0.0756,-0.10042 0.0756,-0.10029 0.0757,-0.10016 0.0757,-0.10003 0.0758,-0.0999 0.0758,-0.0998 0.0759,-0.0996 0.0759,-0.0995 0.076,-0.0994 0.076,-0.0992 0.0761,-0.0991 0.0761,-0.099 0.0761,-0.0988 0.0762,-0.0987 0.0763,-0.0986 0.0763,-0.0984 0.0763,-0.0983 0.0764,-0.0982 0.0764,-0.098 0.0765,-0.0979 0.0765,-0.0978 0.0766,-0.0976 0.0766,-0.0975 0.0767,-0.0973 0.0767,-0.0972 0.0768,-0.0971 0.0768,-0.0969 0.0769,-0.0968 0.0769,-0.0967 0.077,-0.0965 0.077,-0.0964 0.0771,-0.0962 0.0771,-0.0961 0.0772,-0.096 0.0772,-0.0958 0.0773,-0.0957 0.0773,-0.0956 0.0774,-0.0954 0.0774,-0.0953 0.0774,-0.0951 0.0775,-0.095 0.0775,-0.0949 0.0776,-0.0947 0.0776,-0.0946 0.0777,-0.0944 0.0777,-0.0943 0.0778,-0.0942 0.0778,-0.094 0.0779,-0.0939 0.0779,-0.0937 0.0779,-0.0936 0.078,-0.0934 0.0781,-0.0933 0.0781,-0.0932 0.0781,-0.093 0.0782,-0.0929 0.0782,-0.0927 0.0783,-0.0926 0.0783,-0.0925 0.0784,-0.0923 0.0784,-0.0922 0.0785,-0.092 0.0785,-0.0919 0.0786,-0.0917 0.0786,-0.0916 0.0787,-0.0915 0.0787,-0.0913 0.0787,-0.0912 0.0788,-0.091 0.0788,-0.0909 0.0789,-0.0907 0.0789,-0.0906 0.079,-0.0904 0.079,-0.0903 0.079,-0.0902 0.0791,-0.09 0.0792,-0.0899 0.0792,-0.0897 0.0792,-0.0896 0.0793,-0.0894 0.0793,-0.0893 0.0794,-0.0891 0.0794,-0.089 0.0795,-0.0888 0.0795,-0.0887 0.0795,-0.0885 0.0796,-0.0884 0.0796,-0.0882 0.0797,-0.0881 0.0797,-0.0879 0.0798,-0.0878 0.0798,-0.0877 0.0799,-0.0875 0.0799,-0.0874 0.0799,-0.0872 0.08,-0.0871 0.08,-0.0869 0.0801,-0.0868 0.0801,-0.0866 0.0802,-0.0865 0.0802,-0.0863 0.0803,-0.0862 0.0803,-0.086 0.0803,-0.0858 0.0804,-0.0857 0.0804,-0.0856 0.0805,-0.0854 0.0805,-0.0853 0.0806,-0.0851 0.0806,-0.0849 0.0806,-0.0848 0.0807,-0.0847 0.0807,-0.0845 0.0808,-0.0843 0.0808,-0.0842 0.0808,-0.084 0.0809,-0.0839 0.0809,-0.0837 0.081,-0.0836 0.081,-0.0834 0.0811,-0.0833 0.0811,-0.0831 0.0811,-0.083 0.0812,-0.0828 0.0812,-0.0827 0.0813,-0.0825 0.0813,-0.0823 0.0813,-0.0822 0.0814,-0.082 0.0814,-0.0819 0.0815,-0.0817 0.0815,-0.0816 0.0815,-0.0814 0.0816,-0.0813 0.0816,-0.0811 0.0817,-0.0809 0.0817,-0.0808 0.0818,-0.0806 0.0818,-0.0805 0.0818,-0.0803 0.0819,-0.0802 0.0819,-0.08 0.082,-0.0798 0.082,-0.0797 0.082,-0.0795 0.0821,-0.0794 0.0821,-0.0792 0.0822,-0.0791 0.0822,-0.0789 0.0822,-0.0787 0.0823,-0.0786 0.0823,-0.0784 0.0824,-0.0783 0.0824,-0.0781 0.0824,-0.078 0.0825,-0.0778 0.0825,-0.0776 0.0826,-0.0775 0.0826,-0.0773 0.0826,-0.0771 0.0827,-0.077 0.0827,-0.0768 0.0828,-0.0767 0.0828,-0.0765 0.0828,-0.0764 0.0829,-0.0762 0.0829,-0.076 0.083,-0.0759 0.083,-0.0757 0.083,-0.0755 0.0831,-0.0754 0.0831,-0.0752 0.0831,-0.0751 0.0832,-0.0749 0.0832,-0.0747 0.0833,-0.0746 0.0833,-0.0744 0.0833,-0.0742 0.0834,-0.0741 0.0834,-0.0739 0.0835,-0.0738 0.0835,-0.0736 0.0835,-0.0734 0.0836,-0.0733 0.0836,-0.0731 0.0836,-0.0729 0.0837,-0.0728 0.0837,-0.0726 0.0838,-0.0724 0.0838,-0.0723 0.0838,-0.0721 0.0839,-0.0719 0.0839,-0.0718 0.0839,-0.0716 0.084,-0.0715 0.084,-0.0713 0.084,-0.0711 0.0841,-0.071 0.0841,-0.0708 0.0841,-0.0706 0.0842,-0.0705 0.0842,-0.0703 0.0843,-0.0701 0.0843,-0.07 0.0843,-0.0698 0.0844,-0.0696 0.0844,-0.0694 0.0845,-0.0693 0.0845,-0.0691 0.0845,-0.069 0.0845,-0.0688 0.0846,-0.0686 0.0846,-0.0684 0.0847,-0.0683 0.0847,-0.0681 0.0847,-0.0679 0.0848,-0.0678 0.0848,-0.0676 0.0848,-0.0674 0.0849,-0.0673 0.0849,-0.0671 0.0849,-0.0669 0.085,-0.0668 0.085,-0.0666 0.085,-0.0664 0.0851,-0.0662 0.0851,-0.0661 0.0851,-0.0659 0.0852,-0.0657 0.0852,-0.0656 0.0852,-0.0654 0.0853,-0.0652 0.0853,-0.0651 0.0853,-0.0649 0.0854,-0.0647 0.0854,-0.0645 0.0854,-0.0644 0.0855,-0.0642 0.0855,-0.064 0.0855,-0.0639 0.0856,-0.0637 0.0856,-0.0635 0.0856,-0.0633 0.0857,-0.0632 0.0857,-0.063 0.0857,-0.0628 0.0858,-0.0627 0.0858,-0.0625 0.0858,-0.0623 0.0859,-0.0621 0.0859,-0.062 0.0859,-0.0618 0.086,-0.0616 0.086,-0.0614 0.086,-0.0613 0.0861,-0.0611 0.0861,-0.0609 0.0861,-0.0607 0.0862,-0.0606 0.0862,-0.0604 0.0862,-0.0602 0.0863,-0.06 0.0863,-0.0599 0.0863,-0.0597 0.0863,-0.0595 0.0864,-0.0593 0.0864,-0.0592 0.0864,-0.059 0.0865,-0.0588 0.0865,-0.0586 0.0865,-0.0585 0.0866,-0.0583 0.0866,-0.0581 0.0866,-0.0579 0.0867,-0.0578 0.0867,-0.0576 0.0867,-0.0574 0.0867,-0.0572 0.0868,-0.0571 0.0868,-0.0569 0.0868,-0.0567 0.0869,-0.0565 0.0869,-0.0564 0.0869,-0.0562 0.0869,-0.056 0.087,-0.0558 0.087,-0.0556 0.087,-0.0555 0.0871,-0.0553 0.0871,-0.0551 0.0871,-0.0549 0.0872,-0.0547 0.0872,-0.0546 0.0872,-0.0544 0.0872,-0.0542 0.0872,-0.054 0.0873,-0.0539 0.0873,-0.0537 0.0873,-0.0535 0.0874,-0.0533 0.0874,-0.0531 0.0874,-0.053 0.0874,-0.0528 0.0875,-0.0526 0.0875,-0.0524 0.0875,-0.0522 0.0876,-0.0521 0.0876,-0.0519 0.0876,-0.0517 0.0876,-0.0515 0.0877,-0.0513 0.0877,-0.0512 0.0877,-0.051 0.0877,-0.0508 0.0878,-0.0506 0.0878,-0.0504 0.0878,-0.0502 0.0879,-0.0501 0.0879,-0.0499 0.0879,-0.0497 0.0879,-0.0495 0.088,-0.0493 0.088,-0.0492 0.088,-0.049 0.088,-0.0488 0.0881,-0.0486 0.0881,-0.0484 0.0881,-0.0482 0.0881,-0.048 0.0882,-0.0479 0.0882,-0.0477 0.0882,-0.0475 0.0882,-0.0473 0.0883,-0.0471 0.0883,-0.047 0.0883,-0.0468 0.0883,-0.0466 0.0884,-0.0464 0.0884,-0.0462 0.0884,-0.046 0.0884,-0.0459 0.0885,-0.0457 0.0885,-0.0455 0.0885,-0.0453 0.0885,-0.0451 0.0885,-0.0449 0.0886,-0.0447 0.0886,-0.0446 0.0886,-0.0444 0.0886,-0.0442 0.0887,-0.044 0.0887,-0.0438 0.0887,-0.0436 0.0887,-0.0435 0.0888,-0.0433 0.0888,-0.0431 0.0888,-0.0429 0.0888,-0.0427 0.0888,-0.0425 0.0889,-0.0423 0.0889,-0.0421 0.0889,-0.042 0.0889,-0.0418 0.0889,-0.0416 0.089,-0.0414 0.089,-0.0412 0.089,-0.041 0.089,-0.0409 0.0891,-0.0407 0.0891,-0.0405 0.0891,-0.0403 0.0891,-0.0401 0.0891,-0.0399 0.0892,-0.0397 0.0892,-0.0395 0.0892,-0.0394 0.0892,-0.0392 0.0893,-0.039 0.0893,-0.0388 0.0893,-0.0386 0.0893,-0.0384 0.0893,-0.0382 0.0894,-0.038 0.0894,-0.0379 0.0894,-0.0377 0.0894,-0.0375 0.0894,-0.0373 0.0894,-0.0371 0.0895,-0.0369 0.0895,-0.0367 0.0895,-0.0365 0.0895,-0.0363 0.0895,-0.0362 0.0896,-0.036 0.0896,-0.0358 0.0896,-0.0356 0.0896,-0.0354 0.0897,-0.0352 0.0897,-0.035 0.0897,-0.0348 0.0897,-0.0346 0.0897,-0.0344 0.0897,-0.0343 0.0898,-0.0341 0.0898,-0.0339 0.0898,-0.0337 0.0898,-0.0335 0.0898,-0.0333 0.0899,-0.0331 0.0899,-0.0329 0.0899,-0.0327 0.0899,-0.0326 0.0899,-0.0324 0.0899,-0.0322 0.0899,-0.032 0.09,-0.0318 0.09,-0.0316 0.09,-0.0314 0.09,-0.0312 0.09,-0.031 0.0901,-0.0309 0.0901,-0.0306 0.0901,-0.0305 0.0901,-0.0303 0.0901,-0.0301 0.0901,-0.0299 0.0901,-0.0297 0.0902,-0.0295 0.0902,-0.0293 0.0902,-0.0291 0.0902,-0.0289 0.0902,-0.0287 0.0902,-0.0285 0.0902,-0.0284 0.0903,-0.0282 0.0903,-0.028 0.0903,-0.0278 0.0903,-0.0276 0.0903,-0.0274 0.0903,-0.0272 0.0904,-0.027 0.0904,-0.0268 0.0904,-0.0266 0.0904,-0.0264 0.0904,-0.0262 0.0904,-0.026 0.0904,-0.0259 0.0905,-0.0257 0.0905,-0.0255 0.0905,-0.0253 0.0905,-0.0251 0.0905,-0.0249 0.0905,-0.0247 0.0905,-0.0245 0.0906,-0.0243 0.0906,-0.0241 0.0906,-0.0239 0.0906,-0.0237 0.0906,-0.0235 0.0906,-0.0233 0.0906,-0.0232 0.0906,-0.023 0.0906,-0.0228 0.0906,-0.0226 0.0907,-0.0224 0.0907,-0.0222 0.0907,-0.022 0.0907,-0.0218 0.0907,-0.0216 0.0907,-0.0214 0.0907,-0.0212 0.0907,-0.021 0.0908,-0.0208 0.0908,-0.0206 0.0908,-0.0205 0.0908,-0.0203 0.0908,-0.02 0.0908,-0.0199 0.0908,-0.0197 0.0908,-0.0195 0.0908,-0.0193 0.0909,-0.0191 0.0909,-0.0189 0.0909,-0.0187 0.0909,-0.0185 0.0909,-0.0183 0.0909,-0.0181 0.0909,-0.0179 0.0909,-0.0177 0.0909,-0.0175 0.0909,-0.0173 0.091,-0.0171 0.091,-0.0169 0.091,-0.0168 0.091,-0.0166 0.091,-0.0164 0.091,-0.0162 0.091,-0.016 0.091,-0.0158 0.091,-0.0156 0.091,-0.0154 0.091,-0.0152 0.091,-0.015 0.091,-0.0148 0.0911,-0.0146 0.0911,-0.0144 0.0911,-0.0142 0.0911,-0.014 0.0911,-0.0138 0.0911,-0.0136 0.0911,-0.0134 0.0911,-0.0132 0.0911,-0.013 0.0911,-0.0129 0.0911,-0.0127 0.0911,-0.0125 0.0911,-0.0123 0.0912,-0.0121 0.0912,-0.0119 0.0912,-0.0117 0.0912,-0.0115 0.0912,-0.0113 0.0912,-0.0111 0.0912,-0.0109 0.0912,-0.0107 0.0912,-0.0105 0.0912,-0.0103 0.0912,-0.0101 0.0912,-0.01 0.0912,-0.01 0.0912,-0.01 0.0912,-0.009 0.0912,-0.009 0.0912,-0.009 0.0913,-0.009 0.0913,-0.009 0.0913,-0.008 0.0913,-0.008 0.0913,-0.008 0.0913,-0.008 0.0913,-0.008 0.0913,-0.007 0.0913,-0.007 0.0913,-0.007 0.0913,-0.007 0.0913,-0.007 0.0913,-0.006 0.0913,-0.006 0.0913,-0.006 0.0913,-0.006 0.0913,-0.006 0.0913,-0.005 0.0913,-0.005 0.0913,-0.005 0.0913,-0.005 0.0913,-0.005 0.0913,-0.004 0.0913,-0.004 0.0913,-0.004 0.0913,-0.004 0.0913,-0.004 0.0913,-0.003 0.0913,-0.003 0.0913,-0.003 0.0913,-0.003 0.0913,-0.003 0.0913,-0.002 0.0914,-0.002 0.0913,-0.002 0.0913,-0.002 0.0913,-0.002 0.0913,-0.001 0.0914,-0.001 0.0913,-0.001 0.0914,-8.9e-4 0.0913,-6.8e-4 0.0913,-4.9e-4 0.0914,-3e-4 0.0913,-1e-4 0.0914,1e-4 0.0914,3e-4 0.0914,4.9e-4 0.0913,6.8e-4 0.0914,8.9e-4 0.0913,0.001 0.0913,0.001 0.0913,0.001 0.0914,0.002 0.0913,0.002 0.0913,0.002 0.0913,0.002 0.0913,0.002 0.0913,0.003 0.0913,0.003 0.0913,0.003 0.0913,0.003 0.0913,0.003 0.0913,0.004 0.0913,0.004 0.0913,0.004 0.0913,0.004 0.0913,0.004 0.0913,0.005 0.0913,0.005 0.0913,0.005 0.0913,0.005 0.0913,0.005 0.0913,0.006 0.0913,0.006 0.0913,0.006 0.0913,0.006 0.0913,0.006 0.0913,0.007 0.0913,0.007 0.0913,0.007 0.0913,0.007 0.0913,0.007 0.0913,0.008 0.0913,0.008 0.0913,0.008 0.0913,0.008 0.0913,0.008 0.0913,0.009 0.0913,0.009 0.0912,0.009 0.0912,0.009 0.0912,0.009 0.0912,0.01 0.0912,0.01 0.0912,0.01 0.0912,0.0101 0.0912,0.0103 0.0912,0.0105 0.0912,0.0107 0.0912,0.0109 0.0912,0.0111 0.0912,0.0113 0.0912,0.0115 0.0912,0.0117 0.0912,0.0119 0.0911,0.0121 0.0912,0.0123 0.0911,0.0125 0.0911,0.0127 0.0911,0.0129 0.0911,0.013 0.0911,0.0132 0.0911,0.0134 0.0911,0.0136 0.0911,0.0138 0.0911,0.014 0.0911,0.0142 0.0911,0.0144 0.0911,0.0146 0.091,0.0148 0.0911,0.015 0.091,0.0152 0.091,0.0154 0.091,0.0156 0.091,0.0158 0.091,0.016 0.091,0.0162 0.091,0.0164 0.091,0.0166 0.091,0.0168 0.091,0.0169 0.091,0.0171 0.0909,0.0173 0.0909,0.0175 0.0909,0.0177 0.0909,0.0179 0.0909,0.0181 0.0909,0.0183 0.0909,0.0185 0.0909,0.0187 0.0909,0.0189 0.0908,0.0191 0.0909,0.0193 0.0908,0.0195 0.0908,0.0197 0.0908,0.0199 0.0908,0.02 0.0908,0.0203 0.0908,0.0205 0.0908,0.0206 0.0908,0.0208 0.0907,0.021 0.0907,0.0212 0.0907,0.0214 0.0907,0.0216 0.0907,0.0218 0.0907,0.022 0.0907,0.0222 0.0907,0.0224 0.0907,0.0226 0.0906,0.0228 0.0906,0.023 0.0906,0.0232 0.0906,0.0233 0.0906,0.0235 0.0906,0.0237 0.0906,0.0239 0.0906,0.0241 0.0906,0.0243 0.0905,0.0245 0.0905,0.0247 0.0905,0.0249 0.0905,0.0251 0.0905,0.0253 0.0905,0.0255 0.0905,0.0257 0.0904,0.0259 0.0904,0.026 0.0904,0.0262 0.0904,0.0264 0.0904,0.0266 0.0904,0.0268 0.0904,0.027 0.0904,0.0272 0.0903,0.0274 0.0903,0.0276 0.0903,0.0278 0.0903,0.028 0.0903,0.0282 0.0902,0.0284 0.0902,0.0285 0.0902,0.0287 0.0902,0.0289 0.0902,0.0291 0.0902,0.0293 0.0902,0.0295 0.0901,0.0297 0.0901,0.0299 0.0901,0.0301 0.0901,0.0303 0.0901,0.0305 0.0901,0.0306 0.09,0.0309 0.09,0.031 0.09,0.0312 0.09,0.0314 0.09,0.0316 0.09,0.0318 0.0899,0.032 0.0899,0.0322 0.0899,0.0324 0.0899,0.0326 0.0899,0.0327 0.0899,0.0329 0.0899,0.0331 0.0898,0.0333 0.0898,0.0335 0.0898,0.0337 0.0898,0.0339 0.0898,0.0341 0.0897,0.0343 0.0897,0.0344 0.0897,0.0346 0.0897,0.0348 0.0897,0.035 0.0896,0.0352 0.0896,0.0354 0.0896,0.0356 0.0896,0.0358 0.0896,0.036 0.0896,0.0362 0.0895,0.0363 0.0895,0.0365 0.0895,0.0367 0.0895,0.0369 0.0895,0.0371 0.0894,0.0373 0.0894,0.0375 0.0894,0.0377 0.0894,0.0379 0.0894,0.038 0.0893,0.0382 0.0893,0.0384 0.0893,0.0386 0.0893,0.0388 0.0893,0.039 0.0892,0.0392 0.0892,0.0394 0.0892,0.0395 0.0892,0.0397 0.0892,0.0399 0.0891,0.0401 0.0891,0.0403 0.0891,0.0405 0.0891,0.0407 0.089,0.0409 0.089,0.041 0.089,0.0412 0.089,0.0414 0.089,0.0416 0.0889,0.0418 0.0889,0.042 0.0889,0.0421 0.0889,0.0423 0.0888,0.0425 0.0888,0.0427 0.0888,0.0429 0.0888,0.0431 0.0888,0.0433 0.0887,0.0435 0.0887,0.0436 0.0887,0.0438 0.0887,0.044 0.0886,0.0442 0.0886,0.0444 0.0886,0.0446 0.0886,0.0447 0.0885,0.0449 0.0885,0.0451 0.0885,0.0453 0.0885,0.0455 0.0885,0.0457 0.0884,0.0459 0.0884,0.046 0.0884,0.0462 0.0884,0.0464 0.0883,0.0466 0.0883,0.0468 0.0883,0.047 0.0883,0.0471 0.0882,0.0473 0.0882,0.0475 0.0882,0.0477 0.0882,0.0479 0.0881,0.048 0.0881,0.0482 0.0881,0.0484 0.0881,0.0486 0.088,0.0488 0.088,0.049 0.088,0.0492 0.088,0.0493 0.0879,0.0495 0.0879,0.0497 0.0879,0.0499 0.0879,0.0501 0.0878,0.0502 0.0878,0.0504 0.0878,0.0506 0.0878,0.0508 0.0877,0.051 0.0877,0.0512 0.0877,0.0513 0.0876,0.0515 0.0876,0.0517 0.0876,0.0519 0.0876,0.0521 0.0875,0.0522 0.0875,0.0524 0.0875,0.0526 0.0875,0.0528 0.0874,0.053 0.0874,0.0531 0.0874,0.0533 0.0873,0.0535 0.0873,0.0537 0.0873,0.0539 0.0873,0.054 0.0872,0.0542 0.0872,0.0544 0.0872,0.0546 0.0871,0.0547 0.0871,0.0549 0.0871,0.0551 0.0871,0.0553 0.087,0.0555 0.087,0.0556 0.087,0.0558 0.0869,0.056 0.0869,0.0562 0.0869,0.0564 0.0869,0.0565 0.0868,0.0567 0.0868,0.0569 0.0868,0.0571 0.0867,0.0572 0.0867,0.0574 0.0867,0.0576 0.0866,0.0578 0.0866,0.0579 0.0866,0.0581 0.0865,0.0583 0.0865,0.0585 0.0865,0.0586 0.0865,0.0588 0.0864,0.059 0.0864,0.0592 0.0864,0.0593 0.0863,0.0595 0.0863,0.0597 0.0863,0.0599 0.0862,0.06 0.0862,0.0602 0.0862,0.0604 0.0862,0.0606 0.0861,0.0607 0.0861,0.0609 0.0861,0.0611 0.086,0.0613 0.086,0.0614 0.086,0.0616 0.0859,0.0618 0.0859,0.062 0.0859,0.0621 0.0858,0.0623 0.0858,0.0625 0.0858,0.0627 0.0857,0.0628 0.0857,0.063 0.0857,0.0632 0.0856,0.0633 0.0856,0.0635 0.0856,0.0637 0.0855,0.0639 0.0855,0.064 0.0855,0.0642 0.0855,0.0644 0.0854,0.0645 0.0854,0.0647 0.0853,0.0649 0.0853,0.0651 0.0853,0.0652 0.0852,0.0654 0.0852,0.0656 0.0852,0.0657 0.0851,0.0659 0.0851,0.0661 0.0851,0.0662 0.085,0.0664 0.085,0.0666 0.085,0.0668 0.0849,0.0669 0.0849,0.0671 0.0849,0.0673 0.0848,0.0674 0.0848,0.0676 0.0848,0.0678 0.0847,0.0679 0.0847,0.0681 0.0847,0.0683 0.0846,0.0684 0.0846,0.0686 0.0845,0.0688 0.0845,0.069 0.0845,0.0691 0.0844,0.0693 0.0844,0.0694 0.0844,0.0696 0.0843,0.0698 0.0843,0.07 0.0843,0.0701 0.0842,0.0703 0.0842,0.0705 0.0842,0.0706 0.0841,0.0708 0.0841,0.071 0.084,0.0711 0.084,0.0713 0.084,0.0715 0.0839,0.0716 0.0839,0.0718 0.0839,0.0719 0.0838,0.0721 0.0838,0.0723 0.0838,0.0724 0.0837,0.0726 0.0837,0.0728 0.0836,0.0729 0.0836,0.0731 0.0836,0.0733 0.0835,0.0734 0.0835,0.0736 0.0834,0.0738 0.0834,0.0739 0.0834,0.0741 0.0833,0.0742 0.0833,0.0744 0.0833,0.0746 0.0832,0.0747 0.0832,0.0749 0.0831,0.0751 0.0831,0.0752 0.0831,0.0754 0.083,0.0755 0.083,0.0757 0.083,0.0759 0.0829,0.076 0.0829,0.0762 0.0828,0.0764 0.0828,0.0765 0.0828,0.0767 0.0827,0.0768 0.0827,0.077 0.0826,0.0771 0.0826,0.0773 0.0826,0.0775 0.0825,0.0776 0.0825,0.0778 0.0824,0.078 0.0824,0.0781 0.0824,0.0783 0.0823,0.0784 0.0823,0.0786 0.0822,0.0787 0.0822,0.0789 0.0822,0.0791 0.0821,0.0792 0.0821,0.0794 0.0821,0.0795 0.082,0.0797 0.082,0.0798 0.0819,0.08 0.0819,0.0802 0.0818,0.0803 0.0818,0.0805 0.0818,0.0806 0.0817,0.0808 0.0817,0.0809 0.0816,0.0811 0.0816,0.0813 0.0816,0.0814 0.0815,0.0816 0.0815,0.0817 0.0814,0.0819 0.0814,0.082 0.0814,0.0822 0.0813,0.0823 0.0813,0.0825 0.0812,0.0827 0.0812,0.0828 0.0811,0.083 0.0811,0.0831 0.0811,0.0833 0.081,0.0834 0.081,0.0836 0.0809,0.0837 0.0809,0.0839 0.0808,0.084 0.0808,0.0842 0.0808,0.0843 0.0807,0.0845 0.0807,0.0847 0.0806,0.0848 0.0806,0.0849 0.0805,0.0851 0.0805,0.0853 0.0805,0.0854 0.0804,0.0856 0.0804,0.0857 0.0803,0.0858 0.0803,0.086 0.0803,0.0862 0.0802,0.0863 0.0802,0.0865 0.0801,0.0866 0.0801,0.0868 0.08,0.0869 0.08,0.0871 0.0799,0.0872 0.0799,0.0874 0.0799,0.0875 0.0798,0.0877 0.0798,0.0878 0.0797,0.0879 0.0797,0.0881 0.0796,0.0882 0.0796,0.0884 0.0796,0.0885 0.0795,0.0887 0.0795,0.0888 0.0794,0.089 0.0794,0.0891 0.0793,0.0893 0.0793,0.0894 0.0792,0.0896 0.0792,0.0897 0.0792,0.0899 0.0791,0.09 0.079,0.0902 0.079,0.0903 0.079,0.0904 0.0789,0.0906 0.0789,0.0907 0.0788,0.0909 0.0788,0.091 0.0787,0.0912 0.0787,0.0913 0.0786,0.0915 0.0786,0.0916 0.0785,0.0917 0.0785,0.0919 0.0785,0.092 0.0784,0.0922 0.0784,0.0923 0.0783,0.0925 0.0783,0.0926 0.0782,0.0927 0.0782,0.0929 0.0781,0.093 0.0781,0.0932 0.0781,0.0933 0.078,0.0934 0.0779,0.0936 0.0779,0.0937 0.0779,0.0939 0.0778,0.094 0.0778,0.0942 0.0777,0.0943 0.0777,0.0944 0.0776,0.0946 0.0776,0.0947 0.0775,0.0949 0.0775,0.095 0.0774,0.0951 0.0774,0.0953 0.0773,0.0954 0.0773,0.0956 0.0772,0.0957 0.0772,0.0958 0.0772,0.096 0.0771,0.0961 0.0771,0.0962 0.077,0.0964 0.077,0.0965 0.0769,0.0967 0.0769,0.0968 0.0768,0.0969 0.0768,0.0971 0.0767,0.0972 0.0767,0.0973 0.0766,0.0975 0.0766,0.0976 0.0765,0.0978 0.0765,0.0979 0.0764,0.098 0.0764,0.0982 0.0764,0.0983 0.0763,0.0984 0.0763,0.0986 0.0762,0.0987 0.0762,0.0988 0.0761,0.099 0.0761,0.0991 0.076,0.0992 0.0759,0.0994 0.0759,0.0995 0.0759,0.0996 0.0758,0.0998 0.0758,0.0999 0.0757,0.10003 0.0757,0.10016 0.0756,0.10029 0.0756,0.10042 0.0755,0.10056 0.0755,0.10069 0.0754,0.10081 0.0754,0.10095 0.0753,0.10109 0.0753,0.10121 0.0752,0.10134 0.0752,0.10147 0.0751,0.10161 0.0751,0.10173 0.075,0.10186 0.1499,0.20412 0.14969,0.20463 0.14949,0.20515 0.1493,0.20567 0.14909,0.20617 0.14889,0.20669 0.1487,0.2072 0.14849,0.2077 0.14828,0.20822 0.14809,0.20871 0.14788,0.20922 0.14768,0.20973 0.14748,0.21022 0.14727,0.21072 0.14707,0.21122 0.14686,0.21172 0.14666,0.21221 0.14645,0.2127 0.14625,0.21319 0.14604,0.21369 0.14584,0.21417 0.14562,0.21465 0.14543,0.21515 0.14521,0.21562 0.14501,0.21611 0.1448,0.21658 0.14459,0.21707 0.14438,0.21754 0.14417,0.21802 0.14397,0.21849 0.14375,0.21897 0.14354,0.21943 0.14334,0.2199 0.14312,0.22038 0.14291,0.22083 0.1427,0.2213 0.14249,0.22177 0.14228,0.22222 0.14206,0.22269 0.14186,0.22314 0.14164,0.2236 0.14142,0.22406 0.14122,0.2245 0.141,0.22496 0.14079,0.22541 0.14057,0.22586 0.14035,0.22631 0.14015,0.22674 0.13992,0.2272 0.13972,0.22763 0.13949,0.22808 0.13929,0.22852 0.13906,0.22895 0.13885,0.22939 0.13863,0.22982 0.13842,0.23025 0.13819,0.23069 0.13799,0.23112 0.13776,0.23154 0.13754,0.23197 0.13733,0.23239 0.13711,0.23282 0.13689,0.23324 0.13667,0.23366 0.13645,0.23407 0.13623,0.23449 0.13601,0.23491 0.1358,0.23532 0.13557,0.23574 0.13535,0.23614 0.13513,0.23655 0.13491,0.23696 0.13469,0.23736 0.13447,0.23777 0.13425,0.23817 0.13402,0.23857 0.1338,0.23897 0.13359,0.23936 0.13335,0.23977 0.13314,0.24015 0.13291,0.24055 0.13269,0.24094 0.13247,0.24133 0.13224,0.24172 0.13203,0.2421 0.13179,0.24249 0.13157,0.24287 0.13135,0.24325 0.13113,0.24363 0.1309,0.24401 0.13067,0.24439 0.13045,0.24476 0.13023,0.24513 0.13,0.24551 0.12977,0.24587 0.12955,0.24625 0.12932,0.24661 0.1291,0.24698 0.12887,0.24734 0.12865,0.2477 0.12842,0.24807 0.12819,0.24842 0.12796,0.24878 0.12774,0.24913 0.12751,0.24949 0.12729,0.24984 0.12705,0.2502 0.12683,0.25054 0.12661,0.25089 0.12637,0.25123 0.12615,0.25159 0.12591,0.25192 0.1257,0.25226 0.12546,0.25261 0.12523,0.25294 0.12501,0.25328 0.12477,0.25362 0.12455,0.25395 0.12432,0.25428 0.12409,0.25461 0.12386,0.25494 0.12363,0.25526 0.1234,0.25559 0.12317,0.25592 0.12294,0.25624 0.12272,0.25656 0.12248,0.25688 0.12225,0.25719 0.12203,0.25752 0.12179,0.25782 0.12156,0.25814 0.12133,0.25845 0.12111,0.25876 0.12087,0.25907 0.12064,0.25938 0.12041,0.25968 0.12018,0.25998 0.11995,0.26029 0.11971,0.26059 0.11949,0.26088 0.11926,0.26119 0.11902,0.26148 0.11879,0.26177 0.11857,0.26206 0.11833,0.26236 0.1181,0.26264 0.11786,0.26294 0.11764,0.26322 0.1174,0.2635 0.11718,0.26379 0.11694,0.26407 0.11671,0.26435 0.11647,0.26463 0.11625,0.26491 0.11601,0.26518 0.11579,0.26545 0.11555,0.26573 0.11531,0.266 0.11509,0.26627 0.11485,0.26653 0.11462,0.26681 0.11439,0.26706 0.11416,0.26733 0.11392,0.26759 0.11369,0.26786 0.11346,0.26811 0.11323,0.26837 0.113,0.26862 0.11276,0.26888 0.11253,0.26913 0.1123,0.26938 0.11206,0.26963 0.11183,0.26988 0.1116,0.27012 0.11137,0.27037 0.11114,0.27062 0.1109,0.27085 0.11067,0.2711 0.11044,0.27134 0.1102,0.27157 0.10997,0.27181 0.10974,0.27204 0.10951,0.27228 0.10928,0.2725 0.10904,0.27274 0.10881,0.27297 0.10858,0.27319 0.10834,0.27342 0.10811,0.27364 0.10788,0.27387 0.10765,0.27409 0.10742,0.2743 0.10718,0.27453 0.10695,0.27474 0.10672,0.27495 0.10648,0.27517 0.10626,0.27539 0.10602,0.27559 0.10579,0.2758 0.10555,0.27601 0.10533,0.27622 0.10509,0.27642 0.10486,0.27662 0.10463,0.27683 0.1044,0.27703 0.10416,0.27723 0.10394,0.27742 0.1037,0.27762 0.10347,0.27782 0.10323,0.278 0.10301,0.27821 0.10277,0.27839 0.10254,0.27858 0.10232,0.27876 0.10207,0.27896 0.10185,0.27914 0.10162,0.27932"
           style="fill:none;stroke:#ff0000;stroke-width:0.14199366;stroke-linecap:round;stroke-linejoin:round;stroke-miterlimit:9.33333302;stroke-dasharray:none;stroke-opacity:1"
           id="path4555"
           inkscape:connector-curvature="0" /><path
           d="M 302.4712,419.13655 V 263.23104"
           style="fill:none;stroke:#ff0000;stroke-width:0.14199366;stroke-linecap:round;stroke-linejoin:round;stroke-miterlimit:9.33333302;stroke-dasharray:none;stroke-opacity:1"
           id="path4557"
           inkscape:connector-curvature="0" /><path
           d="M 458.37671,419.13655 H 302.4712"
           style="fill:none;stroke:#ff0000;stroke-width:0.14199366;stroke-linecap:round;stroke-linejoin:round;stroke-miterlimit:9.33333302;stroke-dasharray:none;stroke-opacity:1"
           id="path4559"
           inkscape:connector-curvature="0" /><path
           d="M 458.37671,419.13655 V 263.23104"
           style="fill:none;stroke:#ff0000;stroke-width:0.14199366;stroke-linecap:round;stroke-linejoin:round;stroke-miterlimit:9.33333302;stroke-dasharray:none;stroke-opacity:1"
           id="path4561"
           inkscape:connector-curvature="0" /><path
           d="m 378.6523,184.48192 c 0,-0.97846 0.7932,-1.77166 1.77165,-1.77166 0.97846,0 1.77166,0.7932 1.77166,1.77166 0,0.97845 -0.7932,1.77165 -1.77166,1.77165 -0.97845,0 -1.77165,-0.7932 -1.77165,-1.77165"
           style="fill:none;stroke:#ff0000;stroke-width:0.14199366;stroke-linecap:round;stroke-linejoin:round;stroke-miterlimit:9.33333302;stroke-dasharray:none;stroke-opacity:1"
           id="path4567"
           inkscape:connector-curvature="0" /><path
           d="m 378.6523,219.91499 c 0,-0.97846 0.7932,-1.77166 1.77165,-1.77166 0.97846,0 1.77166,0.7932 1.77166,1.77166 0,0.97846 -0.7932,1.77165 -1.77166,1.77165 -0.97845,0 -1.77165,-0.79319 -1.77165,-1.77165"
           style="fill:none;stroke:#ff0000;stroke-width:0.14199366;stroke-linecap:round;stroke-linejoin:round;stroke-miterlimit:9.33333302;stroke-dasharray:none;stroke-opacity:1"
           id="path4569"
           inkscape:connector-curvature="0" /><path
           d="M 417.80975,254.30384 V 242.96525"
           style="fill:none;stroke:#ff0000;stroke-width:0.14199366;stroke-linecap:round;stroke-linejoin:round;stroke-miterlimit:9.33333302;stroke-dasharray:none;stroke-opacity:1"
           id="path4571"
           inkscape:connector-curvature="0" /><path
           d="m 410.72314,254.30384 h 7.08661"
           style="fill:none;stroke:#ff0000;stroke-width:0.14199366;stroke-linecap:round;stroke-linejoin:round;stroke-miterlimit:9.33333302;stroke-dasharray:none;stroke-opacity:1"
           id="path4573"
           inkscape:connector-curvature="0" /><path
           d="M 410.72314,254.30384 V 242.96525"
           style="fill:none;stroke:#ff0000;stroke-width:0.14199366;stroke-linecap:round;stroke-linejoin:round;stroke-miterlimit:9.33333302;stroke-dasharray:none;stroke-opacity:1"
           id="path4575"
           inkscape:connector-curvature="0" /><path
           d="m 410.72314,242.96525 h 7.08661"
           style="fill:none;stroke:#ff0000;stroke-width:0.14199366;stroke-linecap:round;stroke-linejoin:round;stroke-miterlimit:9.33333302;stroke-dasharray:none;stroke-opacity:1"
           id="path4577"
           inkscape:connector-curvature="0" /><path
           d="m 338.78619,323.07599 v 11.33859"
           style="fill:none;stroke:#ff0000;stroke-width:0.14199366;stroke-linecap:round;stroke-linejoin:round;stroke-miterlimit:9.33333302;stroke-dasharray:none;stroke-opacity:1"
           id="path4579"
           inkscape:connector-curvature="0" /><path
           d="m 338.78619,334.41458 h -7.08662"
           style="fill:none;stroke:#ff0000;stroke-width:0.14199366;stroke-linecap:round;stroke-linejoin:round;stroke-miterlimit:9.33333302;stroke-dasharray:none;stroke-opacity:1"
           id="path4581"
           inkscape:connector-curvature="0" /><path
           d="m 331.69957,323.07599 v 11.33859"
           style="fill:none;stroke:#ff0000;stroke-width:0.14199366;stroke-linecap:round;stroke-linejoin:round;stroke-miterlimit:9.33333302;stroke-dasharray:none;stroke-opacity:1"
           id="path4583"
           inkscape:connector-curvature="0" /><path
           d="m 338.78619,323.07599 h -7.08662"
           style="fill:none;stroke:#ff0000;stroke-width:0.14199366;stroke-linecap:round;stroke-linejoin:round;stroke-miterlimit:9.33333302;stroke-dasharray:none;stroke-opacity:1"
           id="path4585"
           inkscape:connector-curvature="0" /><path
           d="M 422.06172,254.30384 V 242.96525"
           style="fill:none;stroke:#ff0000;stroke-width:0.14199366;stroke-linecap:round;stroke-linejoin:round;stroke-miterlimit:9.33333302;stroke-dasharray:none;stroke-opacity:1"
           id="path4587"
           inkscape:connector-curvature="0" /><path
           d="m 422.06172,242.96525 h 7.08661"
           style="fill:none;stroke:#ff0000;stroke-width:0.14199366;stroke-linecap:round;stroke-linejoin:round;stroke-miterlimit:9.33333302;stroke-dasharray:none;stroke-opacity:1"
           id="path4589"
           inkscape:connector-curvature="0" /><path
           d="M 429.14833,254.30384 V 242.96525"
           style="fill:none;stroke:#ff0000;stroke-width:0.14199366;stroke-linecap:round;stroke-linejoin:round;stroke-miterlimit:9.33333302;stroke-dasharray:none;stroke-opacity:1"
           id="path4591"
           inkscape:connector-curvature="0" /><path
           d="m 422.06172,254.30384 h 7.08661"
           style="fill:none;stroke:#ff0000;stroke-width:0.14199366;stroke-linecap:round;stroke-linejoin:round;stroke-miterlimit:9.33333302;stroke-dasharray:none;stroke-opacity:1"
           id="path4593"
           inkscape:connector-curvature="0" /><path
           d="m 350.12477,242.96525 h -7.08661"
           style="fill:none;stroke:#ff0000;stroke-width:0.14199366;stroke-linecap:round;stroke-linejoin:round;stroke-miterlimit:9.33333302;stroke-dasharray:none;stroke-opacity:1"
           id="path4595"
           inkscape:connector-curvature="0" /><path
           d="M 350.12477,254.30384 V 242.96525"
           style="fill:none;stroke:#ff0000;stroke-width:0.14199366;stroke-linecap:round;stroke-linejoin:round;stroke-miterlimit:9.33333302;stroke-dasharray:none;stroke-opacity:1"
           id="path4597"
           inkscape:connector-curvature="0" /><path
           d="m 350.12477,254.30384 h -7.08661"
           style="fill:none;stroke:#ff0000;stroke-width:0.14199366;stroke-linecap:round;stroke-linejoin:round;stroke-miterlimit:9.33333302;stroke-dasharray:none;stroke-opacity:1"
           id="path4599"
           inkscape:connector-curvature="0" /><path
           d="M 343.03816,254.30384 V 242.96525"
           style="fill:none;stroke:#ff0000;stroke-width:0.14199366;stroke-linecap:round;stroke-linejoin:round;stroke-miterlimit:9.33333302;stroke-dasharray:none;stroke-opacity:1"
           id="path4601"
           inkscape:connector-curvature="0" /><path
           d="m 343.03816,323.07599 v 11.33859"
           style="fill:none;stroke:#ff0000;stroke-width:0.14199366;stroke-linecap:round;stroke-linejoin:round;stroke-miterlimit:9.33333302;stroke-dasharray:none;stroke-opacity:1"
           id="path4603"
           inkscape:connector-curvature="0" /><path
           d="m 350.12477,323.07599 h -7.08661"
           style="fill:none;stroke:#ff0000;stroke-width:0.14199366;stroke-linecap:round;stroke-linejoin:round;stroke-miterlimit:9.33333302;stroke-dasharray:none;stroke-opacity:1"
           id="path4605"
           inkscape:connector-curvature="0" /><path
           d="m 350.12477,323.07599 v 11.33859"
           style="fill:none;stroke:#ff0000;stroke-width:0.14199366;stroke-linecap:round;stroke-linejoin:round;stroke-miterlimit:9.33333302;stroke-dasharray:none;stroke-opacity:1"
           id="path4607"
           inkscape:connector-curvature="0" /><path
           d="m 350.12477,334.41458 h -7.08661"
           style="fill:none;stroke:#ff0000;stroke-width:0.14199366;stroke-linecap:round;stroke-linejoin:round;stroke-miterlimit:9.33333302;stroke-dasharray:none;stroke-opacity:1"
           id="path4609"
           inkscape:connector-curvature="0" /><path
           d="m 413.0929,227.94954 c 0,-1.52639 1.23739,-2.76378 2.76378,-2.76378 1.52639,0 2.76378,1.23739 2.76378,2.76378 0,1.52639 -1.23739,2.76378 -2.76378,2.76378 -1.52639,0 -2.76378,-1.23739 -2.76378,-2.76378"
           style="fill:none;stroke:#ff0000;stroke-width:0.14199366;stroke-linecap:round;stroke-linejoin:round;stroke-miterlimit:9.33333302;stroke-dasharray:none;stroke-opacity:1"
           id="path4611"
           inkscape:connector-curvature="0" /><path
           d="m 342.22676,227.94954 c 0,-1.52639 1.23739,-2.76378 2.76378,-2.76378 1.52639,0 2.76378,1.23739 2.76378,2.76378 0,1.52639 -1.23739,2.76378 -2.76378,2.76378 -1.52639,0 -2.76378,-1.23739 -2.76378,-2.76378"
           style="fill:none;stroke:#ff0000;stroke-width:0.14199366;stroke-linecap:round;stroke-linejoin:round;stroke-miterlimit:9.33333302;stroke-dasharray:none;stroke-opacity:1"
           id="path4613"
           inkscape:connector-curvature="0" /><path
           d="m 330.74639,389.3992 c 0,-1.52639 -1.23739,-2.76378 -2.76378,-2.76378 -1.52639,0 -2.76378,1.23739 -2.76378,2.76378 0,1.52639 1.23739,2.76378 2.76378,2.76378 1.52639,0 2.76378,-1.23739 2.76378,-2.76378"
           style="fill:none;stroke:#ff0000;stroke-width:0.14199366;stroke-linecap:round;stroke-linejoin:round;stroke-miterlimit:9.33333302;stroke-dasharray:none;stroke-opacity:1"
           id="path4615"
           inkscape:connector-curvature="0" /><path
           d="m 330.74639,403.57243 c 0,-1.5264 -1.23739,-2.76378 -2.76378,-2.76378 -1.52639,0 -2.76378,1.23738 -2.76378,2.76378 0,1.52639 1.23739,2.76378 2.76378,2.76378 1.52639,0 2.76378,-1.23739 2.76378,-2.76378"
           style="fill:none;stroke:#ff0000;stroke-width:0.14199366;stroke-linecap:round;stroke-linejoin:round;stroke-miterlimit:9.33333302;stroke-dasharray:none;stroke-opacity:1"
           id="path4617"
           inkscape:connector-curvature="0" /><path
           d="m 330.74639,361.05274 c 0,-1.52639 -1.23739,-2.76378 -2.76378,-2.76378 -1.52639,0 -2.76378,1.23739 -2.76378,2.76378 0,1.5264 1.23739,2.76378 2.76378,2.76378 1.52639,0 2.76378,-1.23738 2.76378,-2.76378"
           style="fill:none;stroke:#ff0000;stroke-width:0.14199366;stroke-linecap:round;stroke-linejoin:round;stroke-miterlimit:9.33333302;stroke-dasharray:none;stroke-opacity:1"
           id="path4619"
           inkscape:connector-curvature="0" /><path
           d="m 435.62908,389.3992 c 0,-1.52639 -1.23739,-2.76378 -2.76378,-2.76378 -1.52639,0 -2.76378,1.23739 -2.76378,2.76378 0,1.52639 1.23739,2.76378 2.76378,2.76378 1.52639,0 2.76378,-1.23739 2.76378,-2.76378"
           style="fill:none;stroke:#ff0000;stroke-width:0.14199366;stroke-linecap:round;stroke-linejoin:round;stroke-miterlimit:9.33333302;stroke-dasharray:none;stroke-opacity:1"
           id="path4621"
           inkscape:connector-curvature="0" /><path
           d="m 435.62908,403.57243 c 0,-1.5264 -1.23739,-2.76378 -2.76378,-2.76378 -1.52639,0 -2.76378,1.23738 -2.76378,2.76378 0,1.52639 1.23739,2.76378 2.76378,2.76378 1.52639,0 2.76378,-1.23739 2.76378,-2.76378"
           style="fill:none;stroke:#ff0000;stroke-width:0.14199366;stroke-linecap:round;stroke-linejoin:round;stroke-miterlimit:9.33333302;stroke-dasharray:none;stroke-opacity:1"
           id="path4623"
           inkscape:connector-curvature="0" /><path
           d="m 435.62908,361.05274 c 0,-1.52639 -1.23739,-2.76378 -2.76378,-2.76378 -1.52639,0 -2.76378,1.23739 -2.76378,2.76378 0,1.5264 1.23739,2.76378 2.76378,2.76378 1.52639,0 2.76378,-1.23738 2.76378,-2.76378"
           style="fill:none;stroke:#ff0000;stroke-width:0.14199366;stroke-linecap:round;stroke-linejoin:round;stroke-miterlimit:9.33333302;stroke-dasharray:none;stroke-opacity:1"
           id="path4625"
           inkscape:connector-curvature="0" /></g></g><path
       inkscape:connector-curvature="0"
       id="path4286-6"
       style="fill:none;stroke:#ff0000;stroke-width:0.28346459;stroke-linecap:round;stroke-linejoin:round;stroke-miterlimit:9.33333302;stroke-dasharray:none;stroke-opacity:1"
       d="m 466.45934,379.70223 c 0,-5.1122 -4.14426,-9.25645 -9.25645,-9.25645 -5.1122,0 -9.25647,4.14425 -9.25647,9.25645 0,5.11217 4.14427,9.25641 9.25647,9.25641 4.6401,0 8.48281,-3.41421 9.15295,-7.86747"
       sodipodi:nodetypes="csssc" /><path
       inkscape:connector-curvature="0"
       id="path4288-9"
       style="fill:none;stroke:#ff0000;stroke-width:0.28346459;stroke-linecap:round;stroke-linejoin:round;stroke-miterlimit:9.33333302;stroke-dasharray:none;stroke-opacity:1"
       d="m 461.04785,379.70223 c 0,-2.12354 -1.72143,-3.84501 -3.84496,-3.84501 -2.12352,0 -3.845,1.72147 -3.845,3.84501 0,2.12353 1.72148,3.84496 3.845,3.84496 2.12353,0 3.84496,-1.72143 3.84496,-3.84496" /><path
       inkscape:connector-curvature="0"
       id="path4286-0"
       style="fill:none;stroke:#ff0000;stroke-width:0.28346459;stroke-linecap:round;stroke-linejoin:round;stroke-miterlimit:9.33333302;stroke-dasharray:none;stroke-opacity:1"
       d="m 466.48489,408.29593 c 0,-5.11221 -4.14425,-9.25649 -9.25645,-9.25649 -5.11221,0 -9.25645,4.14428 -9.25645,9.25649 0,5.11219 4.14424,9.25643 9.25645,9.25643 4.64013,0 8.48284,-3.41419 9.15295,-7.86751"
       sodipodi:nodetypes="csssc" /><path
       inkscape:connector-curvature="0"
       id="path4288-1"
       style="fill:none;stroke:#ff0000;stroke-width:0.28346459;stroke-linecap:round;stroke-linejoin:round;stroke-miterlimit:9.33333302;stroke-dasharray:none;stroke-opacity:1"
       d="m 461.07344,408.29593 c 0,-2.12357 -1.72145,-3.845 -3.845,-3.845 -2.12353,0 -3.84498,1.72143 -3.84498,3.845 0,2.12353 1.72145,3.845 3.84498,3.845 2.12355,0 3.845,-1.72147 3.845,-3.845" /><path
       inkscape:connector-curvature="0"
       id="path4286-05"
       style="fill:none;stroke:#ff0000;stroke-width:0.28346459;stroke-linecap:round;stroke-linejoin:round;stroke-miterlimit:9.33333302;stroke-dasharray:none;stroke-opacity:1"
       d="m 466.50721,352.37144 c 0,-5.11218 -4.14426,-9.25641 -9.25647,-9.25641 -5.11218,0 -9.25643,4.14423 -9.25643,9.25641 0,5.11219 4.14425,9.25647 9.25643,9.25647 4.64012,0 8.48285,-3.41421 9.15297,-7.86749"
       sodipodi:nodetypes="csssc" /><path
       inkscape:connector-curvature="0"
       id="path4288-8"
       style="fill:none;stroke:#ff0000;stroke-width:0.28346459;stroke-linecap:round;stroke-linejoin:round;stroke-miterlimit:9.33333302;stroke-dasharray:none;stroke-opacity:1"
       d="m 461.09574,352.37144 c 0,-2.12348 -1.72145,-3.84495 -3.845,-3.84495 -2.12352,0 -3.84495,1.72147 -3.84495,3.84495 0,2.12355 1.72143,3.84504 3.84495,3.84504 2.12355,0 3.845,-1.72149 3.845,-3.84504" /><path
       inkscape:connector-curvature="0"
       id="path4286-7"
       style="fill:none;stroke:#ff0000;stroke-width:0.28346459;stroke-linecap:round;stroke-linejoin:round;stroke-miterlimit:9.33333302;stroke-dasharray:none;stroke-opacity:1"
       d="m 466.34265,436.71903 c 0,-5.1122 -4.14427,-9.25645 -9.25645,-9.25645 -5.11219,0 -9.25641,4.14425 -9.25641,9.25645 0,5.11217 4.14422,9.25643 9.25641,9.25643 4.64013,0 8.48284,-3.41421 9.15293,-7.86747"
       sodipodi:nodetypes="csssc" /><path
       inkscape:connector-curvature="0"
       id="path4288-6"
       style="fill:none;stroke:#ff0000;stroke-width:0.28346459;stroke-linecap:round;stroke-linejoin:round;stroke-miterlimit:9.33333302;stroke-dasharray:none;stroke-opacity:1"
       d="m 460.9312,436.71903 c 0,-2.12352 -1.72148,-3.84502 -3.845,-3.84502 -2.12353,0 -3.84498,1.7215 -3.84498,3.84502 0,2.12353 1.72145,3.84498 3.84498,3.84498 2.12352,0 3.845,-1.72145 3.845,-3.84498" /><path
       d="m 551.73407,425.82267 c 0.4285,1.19387 1.45342,1.84667 2.8998,1.84667 1.08426,0 1.68876,-0.17708 2.52964,-0.75135 0.75839,-0.51397 1.17883,-1.17779 1.36389,-2.16857 0.25951,-1.35883 -0.25146,-2.5226 -1.35181,-3.08384 -0.50293,-0.25548 -0.78555,-0.2947 -1.77631,-0.24038 -1.26834,0.0673 -1.79137,0.26753 -2.64431,1.01388 -0.97365,0.85694 -1.41016,2.30228 -1.0209,3.38359 z m 1.11546,-2.32649 c 1.14766,-1.23012 3.48516,-1.40211 4.55435,-0.33393 0.39229,0.39728 0.42347,0.49892 0.36511,1.22608 -0.0742,0.89522 -0.30677,1.2261 -1.23414,1.76823 -1.18989,0.69906 -2.89978,0.58137 -3.73962,-0.25545 -0.3973,-0.39728 -0.42448,-0.49891 -0.36612,-1.23012 0.0473,-0.58137 0.16076,-0.89922 0.42042,-1.17481 z m -1.18285,-8.89144 c 0.0712,0.24337 0.16872,0.58536 0.22834,0.7664 0.0633,0.20418 0.0392,0.32991 -0.0623,0.32991 -0.0903,0 -0.16575,0.23234 -0.16575,0.51097 0,0.51097 0.004,0.51499 0.55019,0.4355 2.13035,-0.30175 5.81868,-0.67492 7.43402,-0.75435 l 1.92918,-0.0893 0.0553,-0.52703 c 0.0312,-0.28671 0.0663,1.54391 0.0784,4.07457 0.0201,3.64207 0.0864,5.08037 0.32186,6.93109 0.36108,2.84047 0.47577,3.22571 1.06921,3.5868 0.42746,0.25949 0.78149,0.27861 4.92651,0.28261 4.30592,0 4.48295,-0.0119 4.85609,-0.30275 0.21224,-0.16773 0.45966,-0.44354 0.55021,-0.61254 0.0903,-0.16873 0.31783,-1.55199 0.50291,-3.07278 0.18504,-1.51978 0.35705,-2.77706 0.38118,-2.7972 0.0233,-0.0201 0.66786,-0.24339 1.4343,-0.49487 0.76543,-0.25146 2.03077,-0.77448 2.81329,-1.15469 l 1.41823,-0.70003 1.93317,1.52079 c 2.48239,1.95232 2.67149,2.06696 3.45701,2.06696 h 0.65282 l 3.21761,-3.21057 3.21761,-3.20557 v -0.77848 c 0,-0.77351 -0.0119,-0.79363 -1.77225,-3.03659 l -1.76823,-2.25911 0.70407,-1.45437 c 0.38825,-0.80167 0.91529,-2.08608 1.16675,-2.85959 l 0.46366,-1.40714 1.25731,-0.16873 c 0.695,-0.0945 1.4886,-0.192 1.77128,-0.21628 1.68571,-0.15698 2.4793,-0.28261 2.4793,-0.39224 0,-0.0673 0.0903,-0.0903 0.20118,-0.0474 0.10963,0.0432 0.40434,-0.16076 0.66385,-0.45565 l 0.46772,-0.53509 -0.043,-4.56844 -0.0474,-4.57348 -0.35004,-0.37315 c -0.45158,-0.48383 -1.08828,-0.68395 -2.2671,-0.71917 -0.52605,-0.0119 -0.95455,-0.0673 -0.95857,-0.1146 0,-0.0462 -0.47573,-0.13252 -1.0571,-0.18823 -2.25908,-0.2082 -2.0549,-0.0742 -2.57693,-1.6737 -0.25548,-0.77448 -0.78252,-2.0589 -1.17479,-2.84848 l -0.71111,-1.44232 1.56305,-1.98753 c 2.13334,-2.70768 2.11018,-2.66442 2.01969,-3.47311 -0.0742,-0.66083 -0.16475,-0.76644 -3.26491,-3.85833 l -3.19047,-3.17941 -0.65578,0.008 c -0.36111,0.004 -0.78555,0.0742 -0.93945,0.15778 -0.15678,0.0824 -1.21806,0.8831 -2.36065,1.78331 l -2.07504,1.63446 -1.36289,-0.67187 c -0.75033,-0.36511 -2.01969,-0.89217 -2.82133,-1.16275 -0.80566,-0.27559 -1.48156,-0.51093 -1.50471,-0.52705 -0.0243,-0.0201 -0.16873,-1.14259 -0.32989,-2.49846 -0.35001,-3.01343 -0.4597,-3.43389 -1.02596,-3.90962 l -0.44758,-0.37716 H 568.071 c -4.90741,0 -5.09148,0.0312 -5.54007,0.90021 -0.12973,0.24743 -0.20822,0.63968 -0.1729,0.87203 0.0322,0.22734 0.0159,0.4164 -0.0392,0.4164 -0.0583,0 -0.153,0.4798 -0.21224,1.06116 -0.0623,0.58136 -0.14902,1.31962 -0.19598,1.64149 -0.0473,0.31884 -0.10545,9.35917 -0.12953,20.0893 l -0.0432,19.5079 -0.47473,0.0824 c -0.50695,0.0933 -4.02031,0.53007 -4.25163,0.53007 -0.0784,0 0.13749,-0.23534 0.47573,-0.52202 0.77351,-0.66487 1.07626,-1.24623 1.0843,-2.09513 0.0201,-1.46548 -0.88814,-2.19169 -2.74288,-2.19573 -0.56125,0 -1.26131,0.0663 -1.56003,0.14903 -0.83282,0.23231 -1.90503,1.02593 -2.25506,1.67366 -0.36109,0.67191 -0.52605,1.84266 -0.34598,2.4794 z m 1.11649,-2.07806 c 0.92333,-1.24218 3.48112,-1.59119 4.46281,-0.60952 1.10841,1.10841 -0.12575,2.89978 -2.2983,3.33229 -1.02896,0.2082 -2.41197,0.29068 -2.31841,0.14067 0.0432,-0.0663 0.004,-0.23939 -0.0824,-0.3802 -0.25851,-0.42444 -0.10545,-2.01971 0.23638,-2.48338 z m 13.7083,-1.6938 c 0.71917,-0.12157 0.74231,-0.14505 0.99377,-0.84892 l 0.25949,-0.72621 -0.37714,-0.49083 c -0.20418,-0.26754 -0.37317,-0.58539 -0.37317,-0.70005 0,-0.19599 1.34377,-1.56003 1.53588,-1.56003 0.0473,0 0.33796,0.20117 0.64073,0.44455 l 0.55723,0.44764 0.71211,-0.33799 c 0.6598,-0.31381 0.71815,-0.38522 0.76137,-0.91929 0.0243,-0.31787 0.11461,-0.66388 0.20118,-0.76646 0.16474,-0.20023 1.82254,-0.25448 2.11326,-0.0702 0.0945,0.0633 0.22833,0.4285 0.29067,0.81774 0.11361,0.67591 0.14982,0.71513 0.83684,0.97365 l 0.71515,0.27559 1.14765,-0.9113 1.63848,1.63747 -0.44462,0.62868 c -0.41636,0.58638 -0.51397,1.11243 -0.16076,0.89617 0.0864,-0.0553 0.11361,-0.0272 0.0633,0.0551 -0.0553,0.0824 -0.0282,0.34899 0.0583,0.59744 0.13768,0.39229 0.24341,0.45966 0.91127,0.56525 l 0.75437,0.11759 0.0432,0.99778 c 0.0513,1.14363 -0.0893,1.40717 -0.75436,1.41117 -0.6206,0.004 -0.75437,0.11361 -1.09234,0.89517 l -0.28665,0.6759 0.42044,0.49189 c 0.22833,0.26649 0.42042,0.55719 0.42444,0.63968 0.004,0.0824 -0.34197,0.49487 -0.76641,0.91529 l -0.77351,0.76243 -0.61656,-0.45564 -0.62159,-0.45566 -0.68698,0.29473 c -0.65578,0.28664 -0.69601,0.33389 -0.80968,1.04103 l -0.12157,0.73827 h -1.15873 c -1.26128,0 -1.25324,0.004 -1.34777,-0.9153 -0.0672,-0.64776 -0.004,-0.57736 -0.81372,-0.89118 l -0.64374,-0.25145 -0.62458,0.4476 -0.62564,0.45162 -0.70307,-0.75033 c -0.38524,-0.40838 -0.72217,-0.80566 -0.75033,-0.88012 -0.0272,-0.0784 0.11759,-0.36107 0.32587,-0.63266 0.45261,-0.5894 0.44859,-0.56928 0.12555,-1.34781 -0.25544,-0.61656 -0.49483,-0.76945 -1.21802,-0.77346 -0.20822,0 -0.42345,-0.0474 -0.47878,-0.10645 -0.0553,-0.0541 -0.0824,-0.59645 -0.0593,-1.20195 l 0.0392,-1.10037 0.73925,-0.12575 z m 2.7771,2.67952 c 0.26353,0.60146 0.99478,1.39909 1.56003,1.69382 0.47575,0.25143 1.72499,0.50289 1.91409,0.38924 0.0702,-0.0432 0.35303,-0.0943 0.62864,-0.11063 0.27459,-0.0201 0.76945,-0.22332 1.10739,-0.45969 1.71292,-1.20195 2.05091,-3.61491 0.73125,-5.16289 -2.16955,-2.52964 -6.18884,-1.06012 -6.16469,2.25608 0,0.48278 0.10148,1.11142 0.22329,1.39407 z m -2.82837,-26.71665 c 0.37718,-0.043 0.70709,-0.11083 0.73425,-0.14584 0.13768,-0.19599 0.55016,-1.19391 0.55016,-1.32768 0,-0.0863 -0.16474,-0.35408 -0.36506,-0.58942 -0.20022,-0.23938 -0.36513,-0.51497 -0.36513,-0.61254 0,-0.0985 0.32589,-0.4989 0.72218,-0.88814 0.78656,-0.77448 0.73522,-0.77048 1.76019,-0.13788 0.33494,0.21226 0.41739,0.2042 1.05711,-0.0824 0.62864,-0.28266 0.69199,-0.35707 0.69199,-0.80165 0,-0.90723 0.0663,-0.95453 1.31162,-0.95453 h 1.13559 l 0.0903,0.45566 c 0.0513,0.25146 0.0903,0.59742 0.0903,0.76643 0,0.24339 0.16475,0.37316 0.7383,0.5773 l 0.74328,0.26355 0.49087,-0.37716 c 0.26754,-0.2042 0.57329,-0.37318 0.67588,-0.37318 0.22734,0 1.58721,1.31159 1.57915,1.52785 0,0.0824 -0.18822,0.37721 -0.42044,0.6528 l -0.4164,0.50289 0.28667,0.66384 c 0.32991,0.76944 0.46772,0.88011 1.08428,0.88413 0.66483,0.004 0.80566,0.26652 0.75435,1.41015 l -0.0432,0.99778 -0.74227,0.12973 c -0.71513,0.11759 -0.75841,0.15281 -1.04506,0.83282 l -0.30277,0.71111 0.42446,0.5351 c 0.23639,0.29472 0.42446,0.57735 0.42446,0.62864 0,0.0503 -0.35707,0.44758 -0.79761,0.8831 l -0.79762,0.78656 -0.57331,-0.45563 -0.57032,-0.45966 -0.72215,0.30174 c -0.69603,0.29471 -0.72723,0.33394 -0.85698,1.05311 l -0.1337,0.74629 -0.99779,0.0432 c -0.58942,0.0283 -1.07622,-0.0233 -1.19391,-0.11779 -0.11082,-0.0903 -0.22027,-0.43954 -0.24441,-0.77349 -0.0392,-0.57028 -0.0893,-0.62862 -0.74631,-0.9394 l -0.70711,-0.33397 -0.55823,0.44057 c -0.30575,0.2434 -0.6085,0.43952 -0.67491,0.43952 -0.20518,0 -1.51676,-1.35984 -1.51676,-1.57109 0,-0.11062 0.16873,-0.42042 0.37317,-0.68795 l 0.37714,-0.49087 -0.25949,-0.72721 c -0.24744,-0.70306 -0.27862,-0.72719 -0.93539,-0.81368 -0.37319,-0.0503 -0.72218,-0.13689 -0.77751,-0.19201 -0.0593,-0.0553 -0.0824,-0.5975 -0.0593,-1.20196 l 0.0392,-1.10038 0.68799,-0.0782 z m 2.97827,2.89976 c 0.63666,1.27638 1.89795,1.97945 3.34332,1.86176 1.97647,-0.16076 3.43791,-1.87384 3.24177,-3.79089 -0.19698,-1.9141 -1.57613,-3.18248 -3.46203,-3.18248 -2.68756,0 -4.32907,2.69059 -3.12306,5.11161 z m -17.68842,14.08857 c 0.47977,1.30859 1.61435,1.92515 3.3313,1.8155 1.79639,-0.11759 3.10394,-1.1788 3.47007,-2.81731 0.43954,-1.97644 -0.75837,-3.41777 -2.84849,-3.42585 -1.12453,-0.004 -1.72094,0.17311 -2.58193,0.75843 -1.20199,0.82072 -1.81451,2.46326 -1.37095,3.66923 z m 1.25326,-2.40391 c 1.23816,-1.17883 3.36348,-1.3126 4.4045,-0.27157 0.53813,0.53812 0.5693,1.46951 0.0784,2.20072 -0.93943,1.39407 -3.5123,1.70892 -4.65191,0.56931 -0.35003,-0.34901 -0.4164,-0.53411 -0.4164,-1.17883 0,-0.70305 0.0474,-0.80866 0.58538,-1.31963 z m -1.36291,-8.48714 c 0.0392,0.18126 0.13251,0.32992 0.21224,0.32992 0.0824,0 0.10545,0.0633 0.0583,0.14187 -0.0474,0.0742 0.12574,0.24744 0.38926,0.38522 0.39224,0.20002 0.73425,0.22732 2.01162,0.15281 0.8449,-0.0474 1.88188,-0.12953 2.30234,-0.18405 l 0.76641,-0.0985 v 0.54217 c 0,0.51899 0.0159,0.53811 0.47478,0.49082 0.44455,-0.0392 0.47575,-0.0824 0.51898,-0.64774 l 0.043,-0.60554 0.97868,-0.12575 c 0.97365,-0.12575 0.97765,-0.12575 1.02493,-0.61658 0.0474,-0.49082 0.0432,-0.49082 -0.47574,-0.40132 -0.28667,0.0513 -0.75036,0.12973 -1.03298,0.18126 l -0.51097,0.0863 v -0.97866 c 0,-0.95051 -0.0119,-0.98169 -0.32589,-0.8952 -0.18106,0.0473 -0.41236,0.0903 -0.51095,0.0903 -0.12953,0 -0.18424,0.28667 -0.18424,0.93439 0,1.08832 0.12157,1.01791 -2.13736,1.26536 -1.13157,0.12157 -1.56404,0.11361 -2.02372,-0.0352 -0.53007,-0.17708 -0.5854,-0.2434 -0.62866,-0.75437 -0.0243,-0.30676 0.0201,-0.75032 0.10147,-0.98572 0.13789,-0.38924 0.12257,-0.42444 -0.2042,-0.42444 -0.55315,0 -1.03698,1.22912 -0.8479,2.15245 z m 0.0432,-15.30661 c 0.17191,0.70307 0.5854,1.1939 1.33171,1.59423 0.55423,0.29471 0.80568,0.33794 1.81148,0.29168 2.42807,-0.10644 3.75577,-1.46546 3.77889,-3.86636 0.004,-0.57735 -0.0273,-1.0843 -0.0742,-1.13157 -0.0432,-0.0432 -0.27859,-0.0119 -0.52201,0.0742 l -0.44057,0.15301 0.0702,1.00178 c 0.0633,0.86503 0.0243,1.07723 -0.26256,1.54495 -0.84487,1.36289 -3.45802,1.65354 -4.43567,0.48683 -0.47573,-0.56226 -0.51097,-1.56003 -0.0824,-2.35765 0.15678,-0.29873 0.29065,-0.56931 0.29065,-0.60049 0,-0.0283 -0.21222,-0.0119 -0.47173,0.0432 -0.79357,0.16077 -1.29248,1.55197 -0.99375,2.766 z m -0.008,-14.63168 c 0.192,0.75839 0.70305,1.32768 1.58717,1.76018 0.76947,0.37718 0.96658,0.41238 2.5146,0.40836 1.93717,0 2.74989,-0.21628 4.18015,-1.11548 1.98449,-1.25021 3.08787,-3.10396 3.41073,-5.72515 0.0782,-0.65176 0.19619,-1.59518 0.26254,-2.09813 0.0673,-0.50288 0.0985,-0.93842 0.0673,-0.96657 -0.0273,-0.0272 -0.36213,0.008 -0.73929,0.0784 -4.54932,0.85695 -8.56056,1.1436 -10.56114,0.76244 -0.36913,-0.0703 -0.39229,-0.0392 -0.4868,0.70305 -0.0513,0.42446 -0.12973,0.88816 -0.16892,1.02996 -0.0663,0.23132 0.0633,0.25548 1.32467,0.25548 0.76543,0 1.39407,0.0513 1.39407,0.11361 0,0.0593 -0.23134,0.23536 -0.51097,0.38923 -0.65578,0.34904 -1.77926,1.54796 -2.03475,2.1645 -0.26755,0.63672 -0.37722,1.68579 -0.23938,2.24002 z m 2.0941,-2.88774 c 0.3812,-0.50693 0.8127,-0.80165 2.15245,-1.47354 1.44236,-0.71915 1.8819,-0.86901 3.13916,-1.0571 0.80167,-0.11759 1.81151,-0.21625 2.24402,-0.22026 h 0.78957 l -0.0864,1.02192 c -0.16873,1.99554 -1.23315,3.55557 -2.95412,4.31797 -1.53689,0.67594 -3.70142,0.78957 -4.85309,0.24744 -1.01691,-0.47575 -1.21707,-1.79541 -0.4315,-2.83643 z m -1.53287,83.45108 c 4.05548,-0.64774 14.41945,-1.68878 16.83647,-1.68878 h 0.95853 l 0.0933,-2.95912 c 0.0903,-3.02855 0.004,-4.26669 -0.40033,-5.48073 -0.25545,-0.76645 -1.04908,-1.83059 -1.26535,-1.69682 -0.0784,0.046 -0.12157,0 -0.0973,-0.10645 0.0233,-0.10545 -0.28771,-0.35002 -0.69203,-0.5502 -0.57333,-0.2786 -0.94645,-0.35303 -1.77627,-0.34599 -1.88188,0.0203 -3.51236,1.08127 -4.45079,2.89576 -0.26754,0.51899 -0.51899,0.94347 -0.56225,0.94347 -0.043,0 -0.20022,-0.23236 -0.35706,-0.51899 -0.58539,-1.08834 -1.88994,-1.88592 -4.38136,-2.68758 -1.66564,-0.53005 -3.99613,-1.17079 -4.27875,-1.17079 -0.14107,0 -0.17688,0.29069 -0.14505,1.17883 l 0.0432,1.18282 1.94428,0.48684 c 3.4771,0.87607 4.9074,1.59526 5.50081,2.77409 0.23939,0.47975 0.29875,0.93941 0.34198,2.64025 l 0.0474,2.05892 -0.55823,0.0863 c -0.49887,0.0742 -2.18867,0.20818 -6.14459,0.47876 l -1.20698,0.0863 v 2.47936 l 0.55019,-0.0863 z m 9.39439,-7.1192 c 0.34199,-1.60328 1.24218,-2.79719 2.41699,-3.19752 0.30575,-0.10644 0.95852,-0.19299 1.44538,-0.19697 1.14763,-0.008 1.91304,0.46369 2.41597,1.47755 0.30277,0.6206 0.35004,0.95051 0.39728,2.762 0.0392,1.68575 0.008,2.09414 -0.1731,2.27516 -0.14605,0.14504 -0.67592,0.25551 -1.58317,0.32187 -0.74631,0.0553 -2.19673,0.18524 -3.22165,0.28669 l -1.86278,0.18504 v -1.57209 c 0,-0.86399 0.0742,-1.91711 0.16474,-2.34155 z M 552.072,386.01321 c 0.98568,-0.19598 3.02149,-0.42042 4.63181,-0.50596 l 1.75212,-0.0943 0.0432,-0.54616 c 0.0551,-0.64876 0.15401,-0.63266 -2.09817,-0.34199 -0.87602,0.11361 -2.3023,0.25547 -3.1623,0.31079 l -1.57209,0.10147 v 0.57736 c 0,0.5542 0.0201,0.57834 0.40536,0.49889 z m 0.0119,-15.70393 c 0.14902,0 1.51174,-0.16873 3.02855,-0.37313 1.58014,-0.21627 3.89354,-0.4124 5.4063,-0.45967 l 2.6443,-0.0863 0.0903,-0.74631 c 0.16872,-1.39105 0.23937,-1.30858 -1.03703,-1.21 -0.6246,0.0473 -1.8547,0.18423 -2.73885,0.30576 -1.50872,0.20518 -3.42987,0.38523 -6.38492,0.60149 l -1.27642,0.0943 v 0.93543 c 0,0.8127 0.0352,0.93441 0.26753,0.93441 v 0.004 z m 7.88868,14.72226 c 0.36917,0.58137 1.59525,-0.0985 1.38705,-0.77048 -0.19201,-0.61657 -0.64375,-0.68296 -1.15873,-0.16873 -0.37717,0.38122 -0.43652,0.60952 -0.22832,0.93945 z m 5.59138,-16.5488 c 0.0903,0.16076 0.23536,0.34196 0.32187,0.4003 0.29067,0.19299 1.32768,0.11361 1.67366,-0.12575 0.72319,-0.50695 0.90829,-1.77933 0.30277,-2.10218 -0.40838,-0.21928 -1.35183,-0.16872 -1.72499,0.0943 -0.30273,0.21227 -0.75437,1.02193 -0.74233,1.32771 0,0.0633 0.0784,0.24441 0.16892,0.40536 z m 27.14513,58.03493 c 1.14765,0.99776 3.14722,2.71874 4.43967,3.83117 l 2.34962,2.01467 -0.27056,0.53107 c -0.5351,1.04907 -0.27157,2.68758 0.57735,3.58275 0.93139,0.98267 2.63222,1.28946 3.80705,0.68798 2.23592,-1.13959 2.38881,-4.27073 0.28263,-5.66176 -0.53009,-0.35406 -0.75034,-0.40436 -1.72097,-0.40436 -0.80467,0 -1.21804,0.0702 -1.49668,0.25147 l -0.3852,0.25546 -3.4892,-4.05147 c -1.92114,-2.22384 -3.64916,-4.22745 -3.84223,-4.45175 l -0.35005,-0.40838 -0.9978,1.00586 -0.99775,1.0098 z m -1.08832,-50.04369 0.99375,0.98271 3.83925,-4.44775 3.83419,-4.4518 0.38924,0.2555 c 0.27864,0.18405 0.68797,0.25548 1.49668,0.25548 0.97063,0 1.19088,-0.0513 1.72097,-0.40536 0.89216,-0.58841 1.38299,-1.41416 1.45743,-2.43909 0.14982,-2.04384 -1.18183,-3.5053 -3.18242,-3.5053 -1.37899,0 -2.47532,0.70709 -2.98128,1.92514 -0.29168,0.69603 -0.25951,2.0358 0.0585,2.66844 l 0.25146,0.49085 -3.7678,3.24176 c -2.07399,1.77928 -3.7286,3.30815 -3.67727,3.39064 0.0513,0.0824 0.0233,0.10943 -0.0595,0.0543 -0.0863,-0.0503 -0.42848,0.15401 -0.76241,0.4526 l -0.60852,0.54616 0.99777,0.98571 z"
       style="fill:#0000ff;fill-opacity:1;fill-rule:nonzero;stroke:none;stroke-width:0.56347746;stroke-miterlimit:10;stroke-dasharray:none"
       id="path3546"
       inkscape:connector-curvature="0" /><g
       transform="matrix(0,-0.93402382,0.93402382,0,278.71113,621.05852)"
       id="g6142"
       style="stroke-width:0.2832;stroke-miterlimit:10;stroke-dasharray:none"><path
         inkscape:connector-curvature="0"
         id="path3464"
         style="fill:#0000ff;fill-opacity:1;fill-rule:nonzero;stroke:none;stroke-width:0.2832;stroke-miterlimit:10;stroke-dasharray:none"
         d="m 215.082,51.594 -2.621,0.48 c -0.063,0.012 -0.133,0.071 -0.152,0.133 l -0.805,1.848 c -0.031,0.058 -0.024,0.144 0.016,0.199 l 1.523,2.195 c 0.035,0.055 0.031,0.137 -0.016,0.18 l -1.906,1.883 c -0.047,0.043 -0.129,0.051 -0.183,0.015 l -2.266,-1.535 c -0.051,-0.035 -0.145,-0.043 -0.203,-0.011 l -1.821,0.734 c -0.058,0.016 -0.121,0.086 -0.132,0.148 l -0.504,2.676 c -0.012,0.063 -0.074,0.113 -0.141,0.113 h -2.699 c -0.067,0 -0.129,-0.05 -0.137,-0.113 l -0.508,-2.676 c -0.011,-0.062 -0.07,-0.132 -0.132,-0.148 l -1.821,-0.734 c -0.058,-0.032 -0.152,-0.024 -0.203,0.011 l -2.266,1.535 c -0.054,0.036 -0.136,0.028 -0.183,-0.015 l -1.906,-1.883 c -0.047,-0.043 -0.055,-0.125 -0.016,-0.18 l 1.527,-2.195 c 0.036,-0.055 0.043,-0.141 0.012,-0.199 l -0.805,-1.848 c -0.019,-0.062 -0.089,-0.121 -0.156,-0.133 l -2.621,-0.48 c -0.062,-0.012 -0.117,-0.074 -0.117,-0.137 v -2.66 c 0,-0.066 0.055,-0.125 0.117,-0.141 l 2.559,-0.468 c 0.062,-0.012 0.132,-0.071 0.152,-0.133 l 0.797,-1.965 c 0.027,-0.059 0.023,-0.149 -0.012,-0.199 L 196,43.801 c -0.039,-0.055 -0.031,-0.133 0.016,-0.176 l 1.906,-1.883 c 0.047,-0.047 0.129,-0.054 0.183,-0.019 l 2.079,1.41 c 0.054,0.035 0.144,0.039 0.203,0.008 l 0.914,-0.485 c 0.058,-0.031 0.125,-0.008 0.152,0.055 l 1.891,4.504 c 0.023,0.058 0,0.137 -0.055,0.168 l -0.226,0.14 c -0.047,0.024 -0.102,0.071 -0.149,0.11 -0.828,0.519 -1.379,1.433 -1.379,2.476 0,1.625 1.336,2.946 2.988,2.946 1.649,0 2.985,-1.321 2.985,-2.946 0,-1.043 -0.551,-1.957 -1.379,-2.476 -0.043,-0.039 -0.102,-0.086 -0.145,-0.11 l -0.23,-0.14 c -0.055,-0.031 -0.078,-0.11 -0.059,-0.168 l 1.895,-4.504 c 0.023,-0.063 0.094,-0.086 0.152,-0.055 l 0.914,0.485 c 0.059,0.031 0.145,0.027 0.199,-0.008 l 2.083,-1.41 c 0.054,-0.035 0.136,-0.028 0.183,0.015 l 1.906,1.887 c 0.047,0.043 0.051,0.121 0.016,0.176 l -1.453,2.09 c -0.035,0.05 -0.043,0.14 -0.012,0.199 l 0.797,1.965 c 0.02,0.062 0.086,0.121 0.152,0.133 l 2.555,0.468 c 0.066,0.016 0.117,0.075 0.117,0.141 v 2.656 c 0,0.067 -0.051,0.129 -0.117,0.141" /><path
         inkscape:connector-curvature="0"
         id="path3466"
         style="fill:#0000ff;fill-opacity:1;fill-rule:evenodd;stroke:none;stroke-width:0.2832;stroke-miterlimit:10;stroke-dasharray:none"
         d="m 198.059,32.223 h 0.574 v 1.925 c 0,0.7 -0.485,0.934 -1.192,0.934 -0.429,0 -0.746,-0.113 -0.968,-0.414 l 0.453,-0.336 c 0.101,0.16 0.242,0.215 0.543,0.215 0.41,0 0.59,-0.094 0.59,-0.363 v -0.293 h -0.801 c -0.617,0 -0.934,-0.387 -0.934,-0.836 0,-0.492 0.375,-0.864 1.016,-0.864 0.387,0 0.586,0.09 0.703,0.282 h 0.016 z m 0,0.992 c 0,-0.442 -0.168,-0.488 -0.649,-0.488 -0.39,0 -0.543,0.168 -0.543,0.355 0,0.207 0.16,0.34 0.5,0.34 h 0.692 z" /><path
         inkscape:connector-curvature="0"
         id="path3468"
         style="fill:#0000ff;fill-opacity:1;fill-rule:evenodd;stroke:none;stroke-width:0.2832;stroke-miterlimit:10;stroke-dasharray:none"
         d="m 199.266,32.223 h 0.574 v 1.699 c 0,0.414 0.277,0.59 0.562,0.59 0.149,0 0.243,-0.039 0.379,-0.137 l 0.418,0.488 c -0.176,0.133 -0.371,0.219 -0.601,0.219 -0.301,0 -0.563,-0.113 -0.743,-0.336 h -0.015 v 0.301 h -0.574 z" /><path
         inkscape:connector-curvature="0"
         id="path3470"
         style="fill:#0000ff;fill-opacity:1;fill-rule:evenodd;stroke:none;stroke-width:0.2832;stroke-miterlimit:10;stroke-dasharray:none"
         d="m 202.922,32.223 h 0.578 v 3.968 h -0.578 v -1.445 c -0.215,0.203 -0.445,0.336 -0.738,0.336 -0.352,0 -0.606,-0.156 -0.77,-0.367 -0.16,-0.203 -0.207,-0.383 -0.207,-1.074 0,-0.7 0.047,-0.883 0.207,-1.082 0.164,-0.211 0.418,-0.368 0.77,-0.368 0.293,0 0.558,0.133 0.738,0.329 z m -0.567,2.289 c 0.54,0 0.567,-0.465 0.567,-0.871 0,-0.414 -0.027,-0.883 -0.567,-0.883 -0.539,0 -0.566,0.441 -0.566,0.883 0,0.433 0.027,0.871 0.566,0.871" /><path
         inkscape:connector-curvature="0"
         id="path3472"
         style="fill:#0000ff;fill-opacity:1;fill-rule:evenodd;stroke:none;stroke-width:0.2832;stroke-miterlimit:10;stroke-dasharray:none"
         d="m 206.438,32.223 h 0.511 l 0.914,2.824 h -0.609 l -0.547,-1.977 h -0.012 l -0.652,1.977 h -0.418 l -0.648,-1.977 h -0.012 l -0.551,1.977 h -0.605 l 0.914,-2.824 h 0.507 l 0.602,1.98 h 0.008 z" /><path
         inkscape:connector-curvature="0"
         id="path3474"
         style="fill:#0000ff;fill-opacity:1;fill-rule:evenodd;stroke:none;stroke-width:0.2832;stroke-miterlimit:10;stroke-dasharray:none"
         d="m 209.637,32.223 h 0.578 v 1.925 c 0,0.7 -0.488,0.934 -1.195,0.934 -0.426,0 -0.743,-0.113 -0.965,-0.414 l 0.453,-0.336 c 0.101,0.16 0.242,0.215 0.543,0.215 0.41,0 0.586,-0.094 0.586,-0.363 v -0.293 h -0.797 c -0.617,0 -0.934,-0.387 -0.934,-0.836 0,-0.492 0.375,-0.864 1.012,-0.864 0.391,0 0.586,0.09 0.707,0.282 h 0.012 z m 0,0.992 c 0,-0.442 -0.164,-0.488 -0.645,-0.488 -0.39,0 -0.543,0.168 -0.543,0.355 0,0.207 0.16,0.34 0.496,0.34 h 0.692 z" /><path
         inkscape:connector-curvature="0"
         id="path3476"
         style="fill:#0000ff;fill-opacity:1;fill-rule:evenodd;stroke:none;stroke-width:0.2832;stroke-miterlimit:10;stroke-dasharray:none"
         d="m 210.848,32.223 h 0.574 v 1.699 c 0,0.414 0.277,0.59 0.558,0.59 0.149,0 0.243,-0.039 0.379,-0.137 l 0.422,0.488 c -0.179,0.133 -0.371,0.219 -0.601,0.219 -0.305,0 -0.563,-0.113 -0.742,-0.336 h -0.016 v 0.301 h -0.574 z" /><path
         inkscape:connector-curvature="0"
         id="path3478"
         style="fill:#0000ff;fill-opacity:1;fill-rule:evenodd;stroke:none;stroke-width:0.2832;stroke-miterlimit:10;stroke-dasharray:none"
         d="m 215.148,33.422 v 0.469 c 0,0.726 -0.543,1.191 -1.175,1.191 -0.555,0 -1.184,-0.355 -1.184,-1.453 0,-1.16 0.684,-1.438 1.274,-1.438 0.382,0 0.75,0.133 1.031,0.457 l -0.418,0.348 c -0.168,-0.172 -0.406,-0.269 -0.625,-0.269 -0.395,0 -0.684,0.234 -0.684,0.695 z m -1.781,0.469 c 0.012,0.425 0.262,0.656 0.606,0.656 0.336,0 0.586,-0.231 0.601,-0.656 z" /><path
         inkscape:connector-curvature="0"
         id="path3480"
         style="fill:#0000ff;fill-opacity:1;fill-rule:evenodd;stroke:none;stroke-width:0.2832;stroke-miterlimit:10;stroke-dasharray:none"
         d="m 190.785,38.098 c 0,-0.614 0.09,-0.848 0.305,-1.086 0.16,-0.172 0.426,-0.364 0.871,-0.364 0.449,0 0.715,0.192 0.871,0.364 0.223,0.238 0.313,0.472 0.313,1.086 0,0.609 -0.09,0.84 -0.313,1.082 -0.156,0.172 -0.422,0.363 -0.871,0.363 -0.445,0 -0.711,-0.191 -0.871,-0.363 -0.215,-0.242 -0.305,-0.473 -0.305,-1.082 m 1.781,-0.004 c 0,-0.406 -0.031,-0.52 -0.14,-0.672 -0.086,-0.113 -0.266,-0.203 -0.465,-0.203 -0.195,0 -0.375,0.09 -0.461,0.203 -0.109,0.152 -0.141,0.266 -0.141,0.676 0,0.406 0.032,0.519 0.141,0.668 0.086,0.117 0.266,0.207 0.461,0.207 0.199,0 0.379,-0.09 0.465,-0.207 0.109,-0.149 0.14,-0.262 0.14,-0.672" /><path
         inkscape:connector-curvature="0"
         id="path3482"
         style="fill:#0000ff;fill-opacity:1;fill-rule:evenodd;stroke:none;stroke-width:0.2832;stroke-miterlimit:10;stroke-dasharray:none"
         d="m 198.676,37.879 v 0.469 c 0,0.73 -0.551,1.195 -1.184,1.195 -0.551,0 -1.179,-0.359 -1.179,-1.457 0,-1.156 0.683,-1.438 1.269,-1.438 0.387,0 0.754,0.137 1.035,0.458 l -0.418,0.351 c -0.168,-0.172 -0.406,-0.273 -0.629,-0.273 -0.394,0 -0.683,0.234 -0.683,0.695 z m -1.789,0.469 c 0.011,0.429 0.269,0.66 0.605,0.66 0.34,0 0.59,-0.231 0.606,-0.66 z" /><path
         inkscape:connector-curvature="0"
         id="path3484"
         style="fill:#0000ff;fill-opacity:1;fill-rule:evenodd;stroke:none;stroke-width:0.2832;stroke-miterlimit:10;stroke-dasharray:none"
         d="m 199.168,36.684 h 0.574 v 1.679 c 0,0.387 0.242,0.61 0.571,0.61 0.32,0 0.562,-0.223 0.562,-0.61 v -1.679 h 0.578 v 1.875 c 0,0.644 -0.508,0.984 -0.953,0.984 -0.305,0 -0.566,-0.113 -0.746,-0.336 h -0.012 v 0.301 h -0.574 z" /><path
         inkscape:connector-curvature="0"
         id="path3486"
         style="fill:#0000ff;fill-opacity:1;fill-rule:evenodd;stroke:none;stroke-width:0.2832;stroke-miterlimit:10;stroke-dasharray:none"
         d="m 203.012,37.156 c 0.367,-0.34 0.797,-0.508 1.258,-0.508 0.668,0 1.191,0.317 1.191,0.872 0,0.449 -0.238,0.808 -0.832,0.843 l -0.477,0.035 c -0.289,0.024 -0.379,0.145 -0.379,0.266 0,0.199 0.125,0.344 0.493,0.344 0.312,0 0.543,-0.11 0.769,-0.262 l 0.356,0.41 c -0.282,0.235 -0.621,0.387 -1.125,0.387 -0.602,0 -1.067,-0.297 -1.067,-0.871 0,-0.484 0.348,-0.766 0.824,-0.801 l 0.508,-0.043 c 0.199,-0.019 0.352,-0.082 0.352,-0.281 0,-0.238 -0.238,-0.363 -0.567,-0.363 -0.382,0 -0.652,0.125 -0.902,0.363 z" /><path
         inkscape:connector-curvature="0"
         id="path3488"
         style="fill:#0000ff;fill-opacity:1;fill-rule:evenodd;stroke:none;stroke-width:0.2832;stroke-miterlimit:10;stroke-dasharray:none"
         d="m 205.785,38.098 c 0,-0.614 0.09,-0.848 0.313,-1.086 0.16,-0.172 0.422,-0.364 0.871,-0.364 0.445,0 0.711,0.192 0.867,0.364 0.223,0.238 0.312,0.472 0.312,1.086 0,0.609 -0.089,0.84 -0.312,1.082 -0.156,0.172 -0.422,0.363 -0.867,0.363 -0.449,0 -0.711,-0.191 -0.871,-0.363 -0.223,-0.242 -0.313,-0.473 -0.313,-1.082 m 1.789,-0.004 c 0,-0.406 -0.035,-0.52 -0.144,-0.672 -0.082,-0.113 -0.262,-0.203 -0.461,-0.203 -0.199,0 -0.379,0.09 -0.465,0.203 -0.106,0.152 -0.141,0.266 -0.141,0.676 0,0.406 0.035,0.519 0.141,0.668 0.086,0.117 0.266,0.207 0.465,0.207 0.199,0 0.379,-0.09 0.461,-0.207 0.109,-0.149 0.144,-0.262 0.144,-0.672" /><path
         inkscape:connector-curvature="0"
         id="path3490"
         style="fill:#0000ff;fill-opacity:1;fill-rule:evenodd;stroke:none;stroke-width:0.2832;stroke-miterlimit:10;stroke-dasharray:none"
         d="m 208.641,37.629 c 0,-0.637 0.507,-0.981 0.961,-0.981 0.3,0 0.558,0.114 0.738,0.336 h 0.012 v -0.3 h 0.578 v 2.824 h -0.578 v -1.68 c 0,-0.387 -0.243,-0.609 -0.567,-0.609 -0.324,0 -0.57,0.222 -0.57,0.609 v 1.68 h -0.574 z" /><path
         inkscape:connector-curvature="0"
         id="path3492"
         style="fill:#0000ff;fill-opacity:1;fill-rule:evenodd;stroke:none;stroke-width:0.2832;stroke-miterlimit:10;stroke-dasharray:none"
         d="m 211.563,36.684 h 0.574 v 1.699 c 0,0.41 0.273,0.59 0.558,0.59 0.149,0 0.243,-0.039 0.379,-0.137 l 0.418,0.488 c -0.176,0.133 -0.367,0.219 -0.597,0.219 -0.305,0 -0.567,-0.113 -0.747,-0.336 h -0.011 v 0.301 h -0.574 z" /><path
         inkscape:connector-curvature="0"
         id="path3494"
         style="fill:#0000ff;fill-opacity:1;fill-rule:evenodd;stroke:none;stroke-width:0.2832;stroke-miterlimit:10;stroke-dasharray:none"
         d="m 215.328,37.512 c -0.14,-0.172 -0.344,-0.293 -0.582,-0.293 -0.469,0 -0.742,0.262 -0.742,0.875 0,0.617 0.273,0.879 0.742,0.879 0.238,0 0.442,-0.121 0.582,-0.293 l 0.422,0.371 c -0.246,0.285 -0.59,0.492 -1.027,0.492 -0.66,0 -1.301,-0.414 -1.301,-1.449 0,-1.031 0.641,-1.446 1.301,-1.446 0.437,0 0.781,0.208 1.027,0.493 z" /><path
         inkscape:connector-curvature="0"
         id="path3496"
         style="fill:#0000ff;fill-opacity:1;fill-rule:evenodd;stroke:none;stroke-width:0.2832;stroke-miterlimit:10;stroke-dasharray:none"
         d="m 218.262,37.879 v 0.469 c 0,0.73 -0.551,1.195 -1.184,1.195 -0.551,0 -1.18,-0.359 -1.18,-1.457 0,-1.156 0.684,-1.438 1.274,-1.438 0.383,0 0.75,0.137 1.031,0.458 l -0.418,0.351 c -0.168,-0.172 -0.406,-0.273 -0.625,-0.273 -0.394,0 -0.683,0.234 -0.683,0.695 z m -1.785,0.469 c 0.007,0.429 0.265,0.66 0.601,0.66 0.34,0 0.59,-0.231 0.606,-0.66 z" /><path
         inkscape:connector-curvature="0"
         id="path3498"
         style="fill:#0000ff;fill-opacity:1;fill-rule:nonzero;stroke:none;stroke-width:0.2832;stroke-miterlimit:10;stroke-dasharray:none"
         d="m 194.777,37.219 c 0.543,0 0.571,0.437 0.571,0.875 0,0.441 -0.028,0.879 -0.571,0.879 -0.535,0 -0.566,-0.469 -0.566,-0.879 0,-0.406 0.031,-0.875 0.566,-0.875 m -1.144,-4.996 v 7.285 h 0.578 v -0.293 c 0.184,0.191 0.445,0.328 0.742,0.328 0.352,0 0.606,-0.156 0.77,-0.371 0.156,-0.199 0.199,-0.383 0.199,-1.078 0,-0.692 -0.043,-0.875 -0.199,-1.074 -0.164,-0.215 -0.418,-0.372 -0.77,-0.372 -0.297,0 -0.527,0.137 -0.742,0.336 v -2.238 c 0.191,0.223 0.449,0.336 0.754,0.336 0.449,0 0.957,-0.34 0.957,-0.98 v -1.879 h -0.578 v 1.683 c 0,0.383 -0.242,0.606 -0.563,0.606 -0.328,0 -0.57,-0.223 -0.57,-0.606 v -1.683 z" /><path
         inkscape:connector-curvature="0"
         id="path3500"
         style="fill:#0000ff;fill-opacity:1;fill-rule:nonzero;stroke:none;stroke-width:0.2832;stroke-miterlimit:10;stroke-dasharray:none"
         d="m 247.184,53.93 c 2.066,0 3.816,-0.703 5.238,-2.102 1.43,-1.41 2.144,-3.133 2.144,-5.164 0,-2.039 -0.703,-3.742 -2.109,-5.101 -1.492,-1.442 -3.25,-2.165 -5.273,-2.165 -1.996,0 -3.723,0.711 -5.188,2.141 -1.445,1.43 -2.172,3.137 -2.172,5.125 0,1.988 0.727,3.711 2.172,5.164 1.422,1.399 3.149,2.102 5.188,2.102 z m 0.023,-1.313 c -1.676,0 -3.094,-0.578 -4.25,-1.738 -1.203,-1.207 -1.805,-2.613 -1.805,-4.215 0,-1.609 0.598,-3.004 1.789,-4.18 1.196,-1.175 2.618,-1.761 4.266,-1.761 1.641,0 3.074,0.593 4.293,1.777 1.156,1.098 1.734,2.484 1.734,4.164 0,1.652 -0.586,3.059 -1.761,4.215 -1.176,1.16 -2.598,1.738 -4.266,1.738 z m 1.977,-4.152 v -2.969 h -0.844 v -3.527 h -2.289 v 3.527 h -0.844 v 2.969 c 0,0.133 0.047,0.242 0.137,0.332 0.094,0.09 0.207,0.137 0.336,0.137 h 3.031 c 0.121,0 0.23,-0.047 0.328,-0.137 0.094,-0.09 0.145,-0.199 0.145,-0.332 z m -3.016,1.871 c 0,0.684 0.34,1.023 1.027,1.023 0.684,0 1.028,-0.339 1.028,-1.023 0,-0.676 -0.344,-1.012 -1.028,-1.012 -0.683,0 -1.027,0.336 -1.027,1.012 z" /><path
         inkscape:connector-curvature="0"
         id="path3502"
         style="fill:#0000ff;fill-opacity:1;fill-rule:nonzero;stroke:none;stroke-width:0.2832;stroke-miterlimit:10;stroke-dasharray:none"
         d="m 230.887,53.93 c 2.062,0 3.816,-0.711 5.265,-2.129 0.692,-0.684 1.219,-1.465 1.578,-2.34 0.36,-0.879 0.54,-1.813 0.54,-2.797 0,-0.996 -0.176,-1.93 -0.532,-2.797 -0.355,-0.867 -0.879,-1.636 -1.574,-2.304 -0.719,-0.696 -1.539,-1.235 -2.449,-1.606 -0.91,-0.371 -1.856,-0.559 -2.828,-0.559 -0.973,0 -1.907,0.184 -2.797,0.551 -0.891,0.367 -1.692,0.903 -2.399,1.598 -0.703,0.695 -1.242,1.48 -1.609,2.351 -0.367,0.875 -0.555,1.797 -0.555,2.766 0,0.957 0.188,1.883 0.559,2.77 0.375,0.886 0.918,1.679 1.629,2.379 1.402,1.41 3.125,2.117 5.172,2.117 z m 0.023,-1.313 c -1.68,0 -3.097,-0.578 -4.25,-1.738 -0.578,-0.578 -1.023,-1.231 -1.336,-1.949 -0.308,-0.723 -0.465,-1.481 -0.465,-2.266 0,-0.777 0.157,-1.531 0.465,-2.25 0.313,-0.723 0.758,-1.367 1.336,-1.933 0.578,-0.571 1.235,-1 1.965,-1.297 0.727,-0.301 1.488,-0.45 2.285,-0.45 0.793,0 1.559,0.149 2.301,0.454 0.742,0.304 1.41,0.738 2.004,1.308 1.152,1.11 1.723,2.496 1.723,4.168 0,0.801 -0.145,1.567 -0.446,2.281 -0.297,0.719 -0.73,1.36 -1.301,1.922 -1.187,1.168 -2.613,1.75 -4.281,1.75 z m -0.09,-4.746 -0.988,-0.508 c -0.105,0.215 -0.234,0.368 -0.387,0.453 -0.152,0.086 -0.297,0.133 -0.429,0.133 -0.657,0 -0.989,-0.429 -0.989,-1.285 0,-0.391 0.086,-0.703 0.254,-0.933 0.164,-0.235 0.41,-0.352 0.735,-0.352 0.429,0 0.734,0.207 0.91,0.621 l 0.906,-0.453 c -0.191,-0.356 -0.461,-0.633 -0.801,-0.836 -0.343,-0.203 -0.722,-0.305 -1.133,-0.305 -0.66,0 -1.191,0.2 -1.593,0.598 -0.403,0.394 -0.602,0.949 -0.602,1.66 0,0.692 0.199,1.238 0.61,1.645 0.41,0.406 0.921,0.613 1.546,0.613 0.911,0 1.567,-0.352 1.961,-1.051 z m 4.25,0 -0.972,-0.508 c -0.106,0.215 -0.235,0.368 -0.391,0.453 -0.152,0.086 -0.297,0.133 -0.441,0.133 -0.657,0 -0.985,-0.429 -0.985,-1.285 0,-0.391 0.082,-0.703 0.25,-0.933 0.164,-0.235 0.41,-0.352 0.735,-0.352 0.429,0 0.734,0.207 0.91,0.621 l 0.922,-0.453 c -0.203,-0.356 -0.473,-0.633 -0.817,-0.836 -0.34,-0.203 -0.715,-0.305 -1.117,-0.305 -0.668,0 -1.199,0.2 -1.598,0.598 -0.402,0.394 -0.601,0.949 -0.601,1.66 0,0.692 0.203,1.238 0.609,1.645 0.41,0.406 0.926,0.613 1.547,0.613 0.914,0 1.563,-0.352 1.949,-1.051 z" /><path
         inkscape:connector-curvature="0"
         id="path3504"
         style="fill:#0000ff;fill-opacity:1;fill-rule:nonzero;stroke:none;stroke-width:0.2832;stroke-miterlimit:10;stroke-dasharray:none"
         d="m 263.477,53.93 c 2.062,0 3.808,-0.703 5.238,-2.117 1.433,-1.399 2.144,-3.118 2.144,-5.149 0,-2.035 -0.699,-3.738 -2.101,-5.113 -1.485,-1.434 -3.246,-2.153 -5.281,-2.153 -1.993,0 -3.719,0.711 -5.184,2.141 -1.449,1.426 -2.172,3.137 -2.172,5.125 0,1.981 0.723,3.695 2.172,5.149 1.43,1.414 3.156,2.117 5.184,2.117 z m 0.027,-1.313 c -1.676,0 -3.094,-0.582 -4.25,-1.75 -1.203,-1.203 -1.805,-2.601 -1.805,-4.203 0,-1.621 0.594,-3.012 1.789,-4.18 1.196,-1.175 2.614,-1.761 4.266,-1.761 1.641,0 3.07,0.593 4.289,1.777 1.16,1.106 1.738,2.492 1.738,4.164 0,1.66 -0.586,3.063 -1.761,4.203 -1.168,1.168 -2.59,1.75 -4.266,1.75 z m -3.293,-4.929 c 0.144,0.89 0.504,1.582 1.094,2.07 0.59,0.488 1.304,0.73 2.144,0.73 1.16,0 2.082,-0.363 2.766,-1.101 0.683,-0.735 1.027,-1.676 1.027,-2.828 0,-1.114 -0.355,-2.043 -1.066,-2.782 -0.711,-0.738 -1.633,-1.109 -2.766,-1.109 -0.832,0 -1.551,0.246 -2.156,0.738 -0.606,0.492 -0.973,1.196 -1.094,2.106 h 1.856 c 0.043,-0.883 0.586,-1.328 1.621,-1.328 0.515,0 0.933,0.222 1.25,0.664 0.316,0.441 0.472,1.031 0.472,1.761 0,0.774 -0.144,1.356 -0.433,1.758 -0.289,0.406 -0.707,0.606 -1.25,0.606 -0.985,0 -1.535,-0.426 -1.66,-1.285 h 0.543 l -1.465,-1.438 -1.461,1.438 z" /><text
         id="text3538"
         style="font-variant:normal;font-weight:normal;line-height:0%;font-family:Verdana;-inkscape-font-specification:Verdana;writing-mode:lr-tb;fill:#0000ff;fill-opacity:1;fill-rule:nonzero;stroke:none;stroke-width:0.2832;stroke-miterlimit:10;stroke-dasharray:none"
         transform="matrix(1,0,0,-1,145.40362,67.266168)"><tspan
           id="tspan3540"
           sodipodi:role="line"
           y="0"
           x="0 14.724 29.448 43.577999 50.112 57.779999 68.688004 79.902 90.809998 97.902 102.834 112.194 117.054 127.854 134.388 143.748 154.65601"
           style="font-size:18px;line-height:1.25">www.roboticia.com</tspan></text>
</g></g></svg>